<svg xmlns="http://www.w3.org/2000/svg" width="1369" height="254" fill="none" viewBox="0 0 1369 254"><path fill="#F6F4F4" d="M1261.74 133.78c-1.3-1.17-1.84-2.48-3.19-3.47 0 0 .06-.18-.16-.24-1.57.46-2.92.99-4.76 1.56 0 0-.22-.07-.16-.25l-3.74 2.84 1.67 2.23.22.07 1.95 2.9c2.54-2.06 5.19-4.47 8.17-5.64Zm40.18 10.48 1.3-4.17c-.48.04-.97.08-1.24.19l-1.14 1.35c.22.84.65 1.73 1.08 2.63Zm-2.07 8.12-3.94-.29-.98.84 3.62 5.14c.76-.15 1.51-.3 2.49-.37-.76-1.38-1.57-2.58-2.27-4.14.33-.28.71-.73 1.08-1.18Zm-23.06 16.02s.16.25 0 0c0 0 .16.25 0 0Zm-28.31-27.15-1.51-2c-.6.4-1.14.6-1.74.99l3.25 1.01Zm25.58 4.77c-.49-.72-.32-2.77-.16-4.05.16-.52 2-1.09 3.09-1.51l1.29.4c-.75.91-1.35 2.06-2.11 2.96.43.14.87.27 1.35.24l2.98-1.17c.11-.35.06-.93.16-1.28l-16.2-22.6c-1.24-.58-2.48-1.16-3.94-1.8l-5.86 7.3c-.21.7-.16 1.3-.32 1.81.38.31.54.55.7.8.27-.11.7.02.97-.08 1.95-.16 2.82.11 3.3.84l.22-.7c.7.03 1.41.06 1.89.02 1.84 1.72 3.62 3.61 5.41 5.5 2.32.16 4.54.67 6.87.82-.17.52-.11 1.11-.33 1.8-1.79.4-3.73.55-5.52.95 1.13 3.97 1.61 6.98 1.61 9.26l4.6.49Zm40.4-41.09c.6-1.14 1.25-1.7 2.87-1.57l-2-2.72c-.21-.07-.27.1-.48.03.05-.17.11-.34.32-.28l-4-5.44c-1.56-.3-3.08-.77-4.65-1.07-1.56-.3-3.08-.78-4.32-.6-1.3.36-2.76.48-3.84.14-.87 2.01-1.58 4.27-2.88 5.39.16.24.11.41.27.65a71.9 71.9 0 0 1 5.57 2.7c1.03.5 1.03 2.03 1.67 3-.54.2-1.29.35-1.84.56-2.21-1.26-4.64-2.6-6.86-3.86l-3.89-1.22 1.99 2.72c1.57-1.22 4.92 2.5 6.93 2.17-.06 3.22-1.09 4.23-2.28 4.24l1.51 2s-.05.17.16.24l3.03.18c2.11-.67 3.47-1.2 5.03-1.66-.75-.62-1.56-1.06-2.1-1.61 0 0-.22-.07-.38-.31.27-2.4.6-4.96.87-8.1 1.14.16 2.33.15 3.47.31.54-.97 1.08-1.95 1.41-2.99a17.15 17.15 0 0 1 1.13 5.5c.54-.21 1.02-.25 1.78-.4-.38 1.22-.98 2.37-1.3 3.41.38-1.21 1.62-1.4 2.81-1.4Zm-72.78 69.44 5.57.41c3.73-1.3 7.68-2.55 11.42-3.85l1.78-2.68c-1.83.56-3.4 1.03-5.19 1.42.43-1.39 1.3-1.88 1.9-2.26l-18.39-1.19c-1.79 1.16-4.06 1.59-6.12 2.09l-3.63 5.53 10.01.66 4.38-4.92c.81.45 1.63.9 2.22 1.27-1.25.94-2.6 2.23-3.95 3.52Zm34.24-95.78c.65.96 1.52 2 2.16 2.96.49.72.49 1.48.76 2.14-.49.04-.76.14-1.24.18l9.66 13.13c.06-.18.33-.28.33-.28.7.03 1.46-.12 2.11.08-1.57-1.06-2.71-1.98-4.27-3.05 2.05-.5 3.35-.85 4.92-1.31.11-.35-.05-.6.06-.94-1.46-1.4-2.7-2.75-4-3.92-.81.32-1.79.4-2.6.71-.11-.41-.43-.9-.54-1.3.54-.22.92-.67 1.46-.88a42.65 42.65 0 0 1-2.54-2.51 7.58 7.58 0 0 1 8.06.04c.22.07.27-.1.49-.04 0-.76-.05-1.35.17-2.04-3.09-.77-6.39-.85-9.04-2.26l-5.95-.71Zm-110.18-6.86 1.89.79-.48-.73-1.41-.06Zm178.25 88.36c.05-.17 0 0 0 0-1.03.25-2.06.5-2.65.88-.22.7-.66 1.32-.87 2.02l10.92.75a25.9 25.9 0 0 0 3.58-3.07c-.6-1.14-1.03-2.04-1.62-3.18-1.68 1.57-3.41 3.32-5.25 4.65-3.25 2.03-4.6 1.04-4.11-2.05 3.78.04 5.84-1.98 7.74-4.25l-9.58-.52a647.3 647.3 0 0 1-.65 4.37c.97-.07 1.62.13 2.49.4Zm.42-40.07c.98.69 1.73 1.3 2.71 2 .27-.88.54-1.74.97-2.37l-3.03-.19-.05.18c-.33.28-.54.2-.6.38Zm-40.62-3-3.03-.18 1.84 2.48c.27-.86.76-1.66 1.19-2.3Zm51.05-30.32c1.35 1 2.7 2 4.11 2.81 1.57-.46 3.14-.92 4.49-1.45l-.05-.59c-.17-.24-.27-.65-.44-.9-.81.32-1.67.81-2.38.78-2.05-.26-3.89-.45-5.73-.65Zm-272.26-.4-15.28-20.98-26.56-1.64 23.98 32.65c.16.24.38.3.75.62l10.23.72a318.26 318.26 0 0 1-6.33-5.6c.22 1.6.16 2.53.38 4.12-2.92-2.06-5.08-3.5-6.87-4.63.06-2.46.23-4.5.33-5.61 5.31.52 10.71 1.45 15.91 1.55 1.19-.01 2.54-.54 3.46-1.2Zm108.87 18.63-21.93-30.1-5.19-1.63.55-1.74-24.24-1.48 5.19 6.96c2.54.98 4.1 5.09 7.3 4l2.43 3.61a3.92 3.92 0 0 1 1.46-.11l4.22.17c.21.07.37 1.08.43 1.66-1.41-.06-2.87.06-4.22-.17-2-.44-3.68-1.15-5.79-1.24l13.34 18.08s-.05.17.16.24l26.29 1.75Zm-26.97-17.78c.38-.45.97-.84 1.35-1.29 1.73 1.3 3.46 2.6 5.25 3.74-.38.45-1.03 1.01-1.41 1.46l-5.19-3.9Zm-.82 5.65c5.3 2.04 11.03 1.93 14.65 6.3-4.27-3.05-11.25-.47-14.65-6.3Zm-131.94 1.97 26.56 1.64-.16-.24c-2.49-1.16-5.14-2.56-8.27-3.92 6.01-5.55-3.95-5.62-4.86-8.76 1.13-.6 2.16-.85 2.97-1.17l-11.12-15.3a16.78 16.78 0 0 1-6.97-4.27l-22.61-1.36 24.46 33.38Zm300.07 83.03c-.37-.3-.59-.37-.97-.68l-.97 1.6c.54-.21 1.35-.53 1.94-.92Zm-243.91-93.28c4.06-.82 9.31-1.66 10.12-1.21.43.13.54.55 1.08 1.1-1.51.29-2.76.47-4.22.58-.11.35 0 .76-.11 1.11 2.81.88 5.41 1.7 7.3 2.48 1.35 1.75 2.54 3.27 4.32 5.92-4.65-1.07-8.16-1.98-11.03-2.69-.27.87-.38 1.98-.44 2.91l2.97 4.17s-.05.18.17.24l26.55 1.65-21.11-28.9c-.98-.69-1.89-1.55-2.65-2.17.43.14.7.03 1.14.17l-1.84-2.48-6.28-.44c2.71 2.75 5.25 5.26 7.95 8.01-.06.17-.33.28-.38.45-4.38-2.7-8.6-5.16-13.19-7.94.32 1.25.59 2.67.91 3.91-7.89.2-9.63-.34-9.73-5.33l-3.03-.19c-.05.94-.54 1.74-1.03 2.54l12.53 16.11Zm203.41-4.94c1.08.34 2.21.5 3.35.67.27-.1.32-.28.59-.38l-3.94-.29Zm-209.54 18.46c.01-.76.22-1.46.71-2.26 1.57-2.74 1.09-3.47-1.99-5 .21 1.59.64 3.25 1.02 5.08-1.79-.37-3.09-.77-4.22-.94.38 1.07.81 1.97 1.19 3.04l3.29.08Zm144.12 85.1-1.46 2.4c-1.2 3.06-2.71 4.87-4.39 5.68l9.34 11.12c.93-1.43 3.47-.44 4.22-.59 3.42-3.31 5.37-6.51 8.4-7.85-2.11-.85-4.11-2.05-6.38-3.14-1.35.53-2.49 1.13-3.84 1.66a5.15 5.15 0 0 1-.76-1.38l1.95-1.68c-1.62-.89-3.3-1.6-5.03-2.14 2.92-.23 5.84-.46 8.55-.76 1.62-1.4 3.46-2.72 5.41-4.4.59 3.42 2.86 6.04 5.3 6.6l5.85-8.83-12.55-.88-.22.7c-2.48-.4-4.97-.8-7.68-1.26l-6.27-.44-3.03 4.38c.81.45 1.67.72 2.59.81Zm106.72-39.76-10.39 3.6 1.68 2.25 2.81.11c.7-.73 1.41-1.46 2.27-1.95 2.01-1.1 3.14-2.45 3.63-4.01Zm-13.64 51.94c1.14-.6 2.22-1.03 3.36-1.62.27.65.32 1.24.38 1.83l1.62-2.92c-.48-.72-1.02-1.27-1.73-2.07 1.52-1.8 3.09-3.8 4.61-5.6-.22-.07-.16-.25-.38-.31l-.22-.07-.54.21-7.1 10.54Zm-83.42 10.85 5.85-8.84c-1.41.7-2.49 1.9-3.25 4.32a8.8 8.8 0 0 1-3.58 4.6c.22.07.71.03.98-.08Zm25.47 5.12c-.16-.25-.05-.6 0-.77l-.97.84.97-.08Zm4.25-28.02c-.16 2.05-.17 4.33-.33 6.38-3.63 1.72-7.25 3.44-11.04 4.93l1.4 1.58c3.47-1.2 6.82-2.06 9.91-3.57.32-.28.81-.32 1.13-.6.06-.17-.1-.41-.1-.41.21.07.43.13.7.03 1.24-.95 2.27-1.96 3.52-2.9.38-.46.7-.73 1.08-1.19-.7-.03-1.51-.47-2.21-1.26 1.94-1.68 3.62-3.25 5.57-4.92l-10.22-.73c0 .76-.06 1.7 0 2.29.43.13.65.2.59.37Zm54.45 68.1 3.57-.02c.49-3.09.76-6.24.33-9.42l-6.28 9.46 2.38-.02Zm-13.68-51.15 2.16.68.87-1.25c-.05-.6.11-1.11.06-1.7l-.22-.07a12.1 12.1 0 0 1-3.9.3c.11.42.16 1.01.16 1.77.49-.04.71.03.87.27Zm38.41-51.42c-.92.66-1.78 1.15-2.87 1.58l8.88.49-4.11-5.86c-.65 1.32-1.3 2.64-1.9 3.79Zm-8.63 27.59.54-.21-.16.52c.16.24.54.55.7.79.87-.5 1.95-.91 2.81-1.4-1.56-1.07-3.4-2.02-4.97-3.09l-1.08.43c.65.96 1.3 1.93 2.16 2.96Zm-48.25-49.2c.16.24.38.3.76.62-1.03 1.77-2.22 3.3-3.63 5.53 3.3-1.44 5.73-2.4 7.95-3.42 1.36-2.05 3.2-2.62 5.04-1.66 1.02.5 2.1.85 3.02.95l1.79-1.16-7.24-10.27-7.69 9.4Zm25.6 79.07c.49-.03 1.19 0 1.68-.04.97-.84 2.11-1.44 3.03-2.1l.11-.35-2.59-3.1-1.36 2.06 2.38.74c-1.24.94-2.49 1.89-3.46 2.73.05-.18.27-.1.21.06Zm-2.49-86.13c.05 1.35.16 2.53.05 3.64 2.81-.65 5.84-1.22 8.39-2.52.81-.32 1.35-1.3 1.95-2.44l-1.3-.4-1.08-.35-1.52-.47-4.16-.35c.16 1.76.05 2.87.26 4.46a7.52 7.52 0 0 1-2.59-1.57Zm19.72 66c-.17 2.8-.49 5.37-.71 8.35 1.78-.4 3.08-.75 5.14-1.25-1.52 1.8-2.33 2.89-3.47 4.25.59.37 1.24.58 1.57 1.06l.16.24c.65-.56 1.08-1.19 1.73-1.75.38.31.81.45.97.7l-1.03 3.29c.92.86 1.79 1.13 3.3.84l-.64-4.77c-.27.1-.33.28-.6.38-.38-.3-.7-.79-1.08-1.1 1.09-1.95 2.22-4.07 4.12-7.1l.97 1.45c.87.28 1.68.72 2.71 1.23.48-.8 1.14-2.12 2-4.13-2.27-.33-3.46-.32-5.24-.7.21-.69.38-1.2.32-1.8l-7.19-.53c.7.79 1.4 1.58 2.38 2.27-2.38.78-4.17.4-5.41-.94Zm10.65-43.92c.17.24.54.55.71.79.65-.56 1.46-.88 2.32-1.37l-.48-.72c-.38-.31-.81-.44-1.41-.82-2.11.67-4.27 1.52-6.38 2.2-.33 1.8-.87 3.53-1.15 5.16a159.5 159.5 0 0 1 6.23-3.96c-.11-.41 0-.76.16-1.28Zm-33.24-23.55c-1.4-.06-2.81.65-4.76 1.56l2.65 3.69c1.41-1.47 2.76-2.76 2.11-5.25.22.07 0 0 0 0Zm46.09 3.75 1.57-1.98c-.22-.07-.16-.24-.38-.31l-1.89-.02c0 .76.48 1.48.7 2.31 0 0-.22-.06 0 0ZM1327.65 207l1.35 1.76a9.83 9.83 0 0 0 1.52-4.1 9.5 9.5 0 0 0-3.14-.6c.22.83.43 1.66.22 2.35.16.24.1.42.05.6Zm-15.17-28.18c.06-.17.11-.35.38-.45-.54.2-.81.31-1.35.53l.97-.08Zm8.83 32.49c-.54-.55-1.13-.93-1.72-1.3l-3.25 1.26c1.51.48 3.13.6 4.97.04Zm-14.79-24.83c.27.66.38 1.07.76 1.38 1.41-1.46 2.6-3 2.82-4.45l-2.55-.22c-.16.51-.16 1.28-.16 2.04.11.41-.27.87-.87 1.25Zm39.9 20.49c.6-1.15 1.19-2.3 2.01-3.38l-.17-.24-2.27 3.48.43.14ZM1297.43 192c-.06.17-.06.17 0 0-.06.17-.06.17 0 0-.06.17 0 0 0 0Zm44.28 21.67c.43.13.7.03.92.1.65-1.33 1.3-2.65 2.16-3.9l-.86-.27-1.79 2.68c.05.59-.11 1.1-.43 1.39Zm-16.23-1.27-.16-.24c-.06.17-.17.52-.44.62.27-.1.54-.2.6-.38Zm-113.18-33.7.05-.18c-.27.11-.27.11-.05.18-.22-.07-.22-.07 0 0Zm91.58-2.02c-1.4-.06-2.76-.29-4.16-.35-.38.45-.54.97-.92 1.43-.27-.66-.6-1.14-.7-1.56-.22-.06-.71-.03-.92-.1l-1.3 1.89 8.81.66a32.94 32.94 0 0 1 10.39-4.37 8.52 8.52 0 0 1 1.9-2.26c-.59-.38-1.03-.52-1.62-.9l-2.33-.15c-.92.67-1.78 1.16-2.92 1.75-.87.5-2.65-.64-3.95-1.04.33-.28.71-.73 1.03-1.01l-3.46-.33c-.65 1.33-1.52 2.58-2.44 4 .81.45 1.51 1.24 2.59 2.34Zm-16.17 41.05-1.4-.06 1.3.4.1-.34Zm70.66 36.02c.87-3.54 1.74-7.08 2.88-10.72l-2.05-1.03c-.98 3.89-2.17 7.7-3.1 11.42l2.27.33Zm-26.24-41.36.7.79c.22.06.44.13.38.3l.6.38c0-.76 0-1.52-.22-2.35-.54.21-1.08.42-1.46.88Zm34.68-47.84 1.41.06-.06-1.35c-.65.56-1.03 1.01-1.35 1.3Zm-81.68 46.27c1.24.58 2.7 1.23 3.94 1.8.27-.86.82-1.83 1.3-2.63-2 .32-3.73.54-5.24.83Zm63.78-8.05c-.21-.06-.21-.06 0 0Zm4.12-5.57c.11.42-.49.8-1.08 1.19l.32.48 2.11.1c1.19-.02 2.49.39 3.79.8.16-.53.05-.94.22-1.46a60.09 60.09 0 0 1-4.44-3.3l-1.03 1.78c-.21-.07-.05.17.11.41Zm-9.17-24.58-1.4-.06c.38.3.75.62 1.08 1.1l.32-1.04Zm-73.46 45.03c1.74-.22 3.63-.2 5.31-.25.48-.04.91.1 1.35.23-.38-.3-.81-.44-.98-.68l-4.92-.2-.05.17-.71.73Zm18.51-48.51-4.44-.25c-1.95.92-4.11 1.76-6.06 2.68-.81.32-1.25 1.7-1.79 2.68.92.1 2 .43 2.87-.06 1.35-.53 2.38-1.54 3.68-2.66-.27 1.63-.6 2.68-.54 3.26.48-.04 1.24-.18 1.73-.22-.44-.13-.71-.03-1.14-.16 4.17-1.94 7.36-3.03 9.8-3.22l1.03-1.78-2.82-.12c-.7.74-1.62 1.4-2.32 2.13.27-.87.27-1.63.43-2.15l-.43-.13Zm-33.01 6.06.38-.46c-.76.15-1.3.36-2 .33l1.62.13Zm44.2-3.13-.32-.48-.49.8.81-.32Zm-4.28 10.66c.05-.17.05-.17 0 0l-3.2-.43-.86 1.26c1.51-.3 2.81-.65 4.06-.83Zm54.69-46.52c1.08 1.1 2.21 2.03 3.08 3.06-1.36-.23-2.65-.64-3.95-1.05a4.04 4.04 0 0 1-.71 1.5l7.94 11.06c.87-.5 2.01-1.1 2.87-1.58.27.65.76 1.38.97 2.2l.49-.03c.05-.18.32-.28.38-.46-.11-.41 0-.76-.11-1.17.22.06.49-.04.92.1.06-.18.38-.46.44-.63-.44-.9-.98-2.21-2.27-4.14.76-.9 1.3-1.88 2-2.61-.37-1.07 1.2-3.06 1.9-4.55l1.52.47.27-.1-.06-.6c-.75-.61-1.56-1.06-2.11-1.6-.37-.31-.54-.56-.91-.86-4.71 1.38-4.4 8.72-7.7 12.45.6-8 1.42-11.37 5.32-14.72-.38-.31-.54-.55-.92-.86-.97.08-2.16.08-3.03-.19-.7-.03-1.4-.82-2.05-1.78l-4.34 5.5c-.05.17.11.41.06.59Zm-98.47 55.88c.06-.18.06-.18-.11-.42l-.05.17.16.25Zm-10.27-2.84c-1.14.6-2.93 1-4.98 1.5 3.46.31 6.06.37 8.6.59l.81-1.08a34.3 34.3 0 0 0-4.43-1Zm95.07 20.99 1.46-2.4c-1.73-.54-3.51-.91-5.35-1.1l-.81 2.6c2 .43 3.51.9 4.7.9Zm-108.46-.98-1.02-1.27a1.3 1.3 0 0 0-.98.07c.06-.17.33-.28.6-.38a49.9 49.9 0 0 1-6.6-3.2c-.21-.08.87-1.26 2.01-2.62l-6.54-7.95-.87 1.25c1.19.75 2.06 2.55 3.19 4.24-2.06-.26-3.41-.5-4.11-.53-2.33 2.9-4.55 5.44-6.5 7.88l-.54.97 21.36 1.54Zm-227.07-15.8 18.64-28.46-26.56-1.64-7.64 11.51 15.56 18.59Zm-51.7-16.18-.32.28c.05-.17.27-.1.33-.28Zm37.02-14.32-7.68-.5c1.9 1.54 3.62 2.84 5.08 4.25l2.6-3.75Zm199.81 12.6s-.05.18 0 0Zm-222.31-11.26c-1.52 1.8-2.98 3.45-5.31 6.34l-.59-6.47-5.8 8.66 1.35 1.76c.55-.22.87-.5 1.36-.53 6.87-1.47 8 4.03 10.97 5.15-2.65.12-5.3.24-8.38.23l10.04 11.9 15.02-22.92c-6.76-1.93-7.46-3.48-4.27-6.1l-18.66-1.07-.38.45c1.84.95 3.24 1.78 4.65 2.6Zm64.71 32.25-12.58-15.18-9.06 13.74 21.64 1.44Zm60.48-2.8-5.89-6.98c-.54.21-1.02.25-1.78.4l-3.58 5.35c1.9-1.5 3.14-2.45 5.15-4.3.75 2.9 3.07 4.59 6.1 5.53Zm-28.48-21.3-3.79 4.54a26.46 26.46 0 0 0-2.11-1.62l-2.66 3.94 15.56 18.58 18.64-28.46-26.55-1.64-2.71 4.1c1.19 0 2.27.34 3.62.57Zm-87.17 20.55 21.63 1.44-12.58-15.18-9.05 13.74Zm224.49-87.5 26.77 1.7-24.46-33.37-1.62-.13c1.94 5.18 3.66 10.3 5.6 15.47-.48.04-.81.32-1.3.36-2.1-5.42-4.04-10.6-6.14-16.02l-23.05-1.5 24.2 33.48c.05-.17-.16-.24 0 0Zm-13.06 65.26-.32-3.53c1.51 1.23 3.02 2.47 4.75 3.77l5.04-7.76-26.56-1.64-5.09 7.93 22.18 1.23Zm25.37 1.65c2.43-2.48 4.71-5.2 7.15-7.67l-16.56-.99-4.55 6.96c1.41-.7 2.65-1.65 4.06-2.35-.16 1.28-.54 2.5-1.14 3.64l11.04.4Zm-87.74-5.73 5.1-7.94-26.56-1.64-5.1 7.93 26.56 1.65Zm-59.88-3.69 26.56 1.64 5.1-7.93-26.56-1.64-5.1 7.93Zm93.13 21.14c-1.19 0-2.22.26-3.19.33l-.82 1.08 13.35 15.8c1.02.51 2 1.2 3.02 1.7l7.32-11.23c-.76.9-1.73 1.75-2.49 2.65-.33-.48-.92-.86-1.24-1.34 3.46-1.97 3.58-7.64 8.23-8.1l4.44-6.6c-.48.03-.76.14-1.19 0 .6-.38 1.19-.77 2.06-1.26l.38-.45c-.11-.42 0-.76-.05-1.35l-25.86-1.61-4.12 6.33c-.22 1.45.11 2.7.16 4.05Zm-19.17 14.2c-2.76-1.06-5.67-2.35-8.43-3.4l5.83 7.16 2.6-3.76Zm-12.15-18.1 2.92 2.06c-1.73 1.75-3.3 4.5-5.36 5l4.65 5.64c3.62 1.32 7.19 2.82 10.81 4.14l7.8-12.03c-.75.14-1.46.11-2.21.25 1.73-3.26 3.03-5.9 4.17-8.03 1.3-.35 2.54-.53 3.84-.89l1.84-2.85-26.55-1.64-6.24 9.29c1.3-.36 2.82-.65 4.33-.94Zm7.52 2.55c3.63-1.72 6.44-3.13 10.61-5.07-3.42 7.13-4.5 7.55-10.61 5.07ZM1101 199.7l5.36-8.04c-3.08-.78-6.27-1.2-9.24-.8-.33-1.25-.65-2.49-1.19-3.8 4.44.24 8.44 1.11 11.84 2.37l3.63-5.53c-.21-.07-.64-.2-.81-.45.33-.28.44-.62.82-1.08.21.07.65.2.86.28l7.37-11.42-26.56-1.64-7.64 11.52L1101 199.7ZM706.85 74.27c-1.3-2.69-2.53-5.55-4.75-7.58-.54.21-1.03.25-1.35.53.91 2.38 1.88 4.6 2.8 6.98l3.3.08Zm454.95 130.74-12.59-15.18-9.05 13.75 21.64 1.43ZM687.33 72.93c-2.76-1.82-5.2-3.91-8.71-2.54.48.73.75 1.38 1.3 1.93l7.4.6Zm368.98 89.74 5.09-7.94-26.56-1.64-5.09 7.93 26.56 1.65ZM681.87 62.27c1.52 1.23 3.52 2.43 5.3 3.56l-5.5-7.44c-1.52 1.05-1.74 2.5.2 3.88Zm-245.1-5.25c2.28-2.72 1.36-5.1-2.7-6.56-2.59-.81-5.13-1.8-7.5-2.54l5.6 7.85c.39-.45.82-1.08 1.42-1.46.65.96 1.35 1.75 1.78 2.65l1.4.06Zm288.96 18.4-13.18-17.84-.05.17c-2.76-1.81-5.25-3.74-4.76-6.82l-6.48-8.89-26.55-1.64 2 2.72c5.94 1.48 11.94 2.79 17.9 4.27 1.45 3.7 2.96 7.21 4.63 10.98 1.24 2.86 2.32 5.49 6.49 6.6.86.27 1.24 2.1 1.78 3.41.64 1.73.59 3.43 1.56 4.87.32.49.7.8.81 1.21l15.85.96Zm-25.46-20.35c.55-.21 1.14-.6 1.9-.74 3.95 1.8 3.35 5.24 4.91 7.82l-1.62.64-5.19-7.72Zm-153.9 8.43c.16.24.37.3.53.55l8.17.46c-.48-.73-.97-1.45-1.4-2.35 1.78.37 3.19.43 4.33.6l-22.96-31.39-26.56-1.64 24.1 33.07s-.06.17.15.24l4.44.25c-4.16-1.88-7.73-4.14-9.51-8.32 2.54.23 5.14.28 7.9.57 6.49 1.27 8.05 2.33 10.8 7.96Zm152.32 3.46c-1.08-1.86-1.83-4-3.24-5.59-.7-.79-2.8-.88-4.32-1.35-.06.93.1 1.94.05 2.87l.32.48c.87-.49 1.52-1.04 2.65-1.64 1.2 2.27 1.9 3.83 2.76 5.62.54-.2 1.3-.35 1.78-.4Zm-90.47-22.02a13.3 13.3 0 0 1-4.7-6.24l-2.16-2.96h-1.2c-.2.7-.26 1.64-.48 2.33-.65-.2-1.57-.3-2.22-.5l.17-2.05-22.83-1.42 6.86 9.2c.49-.04 1.03-.26 1.73-.23a825064.75 825064.75 0 0 1 5.35 7.96l-1.09.43 11.45 15.77s-.05.18.16.24l26.78 1.71-2.32-3.2c-.27.1-.49.04-.82.32l-1.13-1.7c-1.46-2.16-2.86-4.5-4.26-6.85-6.83 4.34-7.26 5.73-3.37 10.76-2.27-.33-4.38-.42-6-.55-4.76-5.3-9.19-10.11-13.73-15.34-.54.21-2.1.67-3.4 1.03-.38-.31-.55-.55-.92-.86 1.73-1.74 3.68-3.42 5.68-5.27 4 3.16 4.1 10.43 12.33 8.43-6.17-2.31-5.73-6.75-6.43-11.35 3.84 2.16 7.68 4.3 11.46 6.64l-4.91-6.3Zm91.92 28.76c-1.72-2.06-3.67-4.2-5.45-6.09l4.32 5.93s-.06.17.16.24l.97-.08Zm558.32 137.36c.11-1.1.38-1.98.65-2.84l-3.46-4.13c-1.46.87-2.81 1.4-3.84-.63a5.81 5.81 0 0 1-.16-4.05l-2.43-2.86c-.27.1-.54.21-.75.14l-6.83 10.44c2-.32 4.16-.41 6.17-.74-3.79 1.49-6.01 2.5-7.58 2.97l-.06.17c-.05.18.17.24.11.42l10.71.68c.81-.32 1.36-.53 2.11-.67l-.27.86 5.63.24Zm33.24-70.57.54-.21-.65-.2c-.05.17-.11.34.11.41Zm-109.22 51.56-9.05 13.74 17.68 1.16c-.21-.83-.16-1.77.12-3.4-3.85.9-7.42 1.68-10.83 2.71 3.85-3.18 7.26-4.97 9.48-5.23l-7.4-8.98Zm15.34 20.04-.22-.07c-.06.18-.11.35.05.6l.17-.53ZM757.16 77.44l1.84.2-24.25-33.31-26.56-1.65 10.96 15.06s.06-.18.27-.1c.27.65.6 1.13.92 1.61l12.15 16.57s-.05.17.16.24l19.58 1.17c.11-.34 0-.76.11-1.1 1.63.12 3.3.08 4.76.72.06-.17-.05.18.06.6ZM1188.6 215.7a299.3 299.3 0 0 1 5.69-3.75l-5.84-.3c-.38 1.21-.55 2.5-.87 3.54.21.06.59.37 1.02.5ZM659.32 58.45c-.49.8-1.14 1.36-1.63 2.16l8 10.88s-.06.18.16.24l7.2.54c-.76-.62-1.46-1.4-2.11-2.37-2.1-3.9-4.38-7.28-.75-11.29l8.1 8.25c.66-3.6.13-7.2-.68-10.7-.81-3.48-4-3.9-7.14-3.75-1.19.01-2.7.3-3.24-.25-3.68-2.68-8.27-5.45-5.5-10.49 1.29.4 2.86.7 3.83 1.4 3.68 2.67 4.49 3.11 6 1.3l-2.97-4.17-11.41-.71-.76 2.43c-1.68-.72-2.92-1.3-4.06-1.46-1.35-.23-2.86.05-4.27 0-2.38.01-4.17-.36-5.4-.93l14.14 19.28c.22-.69.44-1.38.98-1.6 1.84-.56 4.06-.82 5.95-.8.92.1 2 1.2 2.76 1.81-.7.74-1.2 1.54-2.23 2.55-1.67-1.48-2.59-2.34-3.5-3.2-1.04.25-1.14.6-1.47.88Zm292.1 7.57c-2.21-1.26-4.48-2.36-6.7-3.62l14.8 20.25c3.57 1.5 7.08 3.17 10.43 4.6-1.35 1.3-2.38 2.3-3.4 3.32l25.3 1.82-24.24-33.3-21.42-1.38c2.27 2.62 4.37 5 6.42 7.54-.54.21-.86.5-1.19.77Zm12.32 13c-.38.45-.49.8-.87 1.25-2.43-1.33-4.8-2.84-7.83-4.54 5.2-1.43 6.7 1.33 8.7 3.3Zm131.47 121.73-3.13-3.65c-2.06 1.27-5.31 1.01-7.69 1.03a99.66 99.66 0 0 0-6.59-5.5l-4.5 6.8 21.91 1.32Zm-249.58-98.67.8-1.08s.06-.18-.15-.24c0 0 .32-.28.6-.39l8.17-10.2a5.42 5.42 0 0 1-1.08-1.87l-19.3-1.28 10.96 15.06Zm28.13-4.92 5.13 7.13 10.95-13.72-20.72-1.34c1.3.4 2.65.64 3.73.98 2.38 3.8 2.75 5.62.91 6.95Zm-57.94 7.6 9.12 12.56 26.56 1.65-15.88-22.12c.06.59-.05.94 0 1.52-3.51-.9-5.73-1.4-8.16-1.98l-.65-.96c1.9-.74 3.73-1.31 6.17-2.27l-3.84-5.2-6.28 7.94.49.73c.7.79 1.94 1.37 3.13 2.12l-1.14 1.36c-1.19-.75-2.32-1.68-3.73-2.5l-5.8 7.14Zm75.65 17 26.56 1.64-22.36-31-13.54 16.72 9.35 12.64Zm57.52-8.49 9.13 12.57 26.55 1.65-22.35-31-13.33 16.78ZM923.1 92.8l-21.64-1.44 10.75 14.99 10.9-13.55Zm99.94 67.66 5.1-7.93-26.56-1.64-5.1 7.93 26.56 1.64Zm-210.73-60.42 4.66-5.78c-.22-.07-.38-.3-.38-.3-.76-.63-.1-2.7.54-4.03.11-.35 2.7-.3 3.3.08l3.04-3.62-21.64-1.44 10.48 15.1Zm144.11-5.2-21.64-1.44 10.75 14.99 10.9-13.55Zm322.33 15.7-.86-2.56a20.2 20.2 0 0 1-2.6 2.24l3.46.32Zm-227.54 21.39-22.36-31-13.55 16.72 9.13 12.57 26.78 1.71Zm155.98-21.11-6.28-.44 2.32 3.2c1.46-.88 2.71-1.82 3.96-2.76Zm-228.4-.21 10.95-13.73-21.64-1.43 10.7 15.16Zm228.44-36.36 24.09 33.07s-.06.17.16.24l26.77 1.7-6.8-9.36c-3.03-.95-6-2.07-9.14-2.67-5.63-1-2.97-7.22-8.65-7.28-1.13.6-2.54 1.3-3.62.96a9.65 9.65 0 0 1-3.3-1.6c-1.14.6-2.33 1.37-3.68 1.9.87-1.26 1.46-2.4 2.27-3.49-1.45-2.17-1.5-5.04-2.64-7.49 2.76-.47 5.31-1 8.55-1.52-1.57-1.06-2.65-2.16-4-3.15l-20.01-1.31Zm13.78 9.84c.65.96.49 2.24.59 3.42l-1.46.11-3.89-5.79c.38-.45.71-.73 1.3-1.11 1.3 1.17 2.71 1.99 3.46 3.37Zm12.72-8.03-2.54-.22c2.27 1.85 4.27 3.81 6.54 5.67l-4-5.45Zm-160.04 28.04c5.68-.7 7.73 2.6 10.48 5.95l4.23-5.16c-1.62.64-3.03 1.34-4.71 2.15-.27-1.42-.1-2.7-.21-3.88l-12.55-.88c.76.62 2.05 1.79 2.76 1.82Zm-50.68-5-21.64-1.44 10.75 14.99 10.89-13.55Zm22.16 15.7 10.94-13.73-21.64-1.43 10.7 15.16Zm-27.23 14.91-22.36-31-13.54 16.72 9.12 12.57 26.78 1.71Zm-221.21 16.33 26.77 1.7 5.1-7.92-25.59-1.72-.92-.1-5.36 8.04Zm33.26 2.22 26.56 1.64 5.1-7.93-26.56-1.65-5.1 7.94Zm57.77 3.6c-5.62-1-11.4-3.77-13.9-6.45 5.36 1.86 10.5 3.66 16.5 5.73l4.6-7.13-26.55-1.64-5.1 7.93 24.45 1.55Zm403.6 4.92c-.11.34-.44.62-.33 1.04-.38-.31-.81-.45-1.4-.82.05-.94.11-1.87.11-2.64l-2-2.72-1.84-.19c.21.83.16 1.77.21 3.12-.59-.38-1.19-.76-1.51-1.24-.49.8-1.3 1.12-2.27 1.2l-2.12 4.47 11.41.72c.38-.45.76-.9 1.36-1.3l-1.62-1.64Zm-386.61-3.8 18.39 1.18 5.09-7.94-26.56-1.64-3.63 5.53c2.76.3 5.03 1.39 6.7 2.87Zm51.7 3.22 5.1-7.93-26.56-1.64-5.1 7.93 26.57 1.64Zm33.27 2.22 5.1-7.94-26.56-1.64-5.1 7.93 26.56 1.65Zm-91.95-5.91-1.08-.34-.11.34h1.19Zm365.58-7.16c1.08-2.71 2.93-5.57 4.45-8.9-3.03.57-6.28 1.08-9.8 1.7 1.84 1.72 2.54 2.5 3.46 3.37-1.24.94-2.22 1.78-2.17 1.6-1.35-.23-2.43-.57-3.56-.73l.97 1.45 3.89 1.21 2.76.3Zm-23.04-1.5c.43-.63.81-1.08 1.62-1.4-3.35-2.19-6.49-4.31-9.84-6.5 3.2-1.1 5.47-1.53 7.31-1.34l1.79-3.44-12.75-17.7-13.54 16.72 1.67 2.23c.11-.34.44-.62.54-.97a488.8 488.8 0 0 1 15.68 9.86c.81.44.76 1.38 1.03 2.03l6.49.51Zm-127.8-25.7 10.19-12.81-21.64-1.44 9.94 13.78 1.51.47Zm-27.98 15.82L1068 110.88a4.48 4.48 0 0 1-2.48-3.44l-3.35-4.48-13.55 16.72 9.13 12.57 26.78 1.71Zm-7.56-19.13 1.52 2 .76-.9c-.65-.2-1.52-.48-2.28-1.1Zm78.99-7.29-10.71-.68c.22.06.43.13.6.37 1.24.58 2 1.96 2.91 2.82-1.29.36-2.92 1-4 .66a18.57 18.57 0 0 1-8.11-4.45l-2.54-.22 10.75 14.98 11.1-13.48Zm-38.39 28.57-6.96-9.6c-4.44-1.02-8.82-2.2-13.47-3.27 1.3-.35 2.65-.88 4.28-1.52-3.9-1.98-8.11-3.68-3.83-7.49.37-.45-.44-1.66 0-2.28.22-.7.7-1.5 1.14-2.12l-3.46-4.9-6.55 8.05c.37.31.59.38.97.69-.76.9-1.95 3.2-2.6 3-.43-.14-.87-.28-1.14-.17l-4.22 5.16 9.12 12.57 26.72 1.88Zm109 6.86c-.22-.07 0 0 0 0Zm-64.71-33.77-13.55 16.72 9.13 12.57 13.52.8-2.27-1.85c-2.7-2-5.19-3.91-6.37-6.19l-3.35-2.95c.75-.15 1.3-.36 2.05-.5l1.14.92c3.41-.26 6.33-.5 8.98-.62.43.9.81 1.97 1.83 4 .87-1.25 1.3-1.87 1.79-2.67-.65-1.73-1.51-3.52-2.32-5.5l-1.35-1.75c-2.86-2.23-5.67-4.63-8.54-6.86.6-.39.98-.84 1.57-1.22.92.86 1.84 1.71 3.03 2.47l-5.29-7.37Zm37.45 32.1c-.06-1.35.11-2.63.49-3.85-1.62-1.65-3.08-3.06-4.7-4.7-.33.27-.6.38-.87.48l.87.28c-.55.2-1.25.18-1.74.22-1.13.6-2.11 1.43-2.7 1.82.32.48.92.85 1.24 1.34.16.24.38.3.32.48 1.03 1.27 2.33 2.44 3.35 3.72l3.74.21ZM118.92 49.01l5.75-6.96-13.53-.8c.11.4 0 .76.16 1-1.73.22-3.24.5-4 .65.7 2.31 1.67 3.76 1.5 5.04l-.2.7.48.72c2.97-.4 5.95-.8 9.09-.97.1-.34.43.14.75.62Zm65.17 16.4 1.3.4c6.65 3.8 11.72 9.57 20.97 10.37 1.84.2 3.46 1.09 5.25 2.22l6.97.46c-7.08-1.64-13.57-5.96-16.32-10.82-2 2.61-3.68 1.14-4.43-1-.81-2.74-2.65-3.7-5.35-4.92-1.68-.71-3.57-1.5-4.81-2.84l-4.28 5.33.7.8ZM307.92 59c.49-2.33.7-3.78 1.14-5.17l-3.73-.22.32 1.25c.22.83 1.08 1.86 2.27 4.14Zm49.6-2.2-10.49-.62c2.38 1.51 4.76 3.02 7.3 4.76l3.2-4.14Zm-66.9-3.98c-.22-.07-.17-.24-.38-.3l-21.2-1.3 10.74 14.98 10.84-13.38Zm-15.28 16.94c.27-.1.33-.28.6-.39l-12.2-17.15-9.33 11.56c.6.38 1.14.93 1.95 1.37-1.25.19-2.22.26-3.46.44l-2.71 3.35 5.3 7.37c2.1-.67 3.4-1.03 4.7-1.38.38.3 1.03.5 1.4.82-.54.97-1.03 2.53-2.05 2.78-.76.15-1.79-.37-3.03-.95l2.8 3.93 26.56 1.64-8.58-12.02c-.81-.44-1.35-1-1.95-1.37Zm54.44-12.3c.1-.35.21-.7.54-.98L316.77 73.2l9.13 12.57 26.56 1.64-21-29.24c-.66-.2-1.25-.58-1.68-.72Zm56.2 7.1c-.55-.55-1.09-1.1-1.36-1.76 0 0-.27.1-.43-.13-2.6-1.58-5.46-3.05-8-4.8l-7.25-.36 10.75 14.99 6.28-7.94Zm10.33-3.44c1.24 1.35 2.43 2.86 3.67 4.2l-3.3-4.65-.37.45Zm23.74 2.29c-1.57.46-3.51.61-6 .98-.17-.24-.49-1.49-1.03-2.8-.48.04-.8.32-1.3.36-.16 1.28-.27 2.39-.38 3.5-2.38-.75-4.54-1.42-6.43-2.2l8.1 11.3 10.13-12.65c-.92.66-2 1.09-3.09 1.51Zm-31.1-4.59-8.6-.6.22.07c4.98.8 7.25 1.13 8.38.53Zm-5.75 18.4 9.13 12.57 26.55 1.64-15.39-21.39c-.05.17-.27.1-.27.1a556.14 556.14 0 0 0-7.51-4.06c0 .76 0 1.52-.11 1.87-1.3-.4-2.87-.7-4.44-1l-7.96 10.27Zm-225.43-33.2-21.64-1.43 10.75 14.98 10.89-13.55Zm83.02 11.69 5.94 8.34 10.95-13.73-8.88-.49-1.08.43-.32-.48-4.44-.25c-.05 1.7-.33 3.33-.49 5.37-.76.15-1.3.36-1.68.81ZM94.91 44.55 90.7 49.7c2.16 1.44 3.94 3.33 6.92 2.93 0 0 .21.07.37.3a9.93 9.93 0 0 0 1.85-2.84c.16-.52.27-.87.22-1.46-1.73-1.3-3.46-2.6-5.14-4.08Zm150.73 26.78-15.07-20.91c-.21-.07-.43-.14-.6-.38l-13.2 16.44 8.9 12.5.22.07 11.63.78c-.27-1.41-.38-2.59-.65-4-.21-.84-1.13-1.7-1.35-2.53-.97-2.97-1.78-5.7-2.53-8.6 2.76 1.05 5.57 1.93 8.11 2.92.22.07.33.48.65.96-1.19.01-2.38.02-3.35.1-1.85 5.14 4.31 7.45 7.07 11.55l2.81.12c-1.24-3.63-2.26-6.43-3.23-9.4.1.41.32.48.6.38Zm912.71 31.62-12.48-17.05a6.9 6.9 0 0 1-4.86-4.19c-1.19-3.03-2.21-6.6-7.57-5.41-.27.1-1.08-1.1-2.75-2.58 3.19.43 5.24.69 7.08.88l-3.46-4.89-26.55-1.64 1.83 2.48 17.37 1.43c1.18 2.28 2.69 5.04 4.04 7.56-3.19 1.85-9.68-2.46-10.12 3.5-1.19-.76-2.43-1.34-3.62-2.09l14.8 20.25s-.06.18.16.25l.7.03c-.64-.97-1.35-1.76-1.99-2.72-.49-.73-.11-1.94-.05-2.88l1.46-.11c1.08 1.86 1.78 4.17 3.45 5.65l22.56 1.53ZM208.38 63.67l-11.23-15.71-6.67 8.4c2.54 1.74 5.14 3.31 7.52 4.82a7.75 7.75 0 0 0 3.89 1.22c1.73-.22 4.16.35 6.49 1.27Zm15.98-15.39-21.64-1.44 10.75 14.99 10.89-13.55Zm-33.32-2.04L169.4 44.8l10.75 14.99 10.89-13.55Zm61.51 34.87-1.3-1.93c-.59.39-1.24.94-2.37 1.54l3.67.4Zm-146-40.35-3.74-.22 1.3 1.93c.87-.49 1.57-1.22 2.44-1.71Zm473.7 43.44c-.86-.27-1.67-.72-2.53-.99l1.5 2 1.04-1.01Zm5-6.06c-1.25-.58-2.5-1.16-4.17-1.88.6 1.9 1.02 3.56 1.45 5.22l2.71-3.34Zm33.34 26.25-15.23-21.16c.05.6.05 1.35.05 2.12a231.75 231.75 0 0 0-7.89-11.24l-7.36 9.13c2 1.2 4 2.4 6.75 4.21-4.05.07-6.27.32-9.84.35.21-.7.65-1.32.81-1.84l-2 2.61c2.37 2.27 2.7 3.51.86 4.84l6.75 9.55 27.1 1.43Zm-33.27-2.22-8.59-12.02-1.3-.41c-3.62-1.32-6.91-2.93-10.48-4.43-.33.28-.44.63-.76.91.97 1.45 1.94 2.9 3.02 4.76-6.38-1.62-8.16-5.03-7.07-11.55 2.92 2.05 6.05 4.18 10.16 6.99-.27-2.18-.27-2.94-.43-3.95.76.62 1.57 1.07 2.33 1.68l-5.78-8.1-.06.18-1.3-1.93-2.91-2.05c.43.13 1.14.16 1.57.3l-.97-1.45-8.13 10.03c4.1 2.81 4.7 4.71 1.78 7.99-.65-2.5-1.51-5.05-2.21-7.36l-4.99 6.06 9.13 12.57 27 1.78Zm66.59 4.26-22.36-31-10.08 12.47 6.81 5.56c.27-.11.6-.39.87-.5-.54-1.3-1.3-2.69-2.6-5.38 2.77 1.06 5.69 1.59 5.96 2.24a5.31 5.31 0 0 1-1.36 4.34c-.65.56-3.14.93-3.74.55-2.27-1.85-4.21-3.99-6.43-6.01l-2.76 3.51 9.13 12.58 26.56 1.64Zm600.68-13.23c.38-.46.54-.98.92-1.43 3.14 1.36 5.84 2.59 8.55 3.82 1.02-1.02 1.95-1.68 2.92-2.52 2.49 1.92 5.03 3.67 8.32 6.03-3.46-.32-6.43-2.2-8.87-2 1.25.57 2.71 1.22 3.9 1.97-1.3.36-3.03 1.34-3.9 1.07a7.94 7.94 0 0 1-2.97-1.88c-.49.03-1.73-.55-2.38-.75a56.39 56.39 0 0 1-4.98-2.32l10.48 14.33s-.05.18.16.24l5.85.3.21-.69c.6.38 1.25.58 1.9.79l1.62.12c1.9-5.31 3.63-10.1 5.43-15.07l-12.48-17.05-26.56-1.64 11.88 16.68Zm24.34.37c-1.3 3.4-2.22 3.3-6.97-1.23 2.21.5 4.49.84 6.97 1.23Zm-586.9-15.6.21.06.05-.17-.27.1ZM552 100.12l-2.8-3.93c-1.36-.23-2.71-.47-4-.87.1-.35.05-.94.15-1.29.87.28 1.79.37 2.65.64l-8.1-11.3c-6.92.89-5.18-4.67-8-7.07 1.2-.01 2.28.33 3.41.5l-4.64-6.41c-.6-.38-1.25-.58-1.84-.96l-2.76 3.52c2.43 2.85 2.48 4.2.48 4.53a5.43 5.43 0 0 1-3.25-1.01l-7.1 9.02 9.13 12.57 26.67 2.06ZM519.94 81.9a139.2 139.2 0 0 0 6.82-1.3c2.81 3.17 4.7 5.48 6.8 7.85-.86.5-2.05 1.26-3.78 2.24-2.97-2.64-5.94-5.28-9.84-8.79Zm125.93 7.4 10.89-13.55-8.17-.46c-.22-.07-.27.1-.49.04l.06-.18-13.04-.84 10.75 14.99Zm664.17 49.5-2.16-2.96c-.05.17-.11.34-.38.45.81 1.2 1.62 2.41 2.49 3.44.1-.34.21-.7.05-.93ZM578.21 74.03c1.63.13 3.2-.33 4.66-.45 2.49-.36 4.32-.17 5.78.48l1.95-2.44-20-1.3c1.07.33 2.1.84 2.8 1.64 1.3 1.93 2.92 2.05 4.81 2.07Zm18.02-.65.22.07-.22-.07Zm-45.34 3.73c-1.78-1.9-3.4-3.55-5.4-5.5 3.08 0 5.57 1.17 6.92 3.68l4.66-5.78-21.64-1.43 10.75 14.98 4.71-5.95Zm61.88 10.21 10.88-13.55-21.63-1.43 10.75 14.98ZM463.43 65.17l-.33-.48-.05.17c.16.24.38.31.38.31Zm-24.56.32c-.27.1-.5.04-.76.14l7.94 11.06 10.83-13.38.06-.17-6.28-.44c.43.9.81 1.97 1.08 2.63-4.98-.04-9.46-.87-12.87.16Zm81.46 6.06c-.11-.42 0-.77.1-1.11.17.24.33.48.27.65l2-2.6c-1.34.52-2.48 1.12-2.43.94-.7-.79-1.35-1.75-2.05-2.54l-16.06-1.03 10.74 14.98 7.43-9.3Zm-1.6 26.36-22.36-31-13.55 16.72 9.13 12.57 26.78 1.7Zm-28.26-32.66-21.63-1.43 10.74 14.98 10.9-13.55ZM243.25 80.5c-.65-.2-1.03-.52-1.46-.65-.05.17.1.41.05.59l1.41.06ZM117.41 50.82c-1.9.75-3.74 1.31-5.85 1.99l2 2.72 3.85-4.7Zm651.09 85.23-5.1 7.94 26.78 1.7 5.1-7.93-26.78-1.7Zm-166.27-10.5-5.1 7.94 26.78 1.71 5.09-7.93-26.77-1.71Zm61.32 11.96 5.58.4c-1.25-.57-2.76-1.04-4.44-1.76 3.52.15 5.2.1 6.82.23-.76-1.38-1.4-2.35-2-3.49 7.68.5 4.38 3.47 5.46 5.33l15.36 1 5.1-7.93-26.56-1.65-5.32 7.87Zm-133-8.28 26.55 1.64 5.1-7.93-26.56-1.64-5.1 7.93ZM364.1 118.49l26.56 1.65 5.1-7.94-26.57-1.64-5.1 7.93Zm59.82 3.86 5.1-7.93-26.56-1.64-5.1 7.93 26.56 1.64Zm299.67 19.09 5.09-7.94-26.78-1.7-5.09 7.92 26.77 1.72Zm-66.6-4.26 5.1-7.94-26.56-1.64-5.09 7.93 26.56 1.65Zm277.73 52.03 5.8-8.67c-5.8-2-11.2-2.93-14.12-4.98-2.7-2-2.64-5.21-4.26-9.15 6 2.83 6.48 8.13 14.54 5.89 1.3 2.69 2.27 4.9 3.67 8l10.9-16.6c-.7-.02-1.68.05-2.6-.04-.16-.24-.06-.6-.22-.83l4.33-1.7.44-.62-22.83-1.43c3.51 1.67 6.6 3.2 9.9 4.81-2.77 2-6.23 2.44-9.8.18-2.38-1.51-4.1-3.57-1.3-4.98l-2.53-.22-7.64 11.51 15.72 18.83Zm182.89 49.23 26.55 1.64 16.04-23.94c-2.21 1.02-4.49 2.21-6.71 3.23-.11-.41-.43-.9-.54-1.3l7.64-3.9-9.25-4.62c.27-.1.38-.45.65-.56l-14.23-.83-.05.18-20.1 30.1Zm12.33-4.53c3.52-.61 6.98-1.05 10.5-1.66-6.06 4.96-10.34 4.95-10.5 1.66Zm46.66-20.07c.59 1.14 1.4 1.58 2.7 1.22a14.02 14.02 0 0 1-2.7-1.22Zm25.31 2.58c.27.66.54 1.32.76 2.15 1.4.05 3.03.18 4.43.24.05.59-.11 1.1-.11 1.87-1.68.05-3.73.55-5.03.14a5.48 5.48 0 0 1-2.16-1.44l-5.75 8.5c2.44-.2 4.6-.28 6.55-.44a11.7 11.7 0 0 1-2.33-.91c.76-.9 1.58-1.99 2.71-3.35 2.44 2.1 3.95 3.33 5.68 4.64-.16.52-.27.86-.65 1.32-.87-.27-1.95-.61-2.76-1.06-1.73.99-3.52 2.14-5.25 2.36-1.46.12-2.81-.88-4.6-2l-9.37 14.02 6.76.4c1.62-1.4 3.41-2.56 4.98-3.78-.21-.83-.59-1.9-.86-3.32 5.03-1.66 9.9-4.33 14.39-4.26 5.9.13 8.72-2.8 11.59-6.66.86.27 1.67.71 2.54.98l7.91-11.62-26.56-1.64-.05.17-2.82 3.7Zm-37.15-6.48-9.09-.56c2.43 1.34 4.7 2.43 7.13 3.76l1.96-3.2Zm18.87 2.67c.6-.39 1.46-.88 2.33-1.37l-4.65-.31c.75.62 1.56 1.06 2.32 1.68Zm-149.93-17.96c.65-.56 1.63-1.4 2.87-2.34l.22.07 13.6-20.7c.16-.52.33-1.04.71-1.5l.43.14 1.89-3.03-15.63-.89c.92.86 1.89 1.55 2.81 2.4-3.84.9-5.19.67-6.54-2.61l-7.25-.37-7.64 11.52 14.53 17.31Zm-603.02-71.9 26.56 1.65 5.1-7.94-26.56-1.64-5.1 7.93Zm697.84 80.04-2.92-3.58c-1.62-.12-3.3-.08-4.86-.38-1.36-.23-2.49-1.16-3.68-1.9l-.16-.25a20.21 20.21 0 0 0-4.76-3.01l-5.04 7.76 9.3.62c.33-.28.38-.45.76-.9.6.37 1.19.75 1.62.88l9.74.76Zm-11.51-5.7c2.54-.53 4.49-.69 6.16-.73l-7.29-8.57-2.82 4.45a9.76 9.76 0 0 1 3.78 4.61c-.05.18-.05.18.17.25Zm-553.37-65.88 26.77 1.7 5.1-7.93-.22-.06-26.07-1.69-.49.04-5.1 7.94ZM45.79 49.75l1.13 1.7.81-1.09-1.78-1.13c.22.07.16.24-.16.52ZM58.2 66.98c-.16-.25-.33-.49-.27-.66l-.22-.07.49.73Zm-6.91-9.79c1.83.96 2.75 2.58 3.94 4.1l-.65.55 2.48 3.45c2.93-4.04 5.8-7.9 8.78-12.12-1.62-.12-2.81-.12-4.22-.17l.17-.52c-.22-.07-.6-.38-.82-.45l-6.05-1.9-4.66 5.79 1.03 1.27Zm28.33 9.63c-2.6-2.34-3.67-3.44-5.84-5.64.76-.14 1.52-.28 2.06-.5l-.86-.27c.7-.73 1.46-1.64 2.16-2.37l-.8-1.2c-.28.1-.5.03-.5.03-.54-.55-1.3-1.16-1.83-1.71a17.03 17.03 0 0 1-4.77 2.32c-5.35 1.18-7.09 4.45-8.44 8.78.37.31.8.45 1.18.76 5.47 0 10.93-.01 17.64-.2-.22-.07-.22-.07 0 0Zm379.97-8.37-24.25-33.31-26.56-1.64 9.13 12.57c2 1.2 3.62 2.09 5.84 3.35-.7-3.08-1.35-5.57-1.94-8.23 5.03-.14 7.95 2.68 10.11 5.64.81 1.2-1.3 3.4-1.95 5.49 3.95-.48 4.43 2.53 5.4 5.5 1.46-2.4 2.28-4.24 3.25-5.84 4.38 1.94 8.11 3.68 12.28 5.55-4.71-.14-8.77-.07-12.34-.05 2.81 2.4 5.57 4.22 7.3 6.29a25.5 25.5 0 0 1 2.59 3.86l11.14.82ZM92.23 66c3.2-.33 6.77.4 7.58-.68-.27-.65-.6-1.14-.92-1.62-.7-.79-1.3-1.93-2.38-2.27A75.77 75.77 0 0 1 92.23 66Zm-7.4-8.98 1.52.47c-.81.32-1.63.64-2.38.78l3.94 5.62c1.63-2.16 3.3-3.73 5.25-4.65-2.27-1.85-3.67-4.2-4.86-6.47l-3.47 4.25Zm-6 3.26-.17-.24c-.8.32-1.57.46-2.1.67l2.27-.43Zm30.13-.67c-2.16-1.44-3.68-2.67-5.46-3.8-1.57-.3-3.4-.5-5.25-.7-.16 2.81 3.73 4.8 3.73 7.84 2.38-1.54 4.87-1.9 6.98-3.34.21.07 0 0 0 0Zm1126.03 96.67a4.73 4.73 0 0 0-1.57-.3l.16.24 1.41.06ZM779.04 97.82l7.37-9.13c-.65-.2-1.03-.51-1.68-.71l.16-1.29c.93.1 1.79.37 2.44.57l2.38-3.06-21.63-1.44 10.96 15.06Zm-288.52 28.8 5.1-7.94-26.57-1.64-5.1 7.93 26.57 1.64ZM317.98 61c-3.52 2.14-6.87.7-10.12-.3l5.46 7.6 10.94-13.72-12.82-.77c.97 2.97.54 6.65 6.54 7.2Zm427.74 34.77 10.89-13.55-21.9-1.33 11.01 14.88Zm487.05 59.24c.6-1.9.98-3.88 1.69-6.14 5.52-.18 11.57 3.24 15.46 8.27l4.44.24c1.4-.7 2.7-1.06 3.89-1.83 0 .77 0 1.53-.16 2.05l2.11.09-3.3-4.65-5.68 2.22c-.32-.48-.38-1.07-.7-1.55 1.35-.53 2.76-1.24 4.11-1.77-.65-.2-1.3-.4-2.11-.85-.21-.06-.37-.3-.48-.72-6.6-.92-13.04-1.6-19.64-2.52l-2.54-.23c.54 1.31.86 2.56.92 3.9l1.99 3.5ZM358.77 65c.8-.32 1.4-1.47 1.5-2.58l-2.38 3.07c.06-.17.38-.45.87-.5Zm-19.1-5.02-.16.52 7.13 9.85 6.55-8.05c-2.54-1.74-5.24-3.73-7.78-5.48.32-.28.38-.45.7-.73l-10-.66 3.13 4.41.43.14Zm372.78 33.58 10.08-12.47c-.6-.38-.97-.69-1.57-1.07l-7.46-.43c.49.73 1.02 1.28 1.51 2-.54.21-.87.5-1.35.53-1.68-.71-2.76-1.81-3.68-2.67l-8.38-.53 10.85 14.64Zm-33.32-2.05 10.78-13.2-.32-.48-6.54-.33c-.55.2-1.14.6-1.68.8-.11-.41-.49-.72-.65-.96l-12.12-.74 10.53 14.91ZM449.78 81.48l9.13 12.57 26.56 1.64-19.01-26.52-.06.17c-1.67-.71-3.35-1.43-5.19-2.39l-11.43 14.53Zm853.82 148.47c.33.48.71.8 1.03 1.28.97-.84 2-1.85 3.03-2.87-.21-.07-.27.1-.48.04-1.14.6-2.44.95-3.58 1.55Zm-22.89 8.65a106.4 106.4 0 0 1-4.01 3.7c.17.24.38.31.33.48l.65.2c1.13-1.35 2.22-2.54 3.14-3.96 0 0 .05-.18-.11-.42Zm11.08 10.9c.21.06.27-.1.48-.04l.11-.35c-.27.1-.54.21-.59.39Zm-12.75-13.14.21-.7c-.86-.26-1.56-.3-2.21-.5.43.9 1.08 1.1 2 1.2Zm-5.85.46c.92-.66 1.57-1.22 2.49-1.89-.7-.03-1.35-.23-2.05-.26-.49.04-.76.15-1.19 0 .21.84.48 1.5.75 2.15Zm39.87.1.38-1.22s-.21-.07-.38-.31a5.12 5.12 0 0 1-1.62-.9c-.22.7-.43 1.4-.87 2.02 1.09.34 1.79.37 2.49.4Zm-24.94 6.1-.38.45.21.06.17-.52Zm21.99-162.12-.92-.1c.22.07.38.31.59.38.28-.1.28-.1.33-.28Zm6.38 140.5c.65-.55 1.3-1.11 2.22-1.77l-2.33-.16c-.11.35-.49.8-.59 1.15.1.41.27.65.7.79Zm-58.66 15.19-6.18 9.11c.33-.28.65-.55 1.14-.6 5.95-2.32 11.96-4.06 17.86-6.22.65-1.32 1.08-2.7 1.79-4.2-2.16.08-4.44.52-6.49 1.02l-1.3 1.88c-4.55.1-6.44.08-6.82-1Zm46.72 13.85.22-.69c-.32.28-.6.38-.92.66l.7.03Zm23.71-150.9.38-1.22a8.48 8.48 0 0 1 2.44-2.47c-1.24.18-2.49.36-3.57.78-.22 1.46-.6 2.67-.76 3.96.38-.46.97-.84 1.51-1.05Zm-6.76 1.12 2 2.72a6.22 6.22 0 0 0 3.09-3.03c-1.68.04-3.36.09-5.09.3Zm-1.45-9.03c-2.22-.5-4.22-.94-6.16-1.55l4.15 5.69c.49-.8 1.03-1.78 1.74-2.5.16-.53.11-1.12.27-1.64Zm-12.48-10.95-.71-.03c.44.13.49-.04.71.03Zm8.9 159.77.59-1.9c-1.13.6-1.08 1.18-.59 1.9Zm-105.11-4.11c1.52.47 2.87.7 4.17 1.1-.87 1.26-1.68 2.34-2.22 3.31l7.85-11.45c-3.3 2.2-6.44 4.66-9.8 7.03Zm72.62-17.3s-2.33.61-3.35.86c-.6-.37-1.41-.82-2-1.2-.49.8-1.09 1.95-1.63 2.16-1.03.25-2.11.68-3.14.93.38.3.81.44 1.41.82-1.41-.06-2.87.05-4.28 0-1.51.28-2.86.81-4.38 1.1.7.8 1.4 1.58 2.38 2.27-1.36.53-2.98 1.92-4.06 1.59l-.87-.28-1.24 1.71c1.13.17 2.27.33 3.51.15.76-.15 1.57-.46 2.38-.78.93-1.43 1.63-2.92 2.44-4 3.03 1.7 5.25 2.97 8.71 4.82-4.06.06-6.71.19-9.63.41-.76.91-1.3 1.88-1.79 2.68 5.14-.48 8.87-.27 12.01 1.1 1.3-3.4 2.82-6.74 4.44-10.43.87 2.56 2.49 4.97 2.27 7.19-.06.94-.33 1.8-.38 2.74l1.29.4.93-1.42a5.56 5.56 0 0 1 .54-6.3l.17-.53c-.49-.72-1.08-1.1-2.33-1.68-.21-.07-.27-.66-.32-1.24-1.24-1.35-2.38-2.27-3.08-3.06Zm80.63-111.18-.27-3.7c-.16 1.28-.38 2.73-.38 4.26.27-.1.37-.45.65-.56Zm-79.04 141.02s.21.07 0 0l-.11.35 2.11.1c0-.77.05-1.7.27-2.4-.86.49-1.57 1.22-2.27 1.95Zm23.73-28.77c-.87 1.25-1.52 2.57-2.39 3.83l.22.06c.86-1.25 1.89-2.26 2.76-3.51-.22-.07-.38-.31-.59-.38Zm19.03-85.12c.81.45 1.41.83 2.22 1.27a24.7 24.7 0 0 0 3.35-3.14 77.33 77.33 0 0 0-5.57 1.88Zm2.28-5c-.87-.27-1.73-.54-2.65-.64-.71-.03-1.35-.23-2-.43l-1.47 2.4c-.75.14-1.24.18-2 .32 1.03.52 2.22 1.27 3.24 1.78.82-.32 1.52-1.05 2.28-1.95a9.02 9.02 0 0 1 2.6-1.48Zm-12.12 2.3s-.06.18 0 0c-.22.7-.17 1.29-.11 1.88 2.27-.43 4.16.35 6.49-.26-.38-.3-.6-.38-.97-.68-.76.14-2.01.32-3.52.61l.22-.7c-.6-.37-1.25-.57-2.11-.84Zm-34.45 80.49c-1.08-.34-1.89-.78-2.97-1.12-.76.14-1.36.53-2.11.67l-.27.1 5.35.35Zm45.31-75.75c-.81-.44-1.56-1.06-2.32-1.68-2.16.85-4.27 1.52-6.28 2.6-1.08.43-1.35 2.82-1.63 4.45l.17.24c2.54-1.3 4.81-2.49 7.14-3.86 1.08-.42 2-1.09 2.92-1.75Zm-18.32-8.97c.05.59.1 1.17-.06 1.7-.27.1-.49.03-.76.14l1.35 1.75 2.01-2.6-1.46-2.18c-.59.39-.92.67-1.08 1.19Zm1.17 13.7-1.35-1.76c-.11.35-.16.53-.05.94.43.13 1.02.51 1.4.82Zm2.61-14.42 2.28-2.72a7.13 7.13 0 0 0-4.28 1.52c.6.38 1.41.82 2 1.2Zm-24.3 10.11c1.03.51 2.27 1.1 3.36 1.43-.33.28-.44.63-.76.9 1.62-.63 3.03-1.33 4.98-2.25l.21-.69c.17.24.17.24.11.41l1.08-.42c-2.43-1.33-4.27-2.29-6.1-3.24l-.22-.07c-1.08 1.18-1.9 2.26-2.98 3.45.38.3.38.3.32.48Zm8.96 63.96.98-.84c-.33-.48-.43-.9-.65-.96-.6-.38-1.3-.4-1.95-.6l3.41.49a9.92 9.92 0 0 1 1.73-1.75c.27-.1.33-.28.6-.38-.38-.31-.7-.8-.97-1.45-1.19.77-2.66 1.65-3.85 2.42l-.8-4.26c-.92-.1-1.84-.2-2.71-.46-2-.44-3.51-1.67-5.35-2.63l-1.14 1.36c3.08 2.3 6.22 4.42 9.3 6.72-.92-.1-1.89-.02-2.76-.3-3.35-.66-6-2.82-9.46-3.9l6.53 7.94a64.9 64.9 0 0 1 7.09-1.4Zm13.22-12.63c.21.07.27-.1.48-.04l.06-.17-.54.21Zm-28.26 12.12-2.05-2.55-.87 1.25c1.09.34 1.95.61 2.92 1.3Zm1.95 2.9.27-.11-.87-1.03c.33.48.49.72.6 1.13Zm3.87-67.77c.27-.86.32-1.8.76-2.43-.49.04-.92-.1-1.41-.06-.06.94.16 1.77.65 2.5Zm25.03 12.6c.38-.45.54-.97.92-1.43l-1.3-1.93a7.33 7.33 0 0 1-4.05-.7l-.65-.2c-.44 1.4-.55 2.5-1.14 3.65l.21.06 6.01.55Zm-19.02-18.15c-.82 1.08-1.79 1.92-2.55 2.83-.05.17-.05.17.11.41.92-.66 2.11-1.43 3.03-2.1a3.53 3.53 0 0 0-.59-1.14Zm-18.02-.87 1.58-1.98a7.9 7.9 0 0 1-2.98-1.89c.06.6-.11 1.11-.05 1.7l1.45 2.17Zm25.62 18.3c.27-.86.6-1.9 1.14-2.88-2.7 1.06-5.9 1.4-6.49 2.54l5.35.35Zm-33.49 100.22 3.03.19c.81-1.08 1.84-2.1 2.71-3.35.1-.35.16-.52.05-.93-.43-.14-.65-.2-1.03-.52-1.03 1.02-2.33 2.13-3.35 3.14-.33.28-.65.56-.71.74-.38.45-.43.62-.7.73Zm-95.81-130.96c2.11.85 4.43 1.77 6.49 2.8l8.18-10.21-21.64-1.44 6.1 8.58c.27-.1.71.03.87.27Zm20.56-5.76-8.88 10.94c.81.44 1.67.72 2.48 1.16 3.25 1.78 5.3 4.32 7.68 6.6a13.52 13.52 0 0 0 5.4 3.2c.06-.17.38-.44.44-.62 1.03-1.01 2.11-2.2 3.57-2.31.97-.08 2.33.16 3.41.5l-2.49-3.45-.43-.14c-.16.52-.27.87-.49.8-1.62-.12-3.57-.73-5.35-1.1.16-.52.05-.93.22-1.45-2.38-.75-4.76-1.5-7.09-2.41-1.67-.72-2.05-2.55-3.56-4.55 5.08 1.97 9.73 3.81 14.38 5.65l-9.29-12.82Zm-15.64 10.54a14.27 14.27 0 0 0-3.79-2.33l2.65 3.69 1.14-1.36Zm3.18 5-.87 1.25 2.49 3.45c.22.06.49-.04.7.02-.59-1.13-1.67-2.23-2-3.48a2.8 2.8 0 0 0-.32-1.24Zm23.71-8.97 5.29 7.37 10.94-13.72-11.63-.78c-.87 2.01-1.52 4.1-2.33 5.94-.22.69-1.57 1.22-2.27 1.19Zm107.9-33.68c1.08.34 2.22.5 3.08.77.11.42.22.83.38 1.07-.81.32-1.62.64-2.65.89 1.84.2 3.68.39 5.41.93l.16-.52c.86 1.03 2.05 1.78 3.03 2.47 1.4-.7 2.76-1.23 4.11-1.76l3.08-.75c.06-.18-.05-.6-.16-1-3.35-1.44-7.19-2.83-9.84-4.99l-9.57-.52c1.08 1.1 2 1.96 3.3 3.13-.06.17-.33.28-.33.28Zm-34.21 21.3c.75.62 1.51 1.24 2.48 1.92-1.46.12-2.48.37-3.73.55.86 1.03 1.3 1.93 1.78 2.65l5.57.41c-.32-.48-.86-1.03-1.18-1.51.32-.28.81-.32 1.13-.6 1.19.75 2.6 1.57 3.79 2.33l1.19-.01-9.94-13.78c.81 2.73.21 5.4-1.09 8.04Zm-11.76 103.59c-.48.04-1.02.25-1.51.29l.7.79.81-1.08Zm42.85 40.65.82-1.08c-.27.1-.49.04-.71-.03l-.38.46c.17.24.33.48.27.65Zm-88.57-76.68 5.1-7.93-1.14-.16c-3.84 2.41-7.69 4.83-11.58 7.42l7.62.67Zm49.43 14.33c1.24 1.34.7 3.07.16 4.8.7.04 1.35.24 2.05.27.92.1 1.57.3 2.43.57.06.59-.11 1.1 0 1.52l-4.92-.97a5.23 5.23 0 0 0-.11 3.4c-4.92.55-9.15 1.14-13.53 1.48l-.05.18 1.02 1.27c.71.03 1.84.2 3.52.15-1.08.42-1.73.98-2.27 1.2l2.59 3.09c1.3-.36 2.71-.3 4.6-.28-.98.84-1.95 1.68-2.65 2.41l.37.31c1.36.23 2.71.47 3.79.8l5.47-8.38c-1.08-.34-2.32-.92-3.4-1.26 1.35.23 2.54.23 3.94.29l1.85-2.86c-.27.1-.54.22-.87.5 1.74-3.27 2.55-5.11 3.42-6.37.48-.04.92.1 1.4.06l4.07-6.16c-2.33 1.37-4.39 2.63-6.71 4-.17-.24-.38-.31-.55-.55 1.74-1.75 3.74-3.6 5.58-5.69l-6.76-.4c-1.19 4.58-2.76 6.57-4.44 6.62Zm-80.97-8.39c2.43.58 5.03 1.39 7.46 1.96a26.03 26.03 0 0 1-8.82 2.38l-1.46.12-2.76 4.28 14.15 17c.05-.17.27-.1.32-.28a6.14 6.14 0 0 1 2.98-1.16l8.18-12.5c-.48.04-.75.15-1.46.12-.86-1.03-1.46-2.17-2.64-2.92l-.22-.07c-1.84.57-2.76-1.06-4.11-2.05-2.17 1.6-4.06 3.11-6.82 5.1-1.89-2.3-3.03-3.99-4.92-6.3l11.31 1.06a2.46 2.46 0 0 0-2.11-.84c4.12-5.58 5.41-4.4 6.71-2.48.38-1.98-2.16-3.72-5.56-5.74l-7.2-.54c-.81.32-1.41.7-2.43.96l-.6 1.9Zm45.12 37.94c1.52.47 2.87.7 4.38 1.18l-1.08 3.47c-1.14-.16-2.22-.5-3.14-.6 1.29 3.45 2.27 3.38 5.03.62 3.09-3.03 5.79-3.33 9.2-2.07-1.41 3.75-4.34 8.55-7.26 7.25-3.51-1.67-5.95.8-8.98.62.76.62 1.24 1.34 1.78 1.9-2.43 1.7-4.6 3.32-6.49 4.82-1.3-1.17-2.16-2.2-2.92-2.82 2.76-3.52 5.2-6.75 8.07-10.62l-.86-.27-16.37 24.22 24.45 1.55c.49-.8.98-1.6 1.36-2.81.27-.87 2.86-1.58 4.54-2.39l1.74-2.5c-5.52-2.11-10.34 4.2-16.02 5.65 7.2-7.08 10.07-8.66 18.56-9.24l2.28-3.48-.22-.07c-2.65-.64-5.13-1.8-9.13-3.43 4.97-1.49 8.92-2.73 12.66-4.04l1.3.4 5.63-8.14-12.6-.7-.11.35c-3.57.78-6.66 1.53-9.69 2.11-1.24.18-2.7-.47-3.84-.63.98-.84 1.52-1.81 2.44-2.48l-3.03-.18-.05.17-1.63 2.16Zm26.23-36c-.6.39-1.46.88-2.11 1.44-2.44 2.48-2.12 4.48-.12 5.68l3.74-5.12c-.27-.65-.81-1.2-1.51-2Zm-19.42-47.22c.16 1 .38 1.83.16 2.52.54.55.92.86 1.4 1.58-.65-.2-1.35-.23-2-.43-.43.63-1.24.94-2.27 1.2l3.03.94a14.58 14.58 0 0 1 2.16-2.37l-2.48-3.44Zm2.39-6.88c.05-.17.32-.28.38-.45l.05-.17c-.54-.55-1.08-1.1-1.57-1.83 1.52-.29 2.49-.36 3.52-.61l3.47-4.25c-1.35-.24-2.76-.3-4.11-.53-.65-1.72-1.08-3.38-1.57-4.87.33-.28.65-.56 1.03-1.01l-12.55-.88 10.75 14.99.6-.39Zm-8.34 9.2c-.33.28-.49.8-.82 1.08l1.73.54c.17-.52.49-.8.65-1.32a4.72 4.72 0 0 1-1.56-.3Zm41.57 21.97c.6-1.15.98-2.37 1.57-3.51-.49.04-1.03.25-1.24.94-.06.94-.33 1.8-.33 2.57Zm3.04-6.67-.22-.07-5.57-.41a4.1 4.1 0 0 0-1.46.11c-1.79 1.16-3.09 3.04-5.31 3.3-1.73.22-4.49-1.6-6.81-2.52l-.22-.06 1.68 2.24c.59.37 1.35.99 1.94 1.37l-.21.69-.65-.2 1.02 1.27c5.25-1.6 10.23-3.85 15.48-5.44.27-.11.33-.28.33-.28Zm-7.11 60.65c1.41-3 2.5-4.94 3.31-6.78 2.49-.36 5.03-.9 7.3-1.33-1.89-.79-3.84-1.4-5.51-2.11l-6.72 10.09 1.62.13Zm73.01-119.48.32.48c.06-.17.17-.52.44-.62-.49.03-.49.03-.76.14ZM1337 123.23c.05-.18-.05-.6 0-.76-.22-.07-.27.1-.49.03l.49.73Zm-43.51-30.2c.16.25.27.66.21.84l2.98-1.17a5.51 5.51 0 0 1-2.11-2.37l-.27.1-.81 2.6Zm70.57 18.09c-.16-.24-.27-.66-.43-.9-.16.52-.06.94-.22 1.46.27-.1.54-.21.65-.56Zm-7.08-5.46c.7.03 1.41.06 1.84.2l.49-1.56c-1.35-.24-2.87-.7-4-.87a165.6 165.6 0 0 0 3.58-7.65l-8.77.69 6.86 9.2Zm-6.87-.81c-.27.1-.49.04-.54.21l.54-.21Zm-15.24-13.53-3.89 1.06c.54.55 1.24 1.34 2 1.96.92-.66 2-1.09 2.7-1.82-.1-.41-.48-.72-.81-1.2Zm7.8-5.19 1.67 2.24c.33-.28.49-.8.82-1.08-.71-.79-.98-1.44-.87-1.8a6.85 6.85 0 0 1 2.6-2.23l.06-.17-2.55-.22c.44.13.92.1 1.57.3-1.3 1.11-2.33 2.13-3.3 2.96Zm-1.9 6.08-1.19-1.52-1.68 3.1c1.14-.6 2-1.1 2.87-1.58Zm-119.83 93.78-.43.62c.27-.1.54-.2.81-.32.06-.17-.16-.24-.38-.3Zm86.48-28.96c-.86-1.03-1.51-2-2.54-3.27-.7 1.5-1.08 2.7-.97 3.89.48-.04.97-.08 1.51-.3l-.71 2.26c.55.55 1.41.82 2.55.99.7.03 1.35.23 2 .44l2.81.11c2.76-2 5.58-4.16 8.34-6.15-.98 3.12-2.6 5.28-4.66 6.54l7.9.57.38-1.22c-.76-.61-1.68-1.47-2.98-2.64l1.47-2.4-1.52-2-10.92-.75c-1.14 1.36-2.49 2.65-2.66 3.93Zm-34.05 19.26c-1.51-2.76-2.26-4.9-.53-8.17l-.7-.03a34.63 34.63 0 0 1-7.47 4.14l-2.28 3.48 10.98.58Zm-57.99 7.76 1.3-1.88-.38-.3c.27-.11.48-.04.54-.22l2.65-3.93-2.32-.16c-1.68 1.57-3.52 2.9-5.47 4.58 1.03.51 2.27 1.1 3.68 1.91Zm55.19-64.84c.76.62 1.3 1.17 2.06 1.79-.43-.9-.86-1.8-1.03-2.8 1.74-.98 3.2-1.86 4.93-2.84 1.03.5 2.22 1.26 4.22 2.46-.6.38-1.14.6-1.52 1.05l.65.2c-.05.18.11.42.05.59-.48.04-1.24.18-1.73.22-1.89 2.27.81 4.25 2.81 6.21l8.12-10.03-16.28-1.1-3.57 2.32 1.29 1.93Zm-59.2 65.5 2.11 2.37 1.46-2.4c-1.24.18-2.38.02-3.57.03Zm62.88-60.54c-.11-.42 0-.76-.16-1l-.33.27-.21-.06.7.79Zm-4.64-9.46-2.11-.08 1.83 2.48c0-.77.01-1.53.28-2.4Zm-13.74-.86-9.09-.56c1.89 1.54 3.73 3.26 5.62 4.8l3.47-4.25Zm4.7 3.18c.92.1 1.62.13 2.33.16l-1.14-1.7-1.19 1.54ZM27.12 9.23c1.84-1.32 4.11-2.52 5.85-4.26.75-.9.43-2.91.49-4.61-2.6 3-4.77 5.37-6.94 7.74.33.48.44.9.6 1.13Zm14.7 96.44c.11.41.44.9.54 1.31 3.58-.02 7.1.12 10.4.2l2.27-3.48-5.57-.4c-.55.2-1.09.42-1.63.63.38.3.54.55.92.86l-1.95-.61c-1.62.63-3.35.85-4.97 1.49Zm-10.54-3.49-3.03-.19-1.24 1.71a49.9 49.9 0 0 0 4.27-1.52Zm729.04 46.36c2.86 1.47 6 2.83 9.08 4.37-.32.28-.7.73-.81 1.08l-9.36-3.5-6.4 9.81 15.56 18.59 18.65-28.46-26.72-1.89Zm-30.93 29-6.05-7.22c-.05.17-.32.28-.32.28-2.7-1.23-5.3-3.57-7.9-3.62-.48.04-.91-.1-1.56-.3l-6.23 9.3 22.06 1.56Zm33.32 2.05-12.58-15.18-9.05 13.74 21.63 1.44ZM5.14 109.05l.06 1.35c2.86.71 5.73 1.42 8.65.43-2.92-.54-5.78-1.24-8.7-1.78Zm41.65 7.32 4.44-6.61c-2-1.2-4.05-1.46-5.4-.17-1.14 1.36-1.58 3.5-1.85 5.9l2.8.88Zm-5.23-13.64-3.25-.26c-.32.28-.38.46-.7.74-2.7 1.82-5.63 3.57-8.23 5.8l-.05.18c1.08.34 2.1.85 3.19 1.19 3.19-2.62 6.11-5.14 9.04-7.65Zm-22.62 3.21c-.16-.24-.1-.41-.21-.83l.65.2 2.6-3.75-1.9-.03c-1.24.19-2.7.3-4.16.42l-.49-.73-5.35-.34c-.81.32-1.68.8-2.5 1.13l6.44 1.44-.54 1.73c-2.87.06-5.9-.13-8.76-.07l.21 3.11c4.11-.23 8.44-.4 12.77-.57l1.24-1.7Zm577.28 63.09-12.58-15.19-9.05 13.75 21.63 1.44Zm-2.18-30.98-7.64 11.52 10.7 12.87c.32-.28.65-.56.75-.9 2.11.84 4.38 1.94 6.5 2.79l16.3-24.81-26.6-1.47ZM715.34 164c2.5 1.92 4.82 3.6 7.14 5.28l-5.89-6.98-1.24 1.7Zm-111.92 1.75c-1.9-.78-3.57-1.5-5.46-2.28l3.78 4.61 1.68-2.33ZM34.3 116.85c1.36.22 2.55.22 3.74-.56.43-1.38.05-2.46-.7-3.07-.76.14-1.3.35-2 .32l-1.04 3.3Zm528.61 50.13-12.58-15.18-9.05 13.75 21.63 1.43Zm99.9 6.3-12.58-15.18-9.05 13.75 21.64 1.44Zm91.03-25.24-26.78-1.71-7.64 11.51 15.56 18.59 18.86-28.4Zm-140.35 22c-1.68-.71-3.14-1.36-4.81-2.07l-1.03 1.77 5.84.3Zm16 1.2-12.58-15.18-7.1 10.55 5.25 2.2c-.38.46-.7.74-.87 1.26l15.3 1.17Zm-68.7-35.4-7.64 11.5 15.55 18.6 3.1-4.56-.06.17 15.77-23.84-26.72-1.88Zm122.7 24.48-9.04 13.75 21.63 1.43-12.58-15.18Zm136.93-8.02-26.77-1.71L786 162.1l16.8 19.93 2.8.12-.42-7 15.23-22.85ZM529.1 164.2l-12.05-14.62-9.05 13.74 21.64 1.43-.38-.3s-.22-.07-.16-.25Zm-87.74-4.97 21.64 1.44-12.59-15.18-9.05 13.74Zm92.51-6.49c-2.6-.05-5.25.08-7.84.03l9.34 11.11 18.64-28.46-26.55-1.64-7.64 11.52 5.02 5.95c2.33-1.37 5.25-1.6 8.76.08.11.41.16 1 .27 1.41Zm417.85 26.92c-1.19 0-2.65.12-3.84.13l-7.26 11.06 21.63 1.44-10.53-12.63Zm88.86 17.32-.11.35 21.64 1.44-12.59-15.18-8.94 13.4ZM15.28 132.04l2.12.09c-.44-.13-.6-.38-.98-.69-.6.39-.86.5-1.13.6Zm801.16 36.73-9.05 13.75 21.64 1.43-12.59-15.18ZM5.94 124.73l.05.6.81-1.09c-.32.28-.6.39-.86.5Zm65.35-1.65c.48.73 1.02 1.28 1.5 2-1.4 1.46-2.97 2.69-4.38 4.15 1.2.76 2.22 1.27 3.14 2.13l.92-1.43c-.7-.8-1.24-1.34-1.95-2.13 1.2-.01 2.38-.02 3.36-.1l7.8-12.03c-1.24.18-2.43.19-3.4.26 2.27-1.95 4.16-4.98 6.6-5.17l.1-.35c-4.91-1.73-6.43-3.73-4.58-5.05l-2.82-.12.33.48c-.87-.27-1.79-.37-2.65-.64l-2.11-.09c-1.03 1.01-2.28 1.96-3.58 3.08.17-1.29.22-2.22.33-3.33l-8.6-.6-7.64 11.52 6.54 7.95c1.4.82 3.62 1.33 5.3 2.04.1.42.16 1 .26 1.42 2.5-1.13 4.44-2.04 5.53-3.99Zm-10.16-15.37c.38-.45.98-.84 1.36-1.29 4.27 2.29 8.81 4.47 13.08 6.76l-.97.84a349.5 349.5 0 0 1-13.47-6.3Zm-3.69 9.52c.11-.35 0-.77-.1-1.18 3.4-.27 6.98-.3 10.39-.56.1.41.48.72.59 1.14a81.35 81.35 0 0 0-5.04 3.95c-2.21-1.27-4-2.4-5.84-3.35Zm12.05 16.15c-.06.17-.33.28-.38.45l.54.55.49-.8c-.16-.24-.38-.3-.65-.2Zm-45.96-20.86c-.65-.2-1.35-.23-2-.43l-.86 1.25.48.72c1.14.17 2.06.26 2.92.53l-.54-2.07Zm2.38 1.5c-.1.36-.16.53-.49.8l3.41.5c.92.1 2 .44 3.08.78-.21-.83-.43-1.66-.7-2.32-.21-.07-.48.04-.7-.03-1.35-.23-2.92-.53-4.27-.76.1.41 0 .76-.33 1.04Zm-20.45-.67c-.21-.07 0 0 0 0l.06 2.1 2.16.68.16-.52c-.92-.86-1.67-1.47-2.38-2.27Zm63.38 19.83c.22.06.43.13.49-.04-.38-.31-.81-.45-1.2-.75l.71.79Zm.49-.04c-.06.17-.06.17 0 0 .21.07.21.07 0 0Zm-9.74-3.05a6.76 6.76 0 0 0-3.95 2c1.84.2 3.73.22 5.57.41l.11-.34-1.73-2.07ZM33 127.86l1.99 2.72c.38-.45.92-.66 1.3-1.12l-3.3-1.6Zm171.9 11.5-6.93-2.17 4.7 5.47 2.22-3.3Zm212.25 3.92-4.55 6.96c5.09 1.21 9.03 2.26 13.04 3.13l-8.49-10.09Zm-122.5-24.42-7.63 11.52 15.56 18.58 18.64-28.46-26.56-1.64Zm33.28 2.22-7.65 11.51 12.97 15.5c1.3.4 2.6.8 3.57 1.49l13.6-20.7c-3.2-.43-6.38-.86-9.79-1.35 3.2-2.62 7.2-2.51 10.6.27l3.2-4.9-26.5-1.82Zm33.1 1.97-7.64 11.52 15.56 18.59 18.64-28.47-26.56-1.64ZM128.16 108.3l-6.4 9.8 5.46 2.29c-.38.45-.7.73-1.08 1.19-1.68-.72-3.35-1.44-5.24-2.22l-.38.45 2.75 3.34 2.38 3.03c1.62.13 3.19.43 5.03.63.05-.18.1-.35.43-.63l.49.72c.92.1 1.62.13 2.49.4l-1.8 1.16c.77 1.38 1.36 2.51 2.17 3.72 1.51.47 3.03.95 4.7 1.66l3.58-5.36c-.22-.06-.38-.3-.6-.37l.65.2 6.83-10.44c-.21-.07-.43-.13-.7-.03l.49-1.56 1.08.34 4.12-6.33-26.45-2Zm133.17 8.52-7.64 11.52 15.56 18.58 15.93-24.35-.22-.07a16.23 16.23 0 0 1-4.81-2.08 28.11 28.11 0 0 1-3.67-2.67l-15.15-.93Zm-66.59-4.26-6.88 10.6c1.95.62 4.06 1.47 6 2.08-1.62.63-3.35.85-5.2.66l6.76 8.02c4.11.52 8 .98 12.12 1.5l13.98-21.15-26.78-1.71Zm-33.26-2.22-4.07 6.16c2.6.05 5.3.52 7.14 3 .49.72-.49 1.56-.54 2.5-.22-.08-.5.03-.7-.04-.44-.9-.6-1.9-.87-2.55l-6.16-.79-2.28 3.48 15.56 18.59 10.89-16.6a25.9 25.9 0 0 1-8.49-6.28c3.63 1.33 6.87 2.34 10.28 3.6l5.9-9.01-26.66-2.06Zm66.58 4.26-7.64 11.52 1.03 1.27c3.9 1.22 8 2.5 12.81 3.82-3.35.86-6.65.78-9.3.14l11.24 13.42 18.64-28.46-26.78-1.7Zm53.55 3.42c.92.86 1.79 1.9 2.7 2.75.76-.14 1.52-.29 2.22-.26l1.36-2.05-6.28-.44ZM45.8 133.97c-.43-.14-.8-.45-1.02-.51-.06.17-.11.34-.38.45l1.4.06Zm51.23 3.26-5.73-6.74c.22 1.59.22 3.11.38 4.88-4.6.27-7.25.4-8.39 1l13.74.86Zm-18.4-1.18c-.7-.8-1.45-1.41-1.94-2.13l-1.3 1.88 3.25.25Zm151.57 9.7-12.59-15.18-5.41 8.21c1.08 1.1 2.1 2.38 3.5 3.96l-4.97-1.56-2.17 3.13 2.55.23c.27-.1.38-.45.65-.56.65.2 1.24.58 1.67.72l16.77 1.05Zm190.87-18.77-19.31-1.28 1.51.47c-1.57 1.23-2.49 1.9-2.87 2.34 1.9 1.55 3.57 3.03 5.08 4.26l-1.35.53c-1.78-2.65-8.11-3.68-10.6-6.36l-6.39 9.8 13.34 15.8 3.46 1.09 8.08-12.14-6.16-3.08c.6-.38.97-.84 1.62-1.4l5.51 2.88 8.08-12.91ZM81.8 105.4c1.52 1.24 2.87 2.23 4.38 3.47l1.35-2.05c-.37-.31-.7-.8-1.3-1.17l-4.43-.25Zm2.96 17.12-2.28 5c2.16-.08 4.27.01 6.22-.14l-3.94-4.86Zm-3.47 5.02s-.22-.07-.16-.25l-.06.18.22.06Zm25.47 2.82 8.67-13.29-4.43-1.77c.33-.28.65-.56.81-1.08 1.46.65 2.76 1.06 4.22 1.7l5.37-8.03-13.04-.84c-1.14 1.36-2.5 2.65-3.63 4 .81.45 1.84.96 2.65 1.4a61.07 61.07 0 0 0-4.22 4.4l-1.3-2.7c-1.46 1.65-2.87 3.11-4.33 4.75-.7-3.08.28-6.2 2.44-8.57a2.66 2.66 0 0 1-.43-.9c.32-.28.6-.38.92-.66l.6.37c.97-.84 2.22-1.78 3.35-2.38l-9.79-.58-7.64 11.51 10.21 12.15c1.03-.25 1.79-.39 2.33-.6 1.02 1.27 1.83 2.48 2.37 3.03 2.38-.78 3.58-1.55 4.87-1.9Zm322.97 28.1-4-4.69c-.1.35-.43.63-.54.97-4.1-.52-8.22-1.04-12.28-1.74-.43-.14-.7-.8-1.08-1.86l-3.95 5.8 21.85 1.51Zm224.19-16.74-26.77-1.7-7.65 11.51 15.56 18.59 6.78-10.27c-1.74.22-3.47.44-5.25.08-1.57-.3-2.43-2.1-4.43-4.06 4.49.84 7.84 1.5 10.76 2.04l5.96-9.19c-2-1.2-3.67-2.67-5.4-4.74 2.38.75 4.92.97 7.4 1.37l3.04-3.63Zm-259.35 14.5c-1.46-1.41-3.13-2.9-4.97-4.61.97-.08 1.9.02 2.87-.06l-8.65-10.32-9.05 13.74 19.8 1.24Zm-64.53-4-12.58-15.18-9.06 13.74 21.64 1.44Zm30.56 1.75c.54-.21 1.36-.53 2.06-.5l-12.1-14.46-9.05 13.75 19.1 1.2Zm41.44 1.15.38.31.05-.17-.43-.14Zm94.28 7.6-12.59-15.19-9.05 13.75 21.64 1.43Zm-2.13-31.16-7.64 11.52 15.56 18.59 18.64-28.47-26.56-1.64Zm-66.59-4.26-7.64 11.52 15.56 18.59 18.64-28.46-26.56-1.65Zm60.04 3.93-26.55-1.64-.82 1.08c1.95 1.37 4.17 2.63 6.92 4.45-4.27 0-6.87-.82-8.27-2.4l-5.53 8.56 15.56 18.58 18.7-28.63ZM196.88 143.7l-3.78-4.62c-2.54-.98-4.49-2.35-3.62-4.37l-5.19-6.2-2.81 4.46c7.03 1.06.31 4.3 1.29 6.5-2.5-.4-3.79-.8-4.55-1.42l-2.7 4.1 21.36 1.55Zm-44.68-2.93c-.16-.24-.32-.49-.54-.55-4.81-2.84-5.46-4.57.17-5.86-1.57-1.06-2.97-1.88-4.32-2.87l-5.04 7.75 3.89 1.22 5.84.3Zm-15.2-3.8c-.27.1-.54.2-1.02.24l.65.2.38-.45ZM296.78 150l-12.59-15.18-9.05 13.74 21.64 1.44Zm-133.17-8.52L151 126.31l-2.21 3.3c5.13 1.8 7.3 4 6.21 5.95-1.4 2.23-1.36 4.34 2.16 5.25l.86.27 5.57.41Zm-37.98-2.36a8.23 8.23 0 0 1-2.21-3.55c1.73.55 3.4 1.26 5.14 1.8l-8.86-10.4c-.65-.2-1.03-.5-1.68-.7.1-.35.38-.46.49-.8l-1.03-1.28-3.74 5.88c1.4.06 2.82.12 4.28 0 .7 2.32 1.67 5.29 2.58 8.43-2.43-.57-4.86-1.9-6.6-1.68-1.67.05-3.08-.01-4.48-.07l-.93 1.43 17.04.94ZM100 133.02l2.75 3.34.92-1.43a31.95 31.95 0 0 1-3.67-1.91Zm163.46 14.95-12.59-15.18-9.05 13.74 21.64 1.44Zm-16.28-5.67c8.82-.1 12.17 1.33 11.84 4.66a201.56 201.56 0 0 1-11.84-4.66Zm804.07 91.94 26.55 1.65 20.38-30.2-26.56-1.65-.05.17-20.32 30.03Zm-136.63-56.66c2 1.2 4 2.4 5.94 3.77 1.57 1.06 1.19 3.04 1.89 4.59-.76.14-1.25.18-1.95.15a32.62 32.62 0 0 1-4.1-2.05l-4.06-2.98-5.04 7.76 21.63 1.44-12.58-15.18-1.74 2.5ZM93.42 151.73l1.41-2.22c-.54-.56-1.08-1.1-1.4-1.59-1.03.25-2.11.68-2.93 1 .92.85 2.06 1.78 2.92 2.81ZM6.8 136.43l.1 2.7c.76.62 1.14 1.7 1.84 2.48.43.14 1.14.17 1.57.3.97-1.6 1.95-3.2 3.03-5.14l-6.54-.34Zm89.2 5.62c1.02.51 2.1.85 3.13 1.36l.81-1.08-3.94-.28Zm-51.61.24 3.46 1.08-.65-2.49c-1.08.43-1.95.92-2.81 1.4Zm17.58-.79c1.03.51 1.9.78 2.92 1.3l1.79-2.68-8.39-.53c-1.67 1.57-1.95 3.2-.54 5.54 1.57-1.22 2.6-2.23 4.22-3.63Zm-22.62 7.02c.81.45 1.78 1.13 2.6 1.58.32-.28.59-.39.92-.67-1.14-.16-2.44-.57-3.52-.9Zm20.72 1.34c-1.25-.58-2.49-1.16-3.95-1.8.65.96 1.78 1.89 3.19 2.7l.76-.9Zm-38.3-9.7s-.2-.06-.26.11l.05-.17c-.43-.14-1.02-.51-1.46-.65-.65 1.32-1.3 2.64-1.9 3.79 3.03.19 6.06.37 8.88-.27-1.57-1.06-3.46-1.85-5.3-2.8Zm21.8 4.73c-.86-.27-1.46-.65-2.32-.92-1.2.77-2.38 1.54-3.63 2.49l5.2-.66c.05-.18.43-.63.75-.9Zm71.16 26.84 3.3-4.5c-2.27-1.08-4.16-2.63-5.29-5.08l4.6-1.8c-3.68-.39-6.06-.37-8.22-1.05-2.65-.63-5.73-1.4-7.2-2.82l-2.75-2.57-1.4 2.22c1.5 2 2.75 4.1 4.26 6.1a10.93 10.93 0 0 1-5.68-3.11c-.16-.24-.16-.24-.37-.3l-4.34 6.26c7.03 1.81 13.84 3.57 20.39 5.42.92.1 1.84.2 3.24.26-.32.28-.43.62-.76.9.06-.17.06-.17.22.07Zm-62.55-27c.05-.18.27-.11.32-.28-.7-.8-1.46-1.41-2.22-2.03-.6.38-.97.84-1.57 1.22l3.47 1.09Zm182.21 23.29c-1.4-.82-2.8-1.64-4.38-2.7l-1.24 1.7c3.03 1.71 6.05 3.42 9.14 4.96.64-.56 1.24-.95 1.89-1.5-1.68-.72-3.78-1.57-5.4-2.46Zm-35.42-5.94c-.43-.14-.81-.45-1.03-.51l-2.7 4.1c3.29 1.6 5.23 4.5 7.67 6.6.32-.28.86-.5 1.19-.78-1.9-3.06-3.46-6.41-5.13-9.41Zm-65.7-17.7-26.56-1.64-.06.17-2.17 3.13c1.73 1.3 2.76 2.58 2.6 4.62a366.9 366.9 0 0 1 12.1 3.03c.66-.56 1.58-1.22 2.82-2.17 1.63.9 3.25 1.78 4.92 2.5l2.22-3.31c-.59-1.14-.32-2.77-.7-4.6.71.79 1.47 1.4 2.22 2.03l2.6-3.76Zm104.52 37.09c.37.3.48.72.86 1.03l6.27.44a24.58 24.58 0 0 0-3.35-1.43c-1.08-.34-2.6-.05-3.78-.04Zm-189.3-31.04-.27.1-.16-.24-3.41-.49c.7.8 1.13 1.69 1.51 2.76a25.32 25.32 0 0 0 10 2.94l.98-1.6c-2.16-2.2-5.24-2.97-8.65-3.47Zm-33.96-13.67c.22 1.59.33 2.77.54 3.6 1.3-1.12 2.82-2.17 4.12-3.3l-4.66-.3Zm12.55.88c.11.41.16 1 .27 1.41-.1-.41-.16-1-.27-1.42Zm57.39 10.9-1.3-.4c-.06.17-.06.17-.33.28.06-.18.06-.18-.1-.42-2.38-.75-4.92-2.5-8.22-4.1 2.92-.22 4.6-.27 6.06-.39l.21-.69c-2.7-.47-5.19-.86-8.38-1.29l-2.33 3.65c6.43 2.97 12.87 5.94 19.09 8.83.32-.28.92-.66 1.24-.94-.8-1.97-.43-3.95-5.94-4.53Zm567.43 60.39 3.74.21a90.71 90.71 0 0 1-2.87-1.47l-.87 1.26Zm28.91-18.01c3.46.32 6.7.57 10.39.96l7.85-11.45-26.77-1.7-.06.17-1.78 2.67c2.54 1.75 5.13 3.33 7.67 5.07-3.4.27-6.87-.81-9.14-2.67l-12.03 17.96c2.22 1.26 4.65 2.6 6.87 3.86.86 1.03 1.35 2.52 1.83 4l3.95.29c-.76-.62-1.46-1.41-2.43-2.1l1.62-.63c2.44.57 4.65 1.07 8.66 1.94l-2.71 1.06 3.95.29 11-16.18c-2.06.5-4.54-.67-8.87-3.54Zm-481.54-10.84 2.33.16c-.38-.3-.76-.62-1.35-1-.55.22-.87.5-1.36.53.22.07.44.14.38.31Zm306 5.64c.39-.45.98-.84 1.36-1.3 4.17 1.88 8.11 3.69 12.28 5.56l13.33-19.83c-.22-.07-.6-.38-.81-.45L505.83 168l-.05.17-20.32 30.03 26.56 1.64 6.12-8.94c-5.25-.69-10.55-1.2-12.87-5.17Zm-1.57 8.84c.32.48.65.97.76 1.38-2.5.36-4.98.73-7.96 1.13.6-4.2.6-4.2 7.2-2.51Zm106.77 9.4c.49.73.7 1.56.92 2.39l.7.03 5.85-8.84-1.73.98c-1.45-7.5-5.51-3.63-9.4-3.32.65-1.32 1.57-2.75 2.97-2.7 3.09.02 6.22.62 9.3 1.4.22.06 0 1.52-.38 2.73l13.71-20.28-26.77-1.72-.06.18-6.12 8.94c4.76 1.5 6.32 4.84 10.22 6.82-1.79.4-2.87.82-3.09.75-2.8-1.64-5.35-3.39-8.54-5.34l-5.74 8.49c5.08 1.21 4.86 4.19 5.78 6.57-2.11-1.61-4.16-3.4-6.65-5.32l-6.18 9.12 23.32 1.39c.75-.9 1.19-1.53 1.9-2.26Zm-3.7-19.26c-.33-.48 1.02-1 1.67-1.57 2.49 1.16 5.2 2.39 7.68 3.55-.6.38-.98.84-1.57 1.22-4 .66-6.65-.75-7.79-3.2Zm519.92 30.09c-9.2-.97-10.98-2.1-11.25-5.8 4.06 1.45 7.9 2.85 12.11 4.55l3.91-5.64-6.06-.37c.16.24.32.48.54.55l-2.38-.75-18.61-1.25-.05.18-20.32 30.03 26.55 1.64 15.56-23.14Zm-319 4.02 3.94.28 5.8-8.67c-1.19-.75-1.89-2.3-2.97-3.4.76-.15 1.35-.53 2.11-.68l2.7 1.23 6.67-9.92c-4.92 1.32-6.98.3-9.79-3.63 3.36.67 6.7 1.34 10.76 2.03l4.88-7.23-26.77-1.71-.06.17-14.09 20.74.44.13c1.13.17 2.1.86 3.13 1.37-1.08.42-1.67.8-3.08 1.5 3.08.02 5.25-.06 7.25.37 1.56.3 2.97 1.12 4.16 1.88.22.06-.16 1.28-.44 1.38-1.67.05-3.35.1-4.92-.2-2.49-.4-4.97-.8-7.14-1.47-.65-.2-1.46-.65-2.1-.85l-3.58 5.36 23.1 1.32Zm-5.78-14.96c2 .44 3.79.8 5.58 1.18.54-.98 1.3-1.88 2.32-3.66.98 2.97 1.78 4.94 2.43 6.67-9.14-.39-9.14-.39-10.33-4.19Zm388.38 19.41c-3.95 2-7.41 2.44-10.55 1.08 2.38-1.54 4.71-2.9 7.64-4.66-.27-.66-.38-1.07-.71-1.55-2.43-.57-4.59-1.25-5.3-.52-4.27 3.8-9.19 1.31-13.42 4.19l-.81-1.21c2.22-2.54 4.72-5.2 7.26-8.02-1.19-.75-2.38-1.5-3.3-2.36l-.05.17-20.32 30.03 26.56 1.64 13-18.79Zm-27.49 13.5c1.62.12 3.24.25 4.16.35 0-2.29-.48-3.77.17-5.1a54.6 54.6 0 0 1 4.71-7.47c2.55.98 6.17 2.3 9.58 3.56-1.79 1.16-4.01 2.18-4.72 3.67-2.87 6.15-8.71 6.61-14.67 8.94.39-1.98.49-3.09.77-3.95Zm-143.02-7.41-1.79 2.68 6.27.44c-1.56-1.06-3.13-2.13-4.48-3.12Zm-639.79-39.4 15.44-22.79 3.96-5.81-26.77-1.71-.06.17-13.38 20.01c2.16 1.44 4.27 3.05 6.8 4.8 4.28-1.52 6.77.4 8.55 4.58-5.36-1.1-10.06-2-14.12-2.7-.8-1.97-1.35-3.28-2.1-4.66l-.7-.03-2.77 4.28-.1.34-.44.63c3.4 1.26 6.87 2.34 10.27 3.6l13.25.9c.38-.45.5-.8.87-1.25.33-.28.81-.32 1.3-.36Zm-227.3-12.82 1.85.2-1.52-.48-.32.28Zm725.53 46.22 7.91-11.63c-1.57-1.82-4.6-3.53-.32-6.57.7 1.55 1.19 3.04 1.78 4.17l11-16.18-26.77-1.7-.05.17-20.33 30.03 26.78 1.7ZM58.47 162.5l-.48.8c5.83 2.6 11.89 5.25 17.62 8.19.43.13.54.54.7.79l3.25.25 1.3-1.88c-7.9-2.85-15.14-5.5-22.39-8.15Zm32.25-6.67c-.43-.14-.65-.2-1.13-.17-5.74-.65-11.41-3-17.1-4.58-1.78-.37-4.05.06-6.21.15l-1.36 2.05c1.52.47 2.87.7 3.46.32 4.06-2.35 5.8-.29 8.5 1.7-1.09.43-2.12.68-3.36.86 1.13.93 2.32 1.68 3.3 2.37-.33.27-.38.45-.7.73l-8.66-2.71a19.2 19.2 0 0 1-1.68 3.86c.43.13.92.1 1.35.23 4.17.35 8.33-.06 12.23.4 1.83.19 4.05 1.45 5.62 2.52.6.37-.27 1.63-.87 2.77l6.61-10.5Zm-27.37-.57-2.28 3.48s-.05.18.17.25c.16.24.6.37 1.24.57 1.08-1.18 2.38-2.3 3.74-3.59-1.14-.16-2-.44-2.87-.7Zm385.66 29.61c.38-.45.98-.84 1.36-1.29.86.27 1.73.54 2.75 1.05l12.9-19.2-26.77-1.72-.06.18-3.57 5.36c6.81.99 13.68 1.8 20.71 2.86.05 1.35.05 2.87.21 4.64-10.22-6.06-18.82-6.65-20.34-3.32-1.13-.16-2-.43-3.13-.6l-2.98 4.21c2.6 2.34 5.02 4.44 7.46 6.53-5.52-2.1-8.38-3.58-8.7-4.82l-10.2 15.1 26.56 1.64 6.56-9.56c-.65-.2-1.73-.55-2.76-1.06Zm-174.71-9.32s-.17-.25-.7-.8c-1.36-.23-3.74-.21-4.5-.83a24.69 24.69 0 0 1-4.96-6.89c-.27-.65 2.43-1.71 4-2.17.76-.15 2.33.91 3.57 1.5.16.23.27.65.38 1.06-1.4-.06-3.03-.18-4.5-.07.12.42.5.73.6 1.14 1.46.65 2.87 1.47 3.08 1.54 5.04-1.67 8.88-3.32 13.37-4.01 1.73-.22 4.33.59 6.54 1.1l8.08-12.15-26.56-1.64-.05.17-.98 1.6c1.78 1.9 2.97 4.17 4.54 6-.54.2-1.3.35-1.84.56-1.52-1.24-3.08-2.3-4.6-3.53-.05.17-.27.1-.32.28l-9.38 14.02a91.12 91.12 0 0 1 6.81 4.03c-5.4 2.88-5.84-1.82-8.16-1.98l-5.86 8.84 26.56 1.64 1.25-1.7c-5.57-.41-9.74-1.53-6.37-7.71Zm-118.2-.22-.6 1.91 3.52.15c-1.03-.51-2-1.2-2.92-2.06Zm-9.85-.41 1.04-3.3 2.1.09 16.32-24.05c-3.95-.28-7.63-.67-11.1-.99-.1-.41-.26-.66-.37-1.07l-9.3-.63 3.4.5c-1.08 1.19-2.38 2.3-3.73 3.6.86 1.03 1.73 2.06 2.54 3.26l-1.9.75c-1.3-1.17-3.08-2.3-3.4-3.55-.54-1.3.38-2.73.6-4.2-.92-.09-1.79-.36-2.87-.7l-4.88 7.24 1.63 1.65c-.06.18.05.59 0 .76-.87-.27-1.68-.71-2.76-1.05l-2.22 3.3a13.5 13.5 0 0 1 3.83 2.92c3.68 4.2 8.5 4.75 14.33 5.06.54 1.3.87 2.55 1.08 3.38-6.38-1.61-12.28-3.27-18.66-4.88.54 1.3.97 2.2 1.57 3.34-1.9-.02-3.3-.08-4.7-.14 1.61 1.66 2.86 3 4.31 4.4-3.08-.77-6.54-1.09-9.62-1.86l-4.01 5.98 26.56 1.64.92-1.42c-.06.17-.27.1-.7-.03Zm475.95 26.42 1.52.47c1.73.55 3.67 1.16 5.9 1.66a88.47 88.47 0 0 1-2.18 3.9l4.66.3c4.16-.4 7.79-.6 11.25-1.05.22.07.16-.52.22-.69-1.52-.47-3.2-1.19-5.79-2 2.33-.6 3.9-1.07 6.22-1.67-5.02-3.67-9.67-7.03-14.86-10.94l-6.94 10.02Zm43.36-23.2-26.77-1.71-.06.17-8.5 12.77c2.91.53 5.4.93 5.83 1.83 1.9 3.07 5.63 3.28 9.14 4.2l-.22-.08c.06-3.98.34-7.9.4-11.88 1.4 2.35 1.61 5.46 4.1 6.62 3.51 1.67 4.49 3.12 4.7 4.71l11-16.18.11-.35.22.07.05-.17Zm69.25 35.96a6.18 6.18 0 0 1-1.67-.72c.38-.45.7-.73.87-1.25 3.62.56 7.51 1.02 11.62 1.54l2.28-3.48c-.92-.1-2.05-.26-2.92-.53-8.22-1.81-7.13-6.04-7.3-10.1 3.2 1.2 5.9 2.42 8.23 4.1.16.24-1.95 1.68-3.85 3.18l6.5 2.03 16.73-24.67-5.13-.28c0 .77.27 1.42.26 2.18l-3.46-1.08c-.1 1.11 0 2.29-.1 4.16-2.87-2.23-5.14-4.09-7.63-6l-10.5-.62-.05.17-13.82 20.63c1.63.13 3.47.33 5.09.45.21.83.16 1.77.32 2 2.92 1.3 5.25 2.22 7.35 3.07-.32.28-.43.63-.75.9-2.06-.25-3.9-.45-6.23-.6l-.97 3.12c-3.79-.8-6.7-1.34-9.63-1.87l-1.3 1.88-.1.35 16.16 1.44Zm-83.12-15.16 1.3-1.87c-2.65-.64-5.3-1.28-7.73-1.85 2.21 1.26 4.21 2.46 6.43 3.73Zm-52.5-25-26.77-1.7-.06.17-9.37 14.02c2-.32 3.78-.72 5.09-1.84 2.05 1.03 3.89 1.98 6.75 3.45-.48-1.48-.7-2.31-.91-3.14.48-.04.97-.08 1.51-.29.92 2.38 1.89 4.6 3.4 8.11-6.5-.5-12.28-.98-18.28-1.53l-1.09 3.47c-.6-.37-1.03-.5-1.4-.82l-5.75 8.5 26.78 1.7.38-.45c-.76.15-1.95.15-2.17.09-3.35-2.2-6.43-4.5-9.35-6.55 4.06-.83 6.87-1.47 9.36-1.83 1.03 2.03 2.1 3.9 2.86 6.03.16.25.27.66.16 1l3.63-5.52c-.86.49-2.32.6-4.76.8 2.44-2.48 4.39-4.16 6.4-6.01-.23 1.46-.06 2.46-.28 3.15l13.87-20.8Zm-30.32 27.1c-10.39-.97-10.39-.97-11.9-2.2l5.41-2.12c1.35 1 3.73 2.5 6.49 4.32Zm-33.84-24.69c5.3 5.09 13.62 8.84 21.09 10.03l9.75-14.48-26.77-1.7-.06.17c1.68 1.47 3.2 2.7 4.87 4.19-.54.2-.87.49-1.41.7-1.62-.9-3.3-1.6-5.14-2.56l-2.33 3.65Zm-70.07 14.46c-2.54-.98-4.92-1.72-7.46-2.71l-5.36 8.04 26.56 1.64 20.37-30.2-26.56-1.65-.05.18-13.77 20.46 15.63 5.46c1.08.34 1.51 1.23 2.22 2.03.16.24-.76.9-.98.83-1.13-.16-2.16-.67-3.24-1.01a117.23 117.23 0 0 0-7.36-3.06Zm8.3-17.4c3.57.73 6.7 1.33 9.84 1.93l-.38 1.22c-3.62.2-7.74 1.96-9.46-3.15Zm-2.22 3.3c3.03.95 5.57 1.94 8.49 2.47 2.22.5 4.54.66 6.87.81-.11.35-.06.94-.17 1.29-5.4-.93-12.06.6-15.2-4.57Zm74.24 25.33 1.36-2.05c-1.14.6-2.06 1.26-3.2 1.85l1.84.2ZM432.7 163.39l-26.77-1.7-.06.17-4.5 6.78c3.03.95 5.9 1.66 9.41 2.56-3.95.48-6.11.57-8.6.93-.54-.55-1.35-1-2.1-1.61l-14.26 21.26 26.56 1.64 14.74-22.06-.65-.2c.76-1.67 1.41-2.99 1.52-3.34.43.14.92.1 1.35.24l3.36-4.67Zm107.22 38.32a10.64 10.64 0 0 1 8.45-4.22l4.33-6.26a8 8 0 0 0-1.83-.96c-3.74-.22-6.98-.47-10.23-.72.06-.18-.1-.42 0-.76 2-.33 3.95-.48 7.42-.92-4.87-2.67-8.17-5.03-12.22-6.5-1.52-.47-2.54-.98-3.4-1.25l-13.72 20.29 21.2 1.3Zm437.98 27.87 20.37-30.2-26.77-1.71-.05.17-20.33 30.03 26.78 1.71Zm-66.59-4.26 17.24-25.47c-4.44-.24-9.04-.73-13.47-.97-.7-.03-1.46-1.41-2.22-2.03 1.25-.18 2.54-.54 3.68-.38 4.17.36 8.28.88 12.44 1.23.22.07.65.2.92.1l1.73-2.5-26.77-1.72-.06.18-20.32 30.03 26.83 1.53Zm33.32 2.05 20.38-30.2-26.56-1.65-.06.17-20.32 30.03 26.56 1.65Zm-106.09-38.15-.05.17-20.32 30.03 26.56 1.64 20.37-30.2-26.56-1.64Zm-39.8-2.55-26.78-1.71-.06.17-20.32 30.03 25.59 1.72-2.76-4.86c.55-.21 1.3-.36 1.9-.74 1.51.47 3.19 1.19 4.7 1.66l2.28-3.48-.43-.14c-.38-.3.49-2.32.92-2.18.22.06.7.03.92.1l14.03-20.57Zm-32.7 16.44c4.98.03 9.68.17 15.15.17-9.42 4.29-10.12 4.26-15.15-.17Zm-60.67-22.41-.05.17L685 210.9l25.58 1.72-.65-.2c1.2-.77 2.33-1.37 3.2-1.86l1.24-1.7c-5.13-1.8-5.08-1.98-1.29-4.22 1.03.51 2.1.85 3.13 1.36l.98-1.6c-.54-.55-.86-1.03-1.4-1.58.92.1 1.62.12 2.32.15l13.82-20.63-18.88-1.15s-.05.18-.27.11c0 0-.21-.07-.16-.24l-7.25-.36Zm70.61 33.14c.87 1.03 1.78 1.9 2.49 2.69l1.3-1.88c-1.14-.17-2.22-.5-3.79-.8Zm268.5 20 20.38-30.2-26.78-1.71-.05.17-16.8 24.85a15.03 15.03 0 0 1 6.97 5.8l16.28 1.1Zm-33.26-2.21 3.47-5.01c-1.3-.41-2.76-1.06-4.65-1.84 2.11.09 3.95.28 5.51.58l16.04-23.94-26.77-1.7-.06.16-20.32 30.04 26.78 1.7ZM238.6 165.9c-.1-1.17.06-2.46-.31-3.53-.49-1.48-1.4-3.1-2.6-5.38l-4.93 7.41c.7.03 1.3.4 1.79.37 2 .43 4 .87 6.05 1.13Zm23.66-13.36-.92-.1-1.08 3.47c-1.79-.37-3.3-.84-3.09-.77-.6-1.14-1.24-2.1-1.67-3l-16.07-1.03-.05.17-3.47 5.02c3.52 1.67 5.63 2.52 8.11 3.68-1.9.74-2.98 1.16-3.3 1.44 3.94 3.33 8.87 5.82 14 8.38l3.63-5.53c-2.76.47-4.92-.2-7.25-1.89 2.17-3.13 6.34-3.54 11.15-3.75l2.71-4.1c-.75-.62-1.73-1.3-2.7-2Zm-10.72 6.17c-.65.56-1.03 1.01-1.68 1.57-3.3-1.6-6.54-3.38-10.05-5.05.38-.46.76-.9 1.08-1.19 3.57 1.5 7.14 3 10.65 4.67Zm-1.7 18.33c-.8.32-1.57.46-2.38.78.33.48.7.79 1.03 1.27l1.35-2.05Zm-22.6-7.45-2.66 3.93c1.2.75 2.22 1.26 3.41 2.02-.32.27-.7.73-1.03 1-1.3-.4-2.32-.91-3.57-1.49l-4.06 6.16 12.55.88c.1-.35.49-.8.81-1.08 2.6-3 3.74-5.12 10.12-5.03a48.1 48.1 0 0 1-15.57-6.4Zm42.32-11.53c-.06.17.16.24 0 0 .21.07.21.07 0 0Zm-26 20.83c1.3-.36 2.66-.89 4.17-1.18-1.57.46-2.86.82-4.16 1.18Zm-76.8-1.18c.91.1 1.34.24 2 .44l4.86.38c-.97-.69-1.73-1.3-2.48-1.92-1.14-.93-1.3-1.93-1.9-3.07 1.8.37 3.68.39 5.14 1.03l6.17 3.08 2.6-3.76c-7.25-3.41-7.14-3.76-6.1-6.3 2.42 2.1 4.53 3.71 6.59 5.5l4.5-6.79c-.92-.1-2.11-.09-3.2.34-6 .98-10.82-1.1-14-5.34 1.51.48 3.84 1.4 4.16 1.12 5.1-4.13 6.06.37 6.82.98 2.7.47 5.24.7 7.52 1.02l3.46-5c-1.03-.52-1.89-.79-2.92-1.3.38-.45.7-.73.87-1.25 1.08.33 2.22.5 3.3.84l5.85-8.84-10.22-.72c1.24.58 2.49 1.16 3.78 1.56-6.22.91-9.84.35-12.17-2.1l-5.35-.33c.27 1.41-1.3 2.64-2.06 4.3-.81-1.2-1.24-2.1-1.78-2.65l-15.88 23.42c2.81.12 5.84.3 9.36.45-4.6 3.33-4.34 3.98 1.07 4.91Zm27.92-8.03c-.33-.48-.92-.85-1.25-1.34l-7.42 10.83 6.98.46c-1.46-.64-2.65-1.4-1.24-2.86 1.78-1.92 5.68-2.99 9.9-.52 2.64 1.4 5.46 3.04 8.32 4.5l2.54.23.93-1.43c-5.63-2.52-11.03-4.97-16.44-7.43-1.03-.5-1.62-1.64-2.32-2.44Zm154.1 15.26 1.35-2.05c-.16-.24-.6-.38-.76-.62-1.57.46-3.08.75-4.44 1.28 1.09.34 2.55.99 3.84 1.4Zm-142.4-35.98-.05.17-.49.8c1.84.96 3.52 1.68 4.7 2.43-.43 2.15-.7 3.78-1.19 5.34a5.3 5.3 0 0 0-1.25.18c-1.3-1.93-2.53-4.03-3.61-5.9l-4.45 6.62c2.22.5 4.44 1 7.09 1.64-4.39 2.63-4.82 7.07-1.15 8.22 2.81.88 6.55.33 11.53.37.8.44 1.62.88 2.59 1.57l2.76-4.28c-2.32-1.68-4.37-3.47-6.7-5.15.33-.27.87-.49 1.2-.77 2.2 1.27 4.64 2.6 6.86 3.87l9.21-13.5-6.06-.38c-.38.46-.97.84-1.4 1.47-3.36.1-5.47-.76-7.47-1.96l-12.12-.74Zm9.55 27.18 1.78-2.68c-3.24-.25-4.97.73-4.6 2.56.7.03 1.63.13 2.82.12Zm103.25 11.54 3.46.33c1.2-.01 2.22-.26 3.36-.1-.11-.41-.44-.9-.49-1.48-1.46.11-3.08-.01-3.57.02-.27-.65-.38-1.07-.65-1.72l-2.1 2.95Zm-30.38-16.74 1.4-2.23c-1.88-.02-3.78-.04-6.38-.09 1.9.78 3.57 1.5 4.98 2.32Zm25.2 7.5c-1.03-1.27-3.84-2.15-6.49-3.55 3.84-.13 6.44-.08 8.87-.27-.48-1.49-.86-2.56-1.34-4.8 3.02 1.7 4.65 2.6 6.65 3.79l11.16-16.7-26.78-1.71-.05.17-13.76 20.46c5.19 1.63 10.43 3.08 15.62 4.7.87.27 1.3 1.17 2.11 1.61 1.4.82 2.76 1.82 4.16 2.64l1.25-1.7c-.27.1-.6.38-.87.48-.26-2.18.5-3.84-.53-5.12Zm40.08-1.36 12.04-17.96-18.18-1.11c1.73 1.3 3.46 2.6 4.97 3.84.54.55 0 1.52-.1 2.63-3.47-2.6-6.39-4.66-9.3-6.72l-4.17-.35-.05.18-10.08 14.75c1.08.34 2.27 1.1 3.62 2.09-2.22.26-3.95.48-5.68.7l-.98 1.6c1.35.23 2.7.46 3.73.21 2.98-.4 4.77-.8 6 2.07.92 2.38 3.79 4.61 8.6 4.4-2.32-2.44-4.86-4.95-8.1-8.25 5.4.17 9.3-.13 12.93.43 1.78.37 3.3.84 4.75 1.49Zm-41.66 10.2.43-.62c-3.19-1.95-8-2.5-11.63-.78-1.08.42-2.76.47-5.14.48l16.34.92Zm-25.4-15.19c-2.23 1.79-3.9 3.36-5.53 4.75.81.45 1.68.72 2.7 1.23l3.52-5.18c-.37-.31-.53-.56-.7-.8Zm2.36 8.37c.44.13.81.44 1.25.58 0-.77-.11-1.18-.16-1.77l-1.09 1.19Zm-2.49 3.4-1.25 1.71 2.33.16c.54-.21 1.3-.36 1.84-.57-.76-.61-1.08-1.1-1.73-1.3-.27.1-.7-.03-1.19 0Zm671.7-93.7-.32-.48-30.72-7.32 4.32 5.92s-.05.17.16.24l26.56 1.64ZM79.71 46.84c.48.72 1.08 1.86 1.89 3.07-.87.49-1.57 1.22-2.44 1.71l1.35 1.76 10.94-13.72-6.54-.34a102.74 102.74 0 0 0-5.2 7.52ZM2.9 34.24l3.62 5.13c1.4-1.46 2.81-2.93 4.06-4.63l-7.68-.5Zm68.48 4.28.97 3.73c.65-1.32 1.08-2.7 1.4-3.75l-2.37.02ZM7.86 52.56c-1.72-2.83-3.67-5.73-5.45-8.38l-.98 3.12.37 4.88c1.47-.11 2.93-.22 3.79.8-1.08 2.72-2.22 5.6-3.1 8.38l.22 2.35c1.68-3.1 3.63-6.3 5.37-9.56-.27-.66-.06-1.35-.22-1.6Zm-5.23-9.84-.38 1.22c.32-.28.38-.45.7-.73l-.32-.49Zm789.69 36.96-24.25-33.31-26.78-1.71 20.3 27.7c2.28-.44 5.1 1.2 7.58 2.36-1.9-.02-3.84.13-5.74.11l2.16 2.97s-.05.17.17.24l26.56 1.64ZM53.04 44.02a735.2 735.2 0 0 0-7.62-2.96l-.98.84a165.2 165.2 0 0 1 4.97 6.9l3.63-4.78Zm-38.63 4.3 5.42-6.69c-.22-.07-.6-.38-.81-.44-1.63 2.15-3.25 4.31-5.53 7.03.44.14.7.03.92.1Zm986.52 12.8-26.56-1.64 24.09 33.07s-.06.17.16.24l26.56 1.64-24.25-33.3ZM36.89 24.3c1.62.88 3.3 1.6 5.08 1.97a65.98 65.98 0 0 1-4.27-3.82c-.21.7-.65 1.33-.8 1.85ZM1.51 28.09c-.49.03-.98.07-1.25.18v.76l1.63.13c-.11-.42 0-.77-.11-1.18-.06.17-.06.17-.27.1Zm26.08-5.18 1.24 2.1c.05-.17.38-.45.43-.62-.54-.55-1.08-1.1-1.67-1.48Zm7.24 6.46c.54-.98 1.25-1.7 1.73-2.5-.16-.25-.6-.39-.75-.63-.92 1.43-1.68 3.1-2.6 4.52l.32.49s-.06.17.16.24l4.65.31a35.1 35.1 0 0 1-3.51-2.43ZM641.81 48.4a931.44 931.44 0 0 1-8.28-3.16c.17-.52.5-.8.65-1.32 3.3.08 5.14.27 6.22 1.37l-5.29-7.37-21.2-1.3c2.54 2.5 4.54 3.7 8.38 2.81.48 1.49.86 2.56 1.4 3.87-1.57-.3-2.92-.53-4-.87-.93 6.76 1.23 8.96 9.34 12.64 2.7 1.23 4.49 3.88 6.76 5.73-1.79 1.16-3.8 2.25-5.9 3.68 1.3 1.17 3.4 2.78 5.89 4.7-1.25.18-2.33-.15-3.41-.5l.49.73s-.06.17.16.24l13.52.8c-.1-.41-.43-.9-.54-1.3l2.27-.44.81 1.97 10.71.68-18.09-24.9c-.38.45-.11 1.1.1 1.94Zm-358.92-1.24c-2.49-1.92-4.81-4.36-7.2-4.34-6.38-.1-10.7-3.73-15.83-5.53l6.31 8.64s-.05.18.17.24c.92-.66 1.9-1.5 3.19-2.62-.1 1.11-.16 2.05-.16 2.81l13.52.8Zm128.25 7.55c.16.24.1.42.27.66l14.87 1.03-.48-.72-.65-.2c-1.52-.48-2.87-1.47-4.44-2.53.7-.73 1.2-1.54 1.8-1.92l-4.33-5.92-1.73-.55c-.05-.58-.1-1.17-.1-1.93l-6.86-9.2c-1.47.11-2.5.36-3.74.55-2.7-8.09-2.75-7.91-12.32-10.72-.86-.27-1.67-.71-2.54-.98l-15.63-.9L394 47.26c.27-.1.54-.2 1.03-.25.37 1.08.48 2.25 1.18 3.04l3.57 4.55 10.7.68c.28-.1.33-.28.66-.56ZM399.2 40.5a124.25 124.25 0 0 1-9.57-8.14c-1.67-1.47-2.7-3.51-4.05-5.27.27-.1.6-.38 1.09-.42 5.45 4.57 10.97 8.96 16.43 13.52-.11.35-.44.63-.55.98-1.35-.24-2.81-.12-3.35-.67ZM142.4 6.63l5.45 7.61c.11-.34.49-.8.6-1.14 4.38 1.18 8.76 2.36 12.54 4.68 1.08-.42 1.95-.91 2.98-1.16-.49.8-.98 1.6-1.41 2.23.16.24.6.37.76.61-.17.52-.54.98-.98 1.6-.43-.13-.81-.44-1.24-.58-2.11 2.2-4.17 2.7-7.69 1.8l12.8 17.52s-.05.18.17.25l26.77 1.7-24.2-33.48-26.55-1.64ZM2.52 43.83l-.06.18.06-.18c-.06.18 0 0 0 0Zm359.76 15.98c4.22 2.47 4.87 4.2 4 7.73-2.81-.12-5.57-.4-9.3-.62 2.48 2.68 4.48 4.64 6.32 6.36-.55.2-.93.66-1.47.87-1.3-1.17-2.86-2.23-4.16-3.4-1.3-1.16-1.94-2.13-1.94-2.89l-5.8 7.14 9.13 12.57 26.56 1.65-22.36-31-.98 1.6ZM198.3 77.66l2.81.12-.21-.07a109.19 109.19 0 0 0-14.06-8.2l5.62 7.85 3.51.15c.33-.28.87-.5 1.2-.78.65.2.75.62 1.13.93Zm99.45-21.84c-.64-.2-1.3-.41-1.78-.37L283.5 70.98l9.13 12.57 26.55 1.65-22.35-31c.27.65.59 1.13.91 1.62ZM153 59.29c1.84-.57 3.79-1.48 5.95-1.57.76-.14 1.9 1.55 3.08 2.3-1.46.88-2.92 1.76-4.65 2.74.16.24.6 1.14 1.24 2.1-1.9.74-3.52 1.38-5.09 1.84l6.1 8.58 26.56 1.64-22.35-31-10.84 13.37Zm20.39 4.67c-7.51-4.07-7.51-4.07-6-6.64.54 2.83 7.14 2.23 6 6.64Zm578.43 48.77-22.36-31-2.76 3.52c.7.03 1.24-.19 2.16-.09-1.78 1.92-2.87 3.1-4.6 4.85-.16-.24-.6-.38-.75-.62l-7.43 9.3 9.13 12.57 26.61 1.47Zm-33.32-2.04-22.36-31-1.19 1.53c1.95 2.13 2.75 4.86 1.89 6.88l-3.4-5.07-10.57 13.27 9.13 12.57 26.5 1.82ZM152.77 59.22l-.43.63 1.08.34-.64-.97Zm263.7 20.21 9.12 12.58 26.56 1.64-22.36-31-13.33 16.78Zm246.4-1.96-13.54 16.72 9.12 12.57 26.56 1.64-22.14-30.93ZM59.56 68.73l.49-.04c-.55-.55-.87-1.03-1.46-1.4l.97 1.44Zm66.4-19.42c4.97.03 4.6 2.77 3.88 5.79 1.03.5 2.27 1.09 3.36 1.43l-.44 1.39c-2.16-.68-4.87-1.15-6.6-2.45a66.03 66.03 0 0 1-3.18-2.71l-6.18 7.6 1.84 2.47c2-1.85 4.06-3.87 6.28-5.65.38.3.7.79 1.08 1.1l-6.17 6.07 5.77 8.1c.65.2 1.3.4 1.9.77l25.15 1.59-22.36-31-4.33 5.5Zm15.01 19.56c-.16.52-.6 1.14-.76 1.66-3.13-1.36-6.54-2.61-9.68-3.98.17-.52.54-.97.7-1.49 3.42 1.26 6.6 2.44 9.74 3.8Zm-89.8-.67 1.63.13-1.14-1.69-.49 1.56Zm34.03 1.32-.11.34c-.05.18.16.24.32.48-.1-.41-.05-.58-.21-.82Zm-38.3-2.08c.27-.1.54-.21.76-.15-.81-.44-1.57-1.06-2.38-1.5 1.14-1.36 2.06-2.79 2.93-4.04l-6.48-8.89c-4.02 7.51-6.67 9.16-15.98 11.58-.32-2-.48-3.77-1.18-7.6 8.6 6.68 11.63-.75 16.35-5.18L37.62 47c-.16-.24-.38-.31-.76-.62a6.2 6.2 0 0 0-1.67 1.57c0 .76.05 1.35.1 1.94-.43-.14-.7-.03-.92-.1-.1.35-.27.87-.22 1.46.44.13.92.1 1.36.23-.65.56-1.09 1.18-1.74 1.74-.32 1.04-2.33 2.13-3.4 3.32-.6-.38-.98-.69-1.58-1.06a6.3 6.3 0 0 0 1.74-1.75c-1.2-.75-2.33-1.68-3.52-2.43.38-.45.5-.8.87-1.25 1.14.16 2 .43 3.14.6-.16-1-.76-2.15-1.19-3.04-1.84-.96-3.62-2.09-5.4-3.22l-2.71 3.35c1.89.02 3.9.45 5.73.65-.98 1.6-1.47 3.92-2.98 4.97-1.84 1.33-3.41 2.55-5.2 3.7l6.59 9.31 19.1 1.21c.32-.28.8-.32 1.13-.6.6.38.6.38.81.45Zm-29.37-4.05-2.16-2.96c-2.38 1.54-4.55 3.15-6.87 4.52l.86.27c-.05.17-.05.17-.32.28l6.49.5.76-2.42c.49-.04.76-.15 1.24-.19Zm75.24 6.97c.43.14.81.44 1.24.58l1.41.06-.32-3.53a68.89 68.89 0 0 1-2.33 2.89Zm22.35-3.87-2.16-2.96c-.98.08-1.9-.02-2.55-.22a299.1 299.1 0 0 0-2.44 5.52c1.03-.25 1.79-.4 2.22-.26 2.22 1.27 4.6 2.77 6.81 4.04l2.55.22-4.43-6.34ZM107 70.43l-.33-.48c-.38-.31-.54-.55-.7-.8l.27-.1c-1.24-2.1-2.86-3-5.14-.27l-2.27 2.71 9.79.59a5.6 5.6 0 0 0-1.62-1.65c.05-.17.05-.17 0 0Zm800.78-15.2 19.82 26.96c-.32-.48-.43-.9-.7-1.55-.48-1.49-.91-3.15-1.4-4.63 1.9.02 4.22-.59 5.9.13 4.21 1.7 6 .54 6.44-3.13 4.16 1.88 8.32 3.75 12.54 5.45l-7.5-10.16c-3.3-2.37-7.41-3.65-11.8-4.07-6.16-.79-9.62-3.4-10.7-8.3l-12.6-.7Zm-514.76-1.04-1.03-1.28c-.38.46-.98.84-1.35 1.3l2.38-.02Zm-20.28-8.82c2.27 4.9 8.7 7.1 13.68 5.61 1.08-.42 2-1.09 2.98-1.93l-20.63-28.17-22.13-1.4c-.05.17.11.42.06.59-.28 3.91 1.56 5.63 4.64 7.93 2.92 2.06 5.57 4.22 8.49 6.28-.33.27-.6.38-.93.66l4.21 9.32c-1.3-.4-2.54-.99-3.78-1.57l6.8 9.37s-.05.18.17.24l3.73.22a19.35 19.35 0 0 1-4.21-6.27c-.97-2.21-1.9-4.6-2.7-7.32 3.73 1.74 7.63 2.2 9.62 6.44Zm31.56-18.9-2.48-3.44-5.84-.3c3.02.94 5.73 2.17 8.32 3.74Zm358.42 57.48-13.54 16.72 9.12 12.57 26.56 1.64.22.07-22.36-31ZM385.34 53.69c-2.98-.36-6.22-.61-9.2-.97-.05.17.16.24.1.41l9.1.56ZM260.02 32.96c.22-2.22.5-3.85.39-5.79-.06-.59-.81-1.97-1.3-1.93-5.14-1.03-4.92-4.77-7.45-8.05 2.27.33 3.84.63 5.4.93-.21 1.46-.6 2.68-.92 4.48 2.87-.82 4.98-1.5 7.36-2.27 1.73 1.3 3.62 3.6 6.05 4.18 1.35.23 3.25-1.27 4.77-2.32l-5.3-7.37-26.55-1.65 11.28 15.54a6.9 6.9 0 0 1 1.84-2.85c.06 2.87.32 5.81 4.43 7.1Zm66.41 16.97-8-10.89c-1.56.47-2.92 1-4.48 1.46-.38-1.07-.6-1.9-1.03-2.8-.32.28-.87.49-1.19.77 1.3 1.17 2.21 2.79 3.67 3.43 3.95 1.81 7.79 3.97 8.98 7.77l-.11.34 2.16-.08Zm33.27 2.21-11.3-15.53-1.13 1.36c-1.78-1.13-3.62-2.09-5.62-3.29a7.8 7.8 0 0 1 1.46-1.63c1.57 1.06 3.4 2.01 4.97 3.08l-6.48-8.89c-.21-.07-.43-.14-.92-.1-4.49-.07-7.84.03-9.19-3.25-4.05-.7-7.2-1.3-10.6-1.8 2.55-2.06 3.8-3 3.85-3.94l-16.07-1.02 24.09 33.06s-.06.18.16.24l26.78 1.71Zm-45.65-5.13c-3.52-.91-6.39-.1-8.39 1.75l11.63.78c-.38-.3-.6-.37-.97-.68-.76-.62-1.4-1.58-2.27-1.85Zm620.3 9.86-9.53-.7c2.87 1.47 5.57 2.7 7.62 3.72a24.2 24.2 0 0 1 3.41-1.03l-1.5-2Zm5.82 8.68c.17.24.6.38.76.62l-4.32-5.93c-.38 1.98 1.46 3.7 3.56 5.3ZM798.86 80l26.77 1.71-24.3-33.13-3.73-.22-22.83-1.43 24.09 33.07s-.22-.07 0 0ZM566 65.26l26.77 1.7-24.25-33.3-26.77-1.71L566 65.25c-.22-.06-.16-.23 0 0Zm-8.63-18.7c-3.25-1.02-5.79-4.3-8.65-6.52l.97-.84c2.81 1.64 4.92 5.54 9.41 2.56.76 2.9 1.94 5.94-1.73 4.8ZM492.65 60.6 468.4 27.29l-26.56-1.64 18.1 24.9c10.06 2.77 10.27 2.83 10.8 4.9-3.56-1.49-7.07-3.16-10.86-4.73l5.83 7.93s-.05.17.17.24l26.77 1.7Zm31.92 1.98c-1.36-1-2.5-1.92-4-3.16.86-.49 1.89-.74 2.81-.64L501.94 29.4l-26.56-1.64 24.09 33.06s-.06.18.16.24l24.94 1.52Zm-21.74-6.42.97-.84c4.98 1.56 5.35 1.87 4.92 5.54-1.84-1.72-4-3.16-5.9-4.7ZM858.9 83.94l-15.99-21.77-6.65-1.51c.98-.84 2.38-2.3 3.03-2.1.6.38.98.69 1.63.89L838.43 56c-.05.18.16.25.1.42-2.42-2.1-4.9-4.02-7.4-5.94l-20.44-1.44c.38.3.7.79.86 1.03l-.97.84c-.6-.38-1.4-.82-2-1.2l23.6 32.35s-.05.17.16.24l26.56 1.64ZM126.84 37.39l-9.13-12.57-.22-.07-2.06 8.88c1.35.23 2.7.46 4.32.59.11.42 0 .76.11 1.18-.92-.1-2.06-.27-3.68-.4.49.73 1.03 1.28 1.57 1.83l9.08.56ZM332.9 18.6a6.56 6.56 0 0 0 3.52 1.67l-1.19-1.51-2.33-.16Zm559.32 67.37-24.25-33.3-26.77-1.72 24.08 33.07s-.05.17.17.24l26.77 1.71Zm-38.65-21.43c-1.08-1.1-1.9-2.3-3.14-3.65 3.03.95 5.9 1.66 8.71 2.54 0 .76 0 1.52-.06 2.46-1.56-.3-3.57-.74-5.51-1.35Zm71.7 23.58-24.25-33.3-11.2-.65c1.51 2.76 3.03 5.51 4.6 8.86-3.09-1.53-5.74-2.93-8.23-4.1-2.48-1.15-3.45-3.36-2.7-5.03l-9.3-.62 13.29 18.25c.86-.49 1.78-1.15 2.49-1.89 3.25-2.79 13.9-1.17 17.09 2.3 2 1.96 4.6 3.54 6.86 5.39.98.69 1.62 1.65 2.54 2.51-9.3-2.15-18.55-4.47-27.85-6.62l9.45 13.06s-.05.17.16.24l27.05 1.6ZM63.64 4.1c-1.08-.34-2.27-1.1-3.3-1.6-.16.51-.49.8-.65 1.31 2.05 2.55 3.89 5.03 5.94 7.58 2.11-2.2 3.95-4.29 6.01-6.31l-1.67-2.24c-.65.56-1.36 1.29-2.22 1.78-1.08.42-2.76-.3-4.11-.52Zm18.01-1.42a46.89 46.89 0 0 0-1.46 5.45l1.35 1.76c1.84-2.1 3.52-4.43 5.68-6.8l-5.57-.4Zm-3.9 10.98-.22-.07.22.07ZM90.47 3.34c-1.08 1.18-1.63 2.16-1.2 3.05 2 4.25-.76 4.72-3.52 5.95l-.48-3c-1.14.59-2.27 1.19-3.36 1.6l3.84 5.21.86.27c.5-.8 1.14-1.36 1.85-2.1-.87-.26-1.9-.77-2.76-1.04l.22-.7c1.13.17 2.32.16 3.67.4.44-.64 1.14-1.37 1.57-2-.1-.4-.48-.72-.59-1.13.43.13.6.37 1.03.5.76-1.66.38-4.25 1.47-6.2.05-.17.37-.45.43-.63l-3.03-.18Zm10.14 20.7c-.16 1.28.06 2.87.1 4.22 1.52-.28 2.77-.47 4.01-.65.43 1.66.81 2.73 1.46 3.7.82-6.42.06-7.03-5.57-7.27Zm10.65 12.29-4.38-1.95c-2.44.2-5.52.94-5.63.53a15.75 15.75 0 0 1-1.56-3.35c-.6.39-.92.67-1.52 1.05l2 2.72s-.06.18.16.24l10.93.76Zm4.9-30.86c-.65 2.08-1.46 3.92-2.06 5.83l1.62 2.42c2.65-2.41 2.82-5.22.44-8.25ZM73.2 18.32c-2.98 4.21-5.86 8.07-8.73 11.94l2.38 3.03s-.06.17.16.24l9.8.59a6.85 6.85 0 0 1 2.86-2.34c3.2-1.1 6.5-1.78 9.58-2.53L87.57 27c-1.83.57-3.67 1.13-5.4 1.35-3.04.58-6.12.57-9.1.97a7.95 7.95 0 0 1 4.77-3.08c2.33-.6 3.79-.72 5.03-3.95.11-.35.44-.63.55-.97l-4-5.45-3.46-1.08c-.33.28-.6.39-.87.5-.6.38-2-1.2-3.35-2.2-.7.73-1.95 1.68-3.57 3.07 2.1.85 3.35 1.43 5.03 2.15Zm147.63-3.53c-2.5.36-4.44.51-6.93.88-.05-1.35.17-2.8 0-4.57l-4.86-.38 15.28 20.97.44-1.38c3.02 2.47 6.16 3.07 4.64 6.4l-.38 1.22 4.32 5.92s-.05.18.16.24l11.63.78c-.92-1.62-1.83-3.24-2.91-5.1 3.19 1.19 5.51 2.1 8.27 3.16-.22-1.59-.43-2.42-.65-4.01 3.09 2.3 5.25 3.74 7.73 5.66l-2.43.95 5.14.27-24.74-33.27-18.88-1.14c1.73 1.3 2.81 2.4 4.16 3.4Zm-111.76-1.82-4.65-6.41c-2.87 2.34-5.52 4.75-8.34 6.92.44.9.54 2.07-.38 3.5-.86-.27-1.68-.72-2.76-1.06-1.57 1.23-2.92 2.52-4.5 3.74l1.85 2.48c.43.14.7.03 1.13.17.11-.35.43-.63.54-.98.93-2.18 3.96-3.52 7.1-5.97-.28 2.4-.66 3.6-.87 5.06.21.07.59.38.8.45a282.6 282.6 0 0 1 4.18-8.03c1.4.06 3.52.14 5.9.13Zm139.58 32.05-.49.04.49-.04Zm-22.13-1.4-.37-.3c-2.38-.75-5.47-1.52-8.5-2.47l.33-1.04c3.63.56 4.98.8 5.52-.18l-21.28-29.14-26.56-1.64 24.09 33.06s-.05.18.16.25l3.46.32c-.05-.6-.1-1.18-.21-1.6.49-.03.76-.14 1.3-.35.75.62 1.67 1.48 2.43 2.1l19.64 1Zm-30.66-9.02c.11-.35.5-.8.6-1.15l16.7 6.57c-.16.52-.32 1.04-.75 1.66a529.17 529.17 0 0 1-16.55-7.08Zm86.74-19.15c.27.65.27 1.41.54 2.07l-1.46.11c-1.2-.75-2.33-1.68-3.51-2.43l-2.82-.12 6 8.17c6.16 2.3 12.54 4.68 16.97 10.26 6.12-2.09 11.85-.67 17.63 2.09l-13.99-19.05-19.36-1.1Zm9.73 2.28c2.92 2.06 4 4.68 4.49 8.45-2.98-2.64-4.87-4.19-6.49-5.84-.7-.79-1.13-1.69-1.56-2.58 1.19-.01 2.75-.48 3.56-.03ZM135.42 6.16c-2.17 3.13-4.5 6.03-8.93 6.54-1.73.22-3.14 2.45-4.77 3.85-.92-.1-1.94-.61-2.76-.3-.27.11-.6.39-1.08.43l8.48 11.6c.6.38.97.7 1.62.9-.22-.07-.7-.04-1.14-.17l6.16 8.4s-.05.18.16.25l3.03.18c2.98-2.69 5.36-2.7 6.22-.15-.32.28-.8.32-1.13.6l18.6 1.25-24.46-33.38Zm9.07 15.8c-3.41 2.55-6.82 5.1-10.18 7.48l-.81-1.2c3.2-2.63 6.66-5.35 9.85-7.97.27.65.81 1.2 1.14 1.69Zm-32.45-4.82-2.7-3.52c-1.3 2.64-2.66 5.46-4.29 9.14 3.3-.68 6.17-1.5 9.26-2.25L113.1 19c-1.18 0-1.45-.65-1.07-1.86Zm36.03-2.83 5.02 6.72c1.9-.74 3.57-1.55 5.2-2.19-3.36-1.43-6.7-2.86-10.22-4.53Zm740.32 112-26.56-1.64 5.94 8.34 26.56 1.64-5.94-8.33ZM22.52 96.78l2.33.16.05-.17c-.7-.03-1.67.04-2.38.01Zm25.27-4.86c1.79.37 3.36.67 4.65 1.08.06-.94.06-1.7.5-2.32l-8.4-.53-1.07.42 5.34 5.68c-.8.31-1.67.8-2.48 1.12-1.52-2-2.98-4.17-4.49-6.16l-.48-.73 1.35-.53-5.84-.3-3.25 5.08c.32.48.91.86 1.24 1.34 1.19-1.53 2.65-3.17 4.33-.93a5.7 5.7 0 0 1 1.24 2.86l10.5.62c.7-.73 1.24-1.7 1.46-3.16-1.73-1.3-3.3-2.37-4.6-3.54ZM9.17 93.16a4.75 4.75 0 0 0-1.52-2 12.91 12.91 0 0 1-3.89-3.5l.59 8 2.7-1.06c.66-.56 1.47-.88 2.12-1.44Zm20.72-3.99-4.65-.31c.6.37 1.46.65 2.05 1.02.38.31.98.69 1.35 1l1.25-1.71Zm63.34 4-13.74-.86c-.27.86-2.6 3-3.25 2.8-1.57-.3-2.7-2-4.21-3.23l-2.11-.1-5.1 7.94 7.9.57c1.52-1.05 3.73-1.31 7.09-.64-.38.45-.7.73-1.3 1.11l7.2.54c1.18-.77 2-.33 3.02.19l2.54.22 3.96-5.81c-.76-1.38-1.24-2.1-2-2.72Zm6.05 6.47-1.35 2.06 4.22.17-.44-.13c-.75-.62-1.67-1.48-2.43-2.1Zm-45.6-.74 3.25.25c-.98-.68-1.52-1.23-2.49-1.92-.38.46-.54.98-.76 1.67Zm2.87-6.15c-.37.45-.6 1.15-.75 1.67a6 6 0 0 1 2.75 4.1l4.6-7.13-3.02-.19c-.06 1.7-2.98 1.17-3.58 1.55Zm938.29 40.2 5.94 8.34 26.56 1.64-5.94-8.34-26.56-1.64ZM121.19 94.88c.11.41.17 1 .44 1.66a13.18 13.18 0 0 1-2.54-1.75l-4.66-.31c-.54 1.73-1.73 3.26-4.44 3.56-.97.08-1.83-.95-2.6-1.57l.17-.52c1.14.16 2.27.33 2.98.36.21-.7.65-1.32.86-2.02l-8.38-.53-1.73 2.5c.97.7 2.27 1.1 3.56 1.5 2 .44 3.68 2.68 5.36 4.16l-.17.52 14.23.83 5.1-7.93-8.18-.46Zm906.91 40.29 5.94 8.34 26.56 1.64-5.94-8.34-26.56-1.64Zm33.32 2.04 5.94 8.34 26.56 1.64-5.94-8.34-26.56-1.64Zm-99.9-6.3 5.94 8.34 26.56 1.64-5.94-8.34-26.56-1.64ZM15.93 88.23c.54 1.31 1.3 2.7 2.54 3.27.17-1.28.28-2.39.5-3.08l-3.04-.19Zm1208.03 65.36c0-.77-.22-1.6-.22-2.36l-1.67-2.23c-2.6 3-6.28 4.13-9.47 2.94 2.38-1.54 4.49-2.98 6.88-4.52l-1.84-.2c-1.3.36-2.76.48-4.55.87l-.81 2.6c-4.22-.94-8.38-2.05-12.39-2.92l-.16-1.76-.92-.1-.54.21c-.11.35 0 .76-.16 1.28l-2.87-.7 5.29 7.37 26.56 1.64-1.13-1.69c-.65-.2-1.35-.23-2-.43Zm-129.27-14.16 5.94 8.34 26.56 1.64-5.94-8.34-26.56-1.64Zm66.37 4.2 5.94 8.33 26.56 1.64-5.94-8.34-26.56-1.64Zm-232.8-14.94 5.93 8.34 13.96.94c-1.84-1.72-1.95-3.66-.32-5.06 1.35 1.76 2.7 3.52 4 5.45l8.87.48-5.95-8.33-26.5-1.82Zm-110.08-11.77-18.2-25.32-.42-6.99-2.81-.12-3.1 3.8.87.27c-.16.52-.16 1.28-.32 1.8-.82.32-1.79.4-2.5.37l-9.37 11.74 9.13 12.57 10 .65 16.72 1.23ZM862.35 186l-12.59-15.18-9.05 13.74 21.64 1.44Zm272.18-26.67-5.09 7.93 26.56 1.64 5.09-7.93-26.56-1.64ZM826.9 152.8l-7.64 11.52 15.56 18.59 7.7-11.7c-2.6-.8-5.2-1.62-8.23-2.57 3.9-.3 7.04-.46 10.45-.73l3.57-5.36c-.16-.24-.54-.55-.7-.79.49-.04 1.03-.25 1.51-.29l4.56-6.96-26.78-1.7Zm80.16 10.22c-4.98-1.55-9.68-3.22-14.44-4.7l-6.77 10.26 15.55 18.59 6.3-9.47c-1.58-1.06-3.36-2.19-5.14-3.32-5.73-2.94-6.65-6.08-6.05-10.27 1.94 2.13 2.8 3.92 4.8 5.12 2.76 1.81 5.58 3.46 8.33 5.27l10.46-15.97-20.72-1.34c4.5 1.6 7.41 3.66 7.68 5.84Zm-46.84-8.17-3.68 5.7c3.51.91 6.49 2.8 9.84 4.22-2.5 1.13-5.47.77-7.36 1.51-1.63.64-2.5 1.9-3.9 3.35l8.26 10.02c.44-.62.87-1.25 1.41-2.22 1.68 2.23 3.25 4.06 4.6 5.81l17.55-26.51-4.65-.31 1.14.92c-9.25-2.32-9.2 2.08-12.18 4.77-2.48-4.2-5.78-2.77-8.22-1.81.98-1.6 1.73-3.27 2.71-4.87l-5.52-.58Zm-86.1 25.45 21.91 1.33-12.58-15.18-9.32 13.85Zm93.86 4.4.38.32.05-.18-.43-.13ZM708.15 165c-3.62-2.09-5.3-5.09-8.38-7.38 2.5.4 4.65 1.07 6 2.06 1.36 1 2.11 2.38 3.09 3.83l11.43-17.57-26.77-1.71-2.72 4.1.65.2a121.74 121.74 0 0 0-3.35 3.9l-1.85 2.86c5.9.9 7.47 2.72 5.78 5.81-.86-.27-1.89-.78-2.75-1.05l12.1 14.45 6.77-9.5Zm187.52 23.05-12.59-15.18-9.05 13.74 21.64 1.44ZM155.38 97.19c-2.33 1.37-4.87 2.67-6.93 3.93-1.51-1.23-2.6-2.34-3.89-3.5l-.22.7c-2.54 1.3-4.54 2.38-6.55 3.47-.7-1.56-1.34-3.28-2.05-4.84l-4.55 6.96 26.56 1.65 5.1-7.94-7.47-.43Zm601.53 46.29 5.1-7.93-26.56-1.65-5.1 7.94 26.56 1.64ZM285.8 108.47c2.76.29 5.08 1.2 7.08 2.4l.87-1.25-7.62-2.96c3.84-.13 6.87.06 9.36.46l.86-1.26-26.56-1.64-5.1 7.93 26.57 1.64.49-.8c-2.55-.98-4.55-2.18-5.95-4.52Zm-33.53-5.16c3.08.77 5.9 1.65 8.76 2.36l-.33 1.04c-3.46.44-6.7.95-10.17 1.39-.7-.03-2.16-.68-2.49-1.16a17.8 17.8 0 0 1-1.88-3.83l-9.8-.59-5.09 7.94 26.56 1.64 5.1-7.93-10.66-.86Zm-82.65-5.29-5.1 7.94 12.12.74c-.16-.24 1.35-1.3 2.22-1.78.49.72 1.24 1.34 1.51 2l10.93.75 5.1-7.94-26.78-1.7Zm33.32 2.05-5.1 7.93 26.56 1.64 5.1-7.93-26.56-1.64Zm325.95 20.83-26.56-1.65-5.1 7.94 26.56 1.64 5.1-7.93Zm-226.1-14.36-.49.8c1.13.93 2.27 1.86 3.62 2.85a20.7 20.7 0 0 1-4.54-1.42l-.54.97c.92.86 1.3 1.93 1.35 3.28-.87-.27-1.9-.78-2.76-1.05l-1.74 2.5 14.45.9c-.7-.79-1.46-1.4-2.17-2.2.28-.1.6-.38.87-.49 1.62.9 3.25 1.78 5.73 2.94l7.9.56 5.1-7.93-26.78-1.7Zm33.32 2.05-5.1 7.93 26.56 1.64 5.1-7.93-26.56-1.64Zm791.69 32.81 5.94 8.34 26.56 1.64-5.94-8.33-26.56-1.65Zm-910.3-49.92 4.16.35a15.75 15.75 0 0 1-3.18-3.48l-.98 3.13ZM162.87 80.1l5.94 8.34 26.56 1.64-5.94-8.34-26.56-1.64Zm40.73 2.65c.16.24.32.48.75.62l-1.78 1.15c-.76-.62-1.25-1.34-2-1.96l-4.17-.35 5.94 8.34 13.96.94c-2.92-2.82-5.78-5.81-8.76-8.46l-3.94-.28Zm-74-4.87 4.8 6.65c-.1-.41-.26-.65-.32-1.24 2.5 1.16 4.82 2.08 7.36 3.06l2.54.22c-.86-1.03-1.95-2.13-2.54-3.27 2 1.2 3.78 2.33 5.84 3.35l15.14.93-5.94-8.33-26.88-1.37Zm114.78 7.34c2.49 1.92 6.54 3.38 12.06 3.97-2.28 4.24-4.93 4.36-9.14 1.14-1.36-1-3.3-1.6-4.98-2.32-.32.28-.86.49-1.19.77.54 1.3.8 2.73 1.3 4.21L258 94.06l-.54-.55c.38-.46.98-.84 1.41-1.47.76.62 1.46 1.41 2 1.96l.92.1-5.94-8.34-11.47-.54Zm-128.79-8.1c-1.4 1.46-1.9 3.79-2.77 5.8-1.67-2.24-2.96-4.17-4.42-6.34l-11.9-.67 2.64 3.68c1.95-.91 3.74-2.07 5.47-3.05a27.37 27.37 0 0 1-4 5.23l1.83 2.48 6.76.4c-.43-.9-.92-1.62-1.35-2.52 1.57 1.06 2.48 1.92 3.67 2.67L129 85.9l-5.94-8.34-7.47-.43Zm173.74 10.93-26.56-1.65 5.94 8.34 26.56 1.64-5.94-8.33Zm-67.67-3.84.54-.21-3.94-.29 2.27 1.86c.59.37.7 1.55 1.18 2.27 1.19 1.52 2.65 2.93 4.1 4.34l.93.1.27-.11c-1.95-2.9-3.78-5.38-5.35-7.96Zm74.38 4.41 5.94 8.34 26.56 1.64-5.94-8.34-26.56-1.64Zm-57.02 1.6c.54-.98-.1-2.7-.43-3.95l-.32-1.25-8.87-.49 3.45 4.9 2.49 3.44.7.03c1.25-.94 2.44-1.71 2.98-2.69ZM79.07 80.73c.22.07.38.31.33.49.32-1.04.86-2.02 1.14-2.89 2.97.36 6.1 1.73 7.9.57.91-.66 2-1.09 2.75-1.23l-1.5-2-1.14-.16a7.82 7.82 0 0 1-1.47 1.63c-.27-.65-.32-1.24-.59-1.9l-10.22-.72c1.02.51 2 1.2 3.02 1.71-.1.35-.43.63-.54.97-2.05-1.02-3.9-1.98-5.94-3l-3.25-.25c.86.27 1.9.78 2.65 1.4 2.54 1.75 4.6 3.53 6.86 5.38Zm815.86 45.91 5.94 8.34 9.09.55-2.1-2.37c1.88.78 4 1.63 6.1 2.48l13.52.8-5.94-8.33-26.6-1.47ZM929 94.45l-13.55 16.71 9.13 12.57 26.56 1.64L929 94.44Zm-65.73-3.24c-.43-.13-.92-.1-1.46.12l-8.23 10.38c1.02.5 2 1.2 2.92 2.05 1.67 1.48 2.7 3.52 4.21 5.51-.54.22-1.03.25-1.57.47-1.94-1.38-4.1-2.81-6.65-4.56-.43 2.15-.7 3.78-.92 5.23l6.8 9.37 26.56 1.64-21.66-30.2Zm-5.3 7.87c.1-.35.21-.7.53-.98 8.33 1.47 8.33 1.47 7.84 3.8-2.8-.89-5.62-1.77-8.38-2.82Zm5.45 5.33c5.84 4.1 6.8 6.32 3.07 9.15.12-3.4-6.21-5.18-3.07-9.16ZM34.82 78.7c0-2.28.55-4.78 1.37-6.62l-3.47-.32c-.6.38-1.24.94-1.84 1.33l3.95 5.61Zm30.25-4.82-1.84-.2 5.94 8.34 4.87.38c-.22-.07-.43-.14-.6-.38-2.97-2.64-5.67-5.4-8.37-8.14Zm-17.96 4.28c-.5.8-.76 1.67-1.2 2.3l16.55.98-2.16-2.96c-.75.15-1.94.15-3.46-.32.17-.52.27-.87.17-1.28l-.97-3.73h-1.2c0 .77.06 1.35.38 3.36a48.23 48.23 0 0 1-3.89-3.5l-1.4-.06-.87 2.77a23.96 23.96 0 0 0-2.16-2.96l-1.2.01A6.2 6.2 0 0 1 47 77c-1.4-.83-2.6-1.58-3.79-2.33l-.05.17c-1.84 3.62-4.28 4.57-7.96 4.18l1.03 1.27 3.95.29c1.13-.6 2.27-1.2 3.62-1.73.7-.73 2.06-.5 3.3-.68Zm-28.3.1c-.97-.68-2-1.2-2.97-1.88 1.03-1.01 2.22-2.54 3.2-2.62 1.46-.11 3.08.77 4.8 1.32l-2.6 3.75 7.9.57-2.8-3.93c-.7-.03-1.63-.12-2.33-.15.06-.94.11-1.87 0-3.05L23 71.01l-1.63-.13-.21.7c-1.52.28-2.92.22-4.28.75-1.35.53-2.49 1.89-4.6 3.33l1.63-5.21-11.41-.71.48 6.81c1.02.52 2.05 1.03 2.86 1.47l11.63.78c.76-.14 1.08-.42 1.35-.53Zm67.94 4.5c-.05.17-.32.28-.38.45l7.47.43c-.22-.07-.44-.14-.6-.38-2.21-2.02-4.75-3.01-6.49-.5Zm1031.66 37.03c5.13 1.8 4.32 2.87-.01 8.38l5.94 8.33 10.27.55a77.57 77.57 0 0 1-6.27-2.72c.6-.39 1.25-.95 1.63-1.4 2.43 1.33 5.08 2.73 7.89 4.38l12.82.77-22.36-31-9.91 12.7Zm-758.6-20.18 1.78.37-5.46-7.62-26.56-1.64 5.94 8.34 24.02 1.42c-.16-.24.16-.52.27-.87Zm-24.67-6.2c6.28-1.08 10.44.8 13.74 4.68-4.06-1.45-8.38-2.8-13.74-4.67Zm360.25 20.52 5.94 8.34 26.78 1.7-5.95-8.33-26.77-1.71Zm-6.76-.4-26.56-1.65 5.94 8.34 26.78 1.71-6.16-8.4Zm-33.05-2.15-26.56-1.64 5.94 8.33 26.56 1.64-5.94-8.33Zm172.98 11.07 5.94 8.33 26.56 1.65-5.94-8.34-26.56-1.64Zm-149.12 33.36c-.87-.28-1.68-.72-2.55-1 1.2 0 2.12.1 3.3.09l7.21-10.9-11.9-.67c1.4.82 2.54 1.75 3.95 2.57-.81.32-2 1.09-2.22 1.02a75.49 75.49 0 0 1-6.16-3.83l-10.5-.62-3.25 5.08a7.74 7.74 0 0 1 3.95 3.33c-2.06.5-4.22.59-6.23.15l-1.9 3.03 15.57 18.58 10.73-16.84Zm-23.1-1.33c4.81-.2 11.25-2.57 10.49 4.43-4-1.63-7.36-3.06-10.49-4.43Zm105.42-36.36 5.94 8.34 26.56 1.64-5.94-8.34-26.56-1.64Zm-6.54-.33-26.56-1.64 5.94 8.33 26.55 1.64-5.93-8.33Zm66.58 4.26-20.01-1.31-6.76-.4 5.94 8.33h1.19l25.36 1.65-5.72-8.27ZM395.94 94.92l5.94 8.34 26.56 1.64-5.94-8.33-26.56-1.65ZM429 97.07l5.94 8.34 26.56 1.64-5.94-8.34L429 97.07Zm-66.37-4.19 5.94 8.34 26.56 1.64-5.94-8.34-26.56-1.64Zm126.47 7.95-26.56-1.65 5.94 8.34 26.56 1.64-5.94-8.33Zm132.95 8.45-26.56-1.64 5.94 8.33 26.78 1.71-6.16-8.4Zm-99.69-6.24-26.56-1.64 5.94 8.34 26.56 1.64-5.94-8.34Zm6.55.33 5.94 8.34 26.56 1.64-5.94-8.33-26.56-1.64Zm59.82 3.86-20.5-1.27-6.27-.44 5.94 8.34 26.77 1.71-5.94-8.34Z"/></svg>