<svg xmlns="http://www.w3.org/2000/svg" width="310" height="175" fill="none" viewBox="0 0 310 175"><g fill="#DEB905" fill-rule="evenodd" clip-path="url(#a)" clip-rule="evenodd" opacity=".3"><path d="M310 36.55c.2 8.17-3.88 14.7-12.68 9.2-3.67-2.26-1.83-5.32-1.43-9.2 4.7-5.51 8.8-4.29 14.11 0ZM310 69.84c-1.23 10.62-7.36 11.43-14.72 5.1 1.23-10.2 7.77-13.27 14.72-5.1ZM309.39 100.67c.2 6.74-2.46 13.27-10.43 9.19-4.09-2.25-2.86-4.5-2.45-8.58 4.5-5.3 7.36-4.28 12.88-.6ZM309.39 133.34c-1.03 9.4-5.93 12.25-13.5 5.72 0-9.8 6.14-11.84 13.5-5.72ZM308.16 164.79c.2 8.37-3.88 11.23-10.84 6.33 0-8.58 3.69-10.82 10.84-6.33ZM294.67 84.54c0 6.53-.2 7.35-5.11 11.43-4.3 0-8.8-1.02-10.84-5.1-.4-11.44 8.18-12.05 15.95-6.33ZM294.06 52.68c.4 11.03-6.55 13.28-14.72 7.15 0-11.23 5.92-13.48 14.72-7.15ZM293.44 117.82c-1.43 9.8-6.54 10.21-13.5 4.5 1.44-9.4 6.55-10.21 13.5-4.5ZM292.83 149.88c-1.23 8.99-5.52 10-12.27 4.5 1.23-8.78 5.52-10.01 12.27-4.5ZM278.72 69.22c-1.22 10.83-8.38 13.28-15.94 5.72.82-10.41 8.18-13.27 15.94-5.72ZM278.72 101.9c-.82 8.16-10.83 15.31-15.33 5.1-.2-11.23 8.18-13.27 15.33-5.1ZM277.5 37.16c-.82 6.74-4.5 13.28-11.45 7.36-3.07-2.66-2.05-1.84-1.43-6.74 4.7-5.52 6.54-5.1 12.88-.62ZM276.68 133.96c-1.23 8.98-5.52 10.2-12.27 4.49 1.43-8.99 5.52-10 12.27-4.5ZM276.68 166.01c-.82 5.72-3.68 11.24-10.02 6.74-3.06-1.22-3.47-3.47-1.63-6.74 4.7-5.5 6.54-4.49 11.65 0ZM261.96 52.07c.4 11.23-5.72 14.7-14.72 7.76 0-10.82 5.93-13.68 14.72-7.76ZM261.96 83.93c.4 9.8-4.9 15.52-14.1 8.98-5.53-11.43 7.15-13.48 14.1-8.98ZM261.96 117.42c.2 6.53-5.72 15.31-12.67 8.16-4.1-4.28-.62-9.6 2.45-12.66 4.9.41 6.54 1.23 10.22 4.5ZM260.73 149.27c.2 8.58-5.1 11.44-12.06 6.53-.2-8.37 4.7-13.88 12.06-6.53ZM246.63 37.98c-1.02 10-16.36 14.5-15.33 2.25.81-10 10.42-9.2 15.33-2.25ZM246.01 101.28c-1.22 10.42-6.95 12.46-14.71 5.72-.2-10.62 7.76-12.66 14.71-5.72ZM246.01 133.34c-1.02 10-6.74 12.66-14.71 6.54 0-9.8 7.56-15.11 14.71-6.54ZM245.4 68.61c.41 10.21-5.52 13.07-13.5 6.54-.2-8.99 6.75-13.07 13.5-6.54ZM243.36 165.4c.2 7.76-3.27 10.21-9.61 5.72 0-6.13 4.09-11.44 9.6-5.72ZM230.07 53.9c-1.43 12.67-17.78 11.04-13.5-.4 2.46-6.94 10.02-4.29 13.5.4ZM230.07 116.6c-1.02 9.8-5.93 14.3-14.72 7.55-.2-9.8 6.95-15.1 14.72-7.55ZM229.25 149.88c-.82 5.31-1.02 9.2-7.56 8.17-1.43-.2-5.32-1.02-5.32-3.06-.2-10 5.93-11.03 12.88-5.1ZM228.64 85.36c0 5.3-1.64 10.2-7.77 8.57-9.4-2.45-2.45-15.52 7.77-8.57ZM213.3 37.16c.21 7.15-7.56 15.52-13.08 6.74-6.13-9.6 7.36-14.5 13.09-6.74ZM213.3 133.34c-1.02 9.4-5.72 12.25-13.49 5.72-.4-10 7.16-11.03 13.5-5.72ZM212.7 69.22c0 5.31-1.64 10.21-7.57 8.58-9.4-2.45-2.86-15.52 7.56-8.58ZM212.7 101.28c.2 8.78-4.91 11.64-12.27 6.33 0-8.16 4.9-13.68 12.26-6.33ZM212.7 166.01c-1.23 8.79-5.53 10.01-12.27 4.5 1.22-8.99 5.52-10.21 12.26-4.5ZM196.54 52.07c-.4 4.7-.4 6.13-3.27 10.21-1.63 0-9.6 0-9.6-3.27 0-8.16 6.13-13.88 12.87-6.94ZM196.54 85.36c-.81 7.35-4.7 12.04-12.26 6.33.2-8.58 5.1-13.69 12.26-6.33ZM196.54 148.66c.41 8.98-4.29 12.66-12.26 7.15.2-7.56 5.52-14.1 12.26-7.15ZM195.32 117.82c0 6.33-3.48 8.58-9 5.1 0-5.5 3.48-10.61 9-5.1ZM181.21 37.98c-.81 6.33-8.58 13.48-12.88 5.1 1.03-7.96 6.34-12.86 12.88-5.1ZM181.21 69.22c.2 10.21-14.92 12.26-13.29 2.25 1.23-6.74 10.23-8.78 13.3-2.25ZM181.21 166.01c-.61 4.7-.2 5.31-3.88 8.99-1.64 0-9-.2-9-3.27-.4-6.94 8.8-14.09 12.88-5.72ZM165.27 53.3c0 5.71-3.48 13.27-10.63 8.16-3.68-2.65-2.86-2.85-2.25-7.55 4.7-5.51 6.54-5.1 12.88-.61ZM163.84 85.97c-.41 3.27-.82 7.96-5.32 7.55-1.43 0-5.52-1.22-5.52-3.06 0-7.96 5.11-10.41 10.84-4.5ZM163.84 149.88c0 7.56-4.5 9.8-10.84 5.72 0-7.76 4.09-12.66 10.84-5.72ZM163.22 117.82c0 6.54-9.6 9.6-9.6 3.88.4-6.94 4.5-7.35 9.6-3.88ZM149.12 37.98c-1.43 9.8-6.54 10.21-13.5 4.5 1.44-9.8 6.75-10.42 13.5-4.5ZM147.9 69.84c-.42 3.26-.83 7.96-5.32 7.55-1.44 0-5.52-1.22-5.52-3.06 0-8.17 4.9-8.99 10.83-4.5ZM147.9 133.96c0 7.55-4.5 9.8-10.84 5.71 0-7.96 3.88-12.66 10.83-5.71ZM147.28 101.28c.2 7.76-3.27 10.21-9.61 5.72 0-6.13 3.88-11.43 9.6-5.72ZM131.95 53.9c-.82 5.32-6.95 12.26-10.84 4.5 0-7.96 5.32-10 10.84-4.5ZM131.95 117.42c.2 9.18-4.3 11.02-11.66 5.1-.4-8.78 5.73-8.78 11.66-5.1ZM131.33 85.36c.2 7.76-3.27 10.2-9.6 5.71 0-6.12 3.88-11.43 9.6-5.71ZM131.33 149.88c0 6.54-9.6 9.6-9.6 3.88.4-7.14 4.29-7.35 9.6-3.88ZM117.23 4.7c.4 10-5.52 12.86-13.5 7.14 0-9.19 5.73-14.9 13.5-7.14ZM117.23 166.01c0 6.13-5.52 12.05-11.25 6.34-2.45-2.45-1.22-4.7-1.02-7.56 4.7-6.13 7.57-2.86 12.27 1.22ZM115.8 36.55c.2 6.74-.62 10-7.77 8.99-7.97-6.74-.61-13.89 7.77-8.99ZM115.8 69.84c-.82 5.3-6.95 12.25-10.84 4.49.2-7.76 5.32-10 10.84-4.5ZM115.8 100.67c.2 6.33-1.44 12.05-8.8 8.78-7.76-3.47 1.44-16.13 8.8-8.78ZM115.8 133.96c-.82 5.3-6.95 12.25-10.84 4.49.2-7.97 5.32-10 10.84-4.5ZM101.08 149.88c.2 8.17-5.11 10.83-12.27 6.33-5.1-10.41 5.73-12.04 12.27-6.33ZM100.46 20.62c.2 5.72-6.33 15.93-11.44 6.74-5.32-9.39 6.13-10 11.44-6.74ZM100.46 85.97c-1.02 7.35-4.5 10.82-11.65 6.33-4.7-9.8 5.93-11.23 11.65-6.33ZM99.85 53.3c.2 8.16-4.3 10.41-10.83 5.71 0-8.37 3.47-10 10.83-5.71ZM99.85 117.42c0 7.75-4.09 10.61-10.83 6.33 0-8.58 3.06-11.03 10.83-6.33ZM85.13 4.7c.2 6.74-2.45 13.27-10.42 9.19-8.59-4.5 1.63-17.97 10.42-9.2ZM85.13 133.96c0 1.63 0 8.37-2.66 8.37-1.83.2-10.22.2-10.22-3.07-.81-9.6 6.95-12.25 12.88-5.3ZM84.52 69.22c-.82 7.36-4.9 12.26-12.06 6.33-.2-9.18 4.09-11.43 12.06-6.33ZM83.9 36.55c.21 8.17-3.26 11.85-10.83 6.94-.2-8.37 2.45-11.84 10.84-6.94ZM83.9 100.67c.21 8.17-3.26 11.84-10.83 7.15-3.88-7.76 5.52-12.25 10.84-7.15ZM83.9 165.4c.21 9.2-4.29 11.03-11.44 5.1-.41-7.34 5.93-10.4 11.45-5.1ZM68.98 53.9c-1.43 10.01-6.54 10.42-13.49 5.11.2-10.41 7.16-10.61 13.5-5.1ZM68.98 117.42c.41 10.82-5.93 11.64-13.49 5.71.2-10.2 5.52-11.43 13.5-5.71ZM68.37 20.62c.2 8.99-4.3 12.46-12.27 6.95.2-9.4 3.89-12.46 12.27-6.95ZM68.37 85.97c-1.02 6.33-4.09 11.23-10.43 6.53-3.06-2.24-1.84-2.04-1.22-6.53 4.7-5.52 6.54-4.29 11.65 0ZM67.76 148.66c.2 6.12-1.43 12.05-8.8 8.78-7.97-3.47 1.44-16.13 8.8-8.78ZM53.04 5.1c-1.02 8.17-5.11 12.67-12.88 7.15C35.26 2.65 46.7 0 53.04 5.1ZM53.04 36.55c.2 10-5.52 13.07-13.5 6.94 0-8.78 5.73-14.5 13.5-6.94ZM53.04 101.28c-.41 3.68.82 7.97-3.89 9.4-2.24.6-9.6-1.23-9.6-4.3-.2-9.38 6.95-11.63 13.49-5.1ZM52.42 69.22c-.6 5.52-7.76 14.91-12.26 5.72 0-9.19 4.9-10.62 12.26-5.72ZM52.42 133.96c-1.02 7.35-4.5 10.82-11.44 6.33-5.11-9.6 5.72-11.23 11.44-6.33ZM51.2 166.01c0 7.97-10.02 7.97-8.8 1.03 1.03-5.72 5.32-3.47 8.8-1.03ZM37.7 21.24c-1.02 8.16-2.65 9.6-10.83 9.6-8.38-9.8 1.64-18.8 10.84-9.6ZM37.1 85.36c-1.03 11.23-5.94 12.25-14.11 5.1 0-10 7.36-10.82 14.1-5.1ZM36.27 52.68c.2 7.15-3.27 14.1-10.63 7.76-3.47-3.06-2.45-5.51.2-8.78 4.1-4.29 6.35-2.04 10.43 1.02ZM36.27 117.82c-.81 6.33-4.08 11.24-10.42 6.54-3.07-2.25-1.84-1.84-1.23-6.54 4.9-5.3 6.54-4.08 11.65 0ZM35.05 149.27c0 7.56-3.68 9.4-9.61 5.1 0-6.12 4.5-10.4 9.6-5.1ZM22.17 3.88c-.61 7.96-5.93 17.97-14.31 8.98-2.45-2.65-2.04-7.35.4-10.2 4.71-5.11 9.62-1.84 13.91 1.22ZM20.94 37.16c.2 7.36-4.09 13.07-11.44 7.76-3.07-2.24-1.64-4.28-1.23-7.76 4.5-5.3 7.36-4.28 12.67 0ZM20.94 68.61c.2 7.97-4.09 15.11-11.85 8.37-7.57-6.53 4.09-16.13 11.85-8.37ZM20.33 101.28c-.61 5.72-7.36 14.7-12.27 5.72 0-9.19 4.91-10.62 12.27-5.72ZM19.72 133.96c-.2 6.94-4.7 9.39-10.22 5.71-4.3-7.96 5.1-10.82 10.22-5.71ZM19.1 166.01c0 6.54-9.6 9.4-9.6 3.89.4-7.36 4.5-7.56 9.6-3.89ZM6.22 21.85c-.6 4.9-.4 5.51-3.88 9.6-4.3.2-9.81.4-11.04-4.5-2.25-11.02 9-13.06 14.92-5.1ZM5.61 53.9C4.38 63.92-1.54 65.56-9.1 59.64-9.1 49-1.13 46.15 5.61 53.9ZM4.38 84.54C4.58 93.52.1 97-7.68 91.48c-.2-9.19 3.89-11.84 12.06-6.94ZM3.77 116.6c.2 8.37-3.88 11.43-10.83 6.33-.2-6.33 4.7-12.46 10.83-6.33ZM2.95 149.27c0 7.56-3.68 9.4-9.6 5.1.2-5.92 4.5-10.4 9.6-5.1Z"/></g><defs><clipPath id="a"><path fill="#fff" d="M-152 0h462v175h-462z"/></clipPath></defs></svg>