<svg xmlns="http://www.w3.org/2000/svg" width="22" height="22" fill="none" viewBox="0 0 22 22"><g fill="#FDFEFF" clip-path="url(#a)"><path d="M21.98 6.47a8.04 8.04 0 0 0-.51-2.67c-.28-.74-.71-1.4-1.28-1.95-.55-.56-1.21-1-1.94-1.27-.7-.27-1.5-.46-2.67-.51A75.07 75.07 0 0 0 11.04 0C8.05 0 7.68.01 6.51.06a8.04 8.04 0 0 0-2.67.52c-.74.28-1.4.7-1.95 1.27-.56.55-1 1.21-1.27 1.94C.35 4.5.16 5.3.1 6.46A75.07 75.07 0 0 0 .04 11c0 2.99.01 3.36.06 4.54.05 1.17.24 1.97.51 2.67.28.73.72 1.4 1.28 1.95.55.55 1.21.99 1.94 1.26.7.27 1.5.46 2.67.52 1.18.05 1.55.06 4.54.06 2.98 0 3.36-.01 4.53-.06a8.04 8.04 0 0 0 2.67-.52 5.63 5.63 0 0 0 3.22-3.21c.27-.7.46-1.5.51-2.67.05-1.18.06-1.55.06-4.54 0-2.98 0-3.36-.05-4.53ZM20 15.45a6.03 6.03 0 0 1-.38 2.04 3.65 3.65 0 0 1-2.09 2.1c-.39.14-.97.32-2.04.37-1.16.05-1.51.06-4.44.06-2.94 0-3.3-.01-4.45-.06a6.03 6.03 0 0 1-2.04-.38 3.39 3.39 0 0 1-1.26-.82 3.42 3.42 0 0 1-.82-1.26 6.05 6.05 0 0 1-.38-2.05 77.4 77.4 0 0 1-.07-4.44c0-2.93.02-3.29.07-4.44.04-1.08.22-1.66.38-2.04.17-.48.45-.92.82-1.27.36-.36.79-.64 1.26-.82.4-.15.98-.33 2.05-.38C7.77 2.01 8.1 2 11.05 2c2.94 0 3.29.01 4.44.06 1.08.05 1.66.23 2.04.38.48.18.92.46 1.27.82.36.36.64.79.82 1.27.15.38.33.97.38 2.04.05 1.16.06 1.5.06 4.44 0 2.94-.01 3.28-.06 4.44Z"/><path d="M11.04 5.35a5.65 5.65 0 1 0 0 11.3 5.65 5.65 0 0 0 0-11.3Zm0 9.32a3.67 3.67 0 1 1 0-7.34 3.67 3.67 0 0 1 0 7.34ZM18.24 5.13a1.32 1.32 0 1 1-2.64 0 1.32 1.32 0 0 1 2.64 0Z"/></g><defs><clipPath id="a"><path fill="#fff" d="M0 0h22v22H0z"/></clipPath></defs></svg>