<svg width="135" height="66" viewBox="0 0 135 66" fill="none" xmlns="http://www.w3.org/2000/svg">
<g clip-path="url(#clip0_141_6953)">
<path d="M117.619 65.9233H127.305C131.042 65.9233 134.169 62.8571 134.169 59.0244V57.2613C134.169 53.5052 131.118 50.3624 127.305 50.3624H117.619C113.882 50.3624 110.755 53.4286 110.755 57.2613V59.0244C110.755 62.8571 113.806 65.9233 117.619 65.9233Z" fill="white"/>
<path fill-rule="evenodd" clip-rule="evenodd" d="M116.933 0.383275C117.696 0.383275 118.382 0.766551 118.687 1.45645C118.84 1.76307 118.916 2.06969 118.916 2.45296H120.136C120.899 2.45296 121.585 2.83624 121.89 3.52613C122.271 4.21603 122.195 4.98258 121.814 5.59582L110.221 22.8432L108.849 29.8188C109.84 29.8188 110.603 30.5087 110.832 31.4286L110.908 31.8118H112.052C113.043 31.8118 113.806 32.5017 114.035 33.4216V33.5749L115.713 30.7387C116.094 30.1254 116.704 29.7422 117.467 29.7422H124.254C124.865 29.7422 125.398 29.9721 125.78 30.5087C126.085 30.892 126.237 31.3519 126.237 31.8118H127.458C128.068 31.8118 128.602 32.0418 128.983 32.5784C129.364 33.0383 129.517 33.6516 129.441 34.2648L125.398 55.1916C125.246 56.1882 124.407 56.8014 123.415 56.8014H121.814C121.966 56.9547 122.119 57.1847 122.271 57.4146C122.577 58.1045 122.5 58.8711 121.966 59.4843V59.561L121.814 60.3275C121.738 60.7108 121.585 61.0941 121.356 61.4007C121.433 61.784 121.433 62.1672 121.28 62.5505L121.051 63.4704C121.128 64.007 121.051 64.4669 120.746 64.9268C120.365 65.5401 119.755 65.8467 119.068 65.8467H117.39C117.238 65.8467 117.162 65.8467 117.009 65.8467C116.857 65.8467 116.78 65.8467 116.628 65.8467H114.95C114.874 65.8467 114.721 65.8467 114.645 65.8467C114.569 65.8467 114.416 65.8467 114.34 65.8467H112.662C112.586 65.8467 112.586 65.8467 112.509 65.8467C112.433 65.8467 112.357 65.8467 112.357 65.8467H110.679C110.603 65.8467 110.603 65.8467 110.526 65.8467C110.221 65.9233 109.993 65.9233 109.688 65.9233C109.154 65.9233 108.696 65.8467 108.238 65.6167C107.933 65.77 107.628 65.8467 107.323 65.8467H105.645C105.417 65.8467 105.188 65.8467 104.959 65.77C104.73 65.8467 104.501 65.8467 104.273 65.8467H102.595C102.518 65.8467 102.366 65.8467 102.29 65.8467C102.213 65.8467 102.061 65.8467 101.985 65.8467H100.307C100.002 65.8467 99.6966 65.77 99.4678 65.6934H99.3916C98.8577 65.8467 98.3239 65.9233 97.79 65.9233C97.2561 65.9233 96.7223 65.8467 96.1884 65.6934C96.1884 65.6934 96.1121 65.6934 96.1121 65.6167C95.8833 65.6934 95.5783 65.77 95.2732 65.77H93.8241C93.6716 65.77 93.5953 65.77 93.4428 65.77C93.2903 65.77 93.214 65.77 93.0615 65.77H92.1463C91.9937 65.77 91.9175 65.77 91.7649 65.77C91.6124 65.77 91.5361 65.77 91.3836 65.77H89.9346C89.6295 65.77 89.3244 65.6934 89.0956 65.6167H89.0194C88.4855 65.77 87.9516 65.8467 87.4178 65.8467C86.8839 65.8467 86.35 65.77 85.8162 65.6167C85.8162 65.6167 85.7399 65.6167 85.7399 65.5401C85.5111 65.6167 85.206 65.6934 84.901 65.6934H83.2231C83.1468 65.6934 82.9943 65.6934 82.918 65.6934C82.8418 65.6934 82.6892 65.6934 82.613 65.6934H80.9351C80.8589 65.6934 80.7063 65.6934 80.6301 65.6934C80.5538 65.6934 80.4013 65.6934 80.325 65.6934H78.7997C78.5709 65.6934 78.4183 65.6934 78.1895 65.6167C78.037 65.6934 77.8082 65.6934 77.5794 65.6934H75.9778C75.9015 65.6934 75.749 65.6934 75.6727 65.6934C75.5965 65.6934 75.4439 65.6934 75.3677 65.6934H69.0376C68.6562 65.6934 68.2749 65.6167 67.9698 65.3868C67.6648 65.6167 67.2834 65.6934 66.9021 65.6934H65.3768C65.148 65.6934 64.9955 65.6934 64.7667 65.6167C64.3853 65.9233 64.2328 65.9233 64.004 65.9233H62.4024C62.3261 65.9233 62.1736 65.9233 62.0973 65.9233C62.0211 65.9233 61.8685 65.9233 61.7923 65.9233H60.1144C59.8093 65.9233 59.5805 65.8467 59.3517 65.77H59.2755C58.7416 65.9233 58.1315 65.9233 57.5976 65.9233H55.6147C55.5384 65.9233 55.3859 65.9233 55.3096 65.9233C55.2334 65.9233 55.0808 65.9233 55.0046 65.9233H53.3267C53.2504 65.9233 53.0979 65.9233 53.0216 65.9233C52.9454 65.9233 52.7928 65.9233 52.7166 65.9233H51.0387C50.7336 65.9233 50.5048 65.8467 50.276 65.77H50.1998C49.5896 65.9233 48.9795 65.9233 48.4456 65.9233H46.4627C46.3865 65.9233 46.2339 65.9233 46.1577 65.9233C46.0814 65.9233 46.0051 65.9233 45.8526 65.9233H44.1747C43.8697 65.9233 43.6409 65.8467 43.4121 65.77C43.3358 65.77 43.3358 65.77 43.2595 65.77C42.7257 65.9233 42.1155 65.9233 41.5817 65.9233H41.2766C41.2003 65.9233 41.2003 65.9233 41.1241 65.9233C41.0478 65.9233 41.0478 65.9233 40.9715 65.9233H39.4462C39.2174 65.9233 39.0649 65.9233 38.8361 65.8467C38.6836 65.9233 38.4548 65.9233 38.3022 65.9233H36.7006C36.3956 65.9233 36.0905 65.8467 35.7854 65.6934C35.2516 65.8467 34.7177 65.9233 34.1076 65.9233C33.8025 65.9233 33.4974 65.9233 33.1924 65.9233H33.1161C32.6585 65.8467 32.2009 65.6934 31.8196 65.4634C31.5908 65.5401 31.4382 65.6934 31.2094 65.77C30.6756 65.9233 30.1417 66 29.6079 66C29.074 66 28.5401 65.9233 28.0063 65.77C27.93 65.77 27.93 65.77 27.8537 65.6934C27.6249 65.8467 27.3199 65.8467 27.0148 65.8467H25.4132C25.3369 65.8467 25.1844 65.8467 25.1081 65.8467C25.0319 65.8467 24.8793 65.8467 24.8031 65.8467H23.7353C23.5828 65.8467 23.5065 65.8467 23.4303 65.8467C23.354 65.8467 23.2015 65.8467 23.1252 65.8467H21.5236C20.9135 65.8467 20.3034 65.5401 19.922 65.0801C19.617 64.6969 19.4644 64.2369 19.4644 63.777H18.2442C17.634 63.777 17.0239 63.4704 16.6426 63.0105C16.2612 62.4739 16.1087 61.9373 16.2612 61.2474L17.9391 54.3484C18.0154 54.0418 18.1679 53.7352 18.3967 53.5052C18.2442 53.122 18.1679 52.662 18.2442 52.2787L22.3626 31.4286C22.4388 31.0453 22.5914 30.662 22.8964 30.4321C20.9898 31.1986 18.9306 31.5052 16.7951 31.5052C13.6682 31.5052 10.6175 30.892 7.79568 29.5122C6.88048 29.0523 6.04155 28.5923 5.27889 27.9791C5.05009 27.8258 4.82129 27.6725 4.59249 27.4425C3.67729 26.9826 2.83836 26.5226 2.0757 25.9094C1.69437 25.6028 1.31304 25.2962 0.931703 25.0662C0.0927732 24.453 -0.136026 23.2265 0.474105 22.3066L4.59249 16.0976C4.82129 15.7909 5.05009 15.561 5.35515 15.4077C4.59249 14.2578 4.13489 12.9547 4.13489 11.4983C3.90609 6.74565 8.02448 2.14634 12.4479 0.766551C15.8036 -0.30662 20.1508 -0.15331 23.5828 0.61324C25.0319 0.919861 26.6335 1.76307 28.0063 2.60627L28.1588 1.76307C28.3113 0.766551 29.1503 0.15331 30.1417 0.15331H37.9972C38.6073 0.15331 39.1412 0.383275 39.5225 0.919861C39.8275 1.30314 39.9801 1.76307 39.9801 2.223H41.2003C41.8105 2.223 42.3443 2.45296 42.7257 2.98955C42.8019 3.0662 42.8782 3.21951 42.9545 3.29617L43.2595 1.83972C43.4121 0.843206 44.251 0.229965 45.2425 0.229965H53.0979C53.708 0.229965 54.2419 0.45993 54.6232 0.996516C54.6995 1.07317 54.6995 1.14983 54.7758 1.14983C55.1571 0.61324 55.7672 0.229965 56.4536 0.229965H64.3091C64.9192 0.229965 65.453 0.45993 65.8344 0.996516C65.9106 1.07317 65.9106 1.14983 65.9869 1.14983C66.3682 0.61324 66.9784 0.229965 67.6648 0.229965H74.0711C74.8338 0.229965 75.5202 0.61324 75.8253 1.30314L76.3591 2.29965H77.2743C78.037 2.29965 78.7234 2.68293 79.0285 3.37282L80.6301 6.43902L81.5452 1.83972C81.6978 0.843206 82.5367 0.229965 83.5282 0.229965H90.5447C90.8497 0.229965 91.1548 0.30662 91.4599 0.45993C91.6124 0.45993 91.7649 0.383275 91.8412 0.383275H99.6966C100.612 0.383275 101.375 0.919861 101.603 1.83972L101.756 2.45296H102.9C103.815 2.45296 104.578 2.98955 104.806 3.90941L105.035 4.5993L107.247 1.30314C107.628 0.766551 108.238 0.383275 108.925 0.383275H116.933Z" fill="white"/>
<path fill-rule="evenodd" clip-rule="evenodd" d="M30.0652 2.22297L25.2604 27.3658H33.1158L34.87 18.2439H42.1153L40.2849 27.2892H48.1403L53.0214 2.22297H45.2422L43.3355 11.9582H36.0902L37.9969 2.22297H30.0652ZM51.6486 27.2892H59.4277L64.3088 2.22297H56.4534L51.6486 27.2892ZM67.6645 2.22297L62.7835 27.3658H69.9525L72.393 14.6411L79.257 27.2892H85.8922L90.697 2.22297H83.6804L81.0874 15.331L74.1471 2.22297H67.6645ZM105.035 19.9303L116.856 2.37628H109.001L108.238 3.5261L102.594 11.8815L99.7726 2.37628H91.9172L97.1796 19.9303L95.7305 27.2892H103.586L105.035 19.9303ZM16.6423 19.777C16.3372 21.4634 14.0493 21.3867 11.1511 20.3902C8.25301 19.3937 6.19382 17.2474 6.19382 17.2474L2.07544 23.4564C2.6093 23.8397 6.42262 27.5191 13.5154 27.4425C21.3708 27.3658 24.574 22.7665 24.8028 18.1672C25.0316 13.5679 21.7522 12.7247 19.0828 11.8048C16.4135 10.885 14.2018 10.5784 14.3543 9.27523C14.5069 7.97209 16.1084 7.81878 18.6252 8.58533C21.142 9.35189 23.6588 11.0383 23.6588 11.0383L27.7009 4.82924C27.7009 4.82924 25.1841 2.98952 23.0487 2.52959C20.9132 2.06965 16.566 1.60972 13.0578 2.6829C9.47328 3.83272 5.96502 7.58882 6.04129 11.4216C6.19382 15.2543 9.32074 16.3275 11.5325 17.094C13.6679 17.8606 16.9474 18.0906 16.6423 19.777Z" fill="#FFD300"/>
<path fill-rule="evenodd" clip-rule="evenodd" d="M45.4709 52.7387H51.8773C53.2501 45.7631 54.6229 38.7875 55.9194 31.8118H49.4368C48.064 38.7875 46.7675 45.7631 45.4709 52.7387ZM68.6559 46.5296L69.5711 41.7003H75.1385L73.537 50.2091C73.537 50.2091 69.8762 52.8153 64.2325 52.8153C58.5887 52.8153 55.1568 48.8293 55.6144 43.77C56.072 38.7108 59.1226 33.5749 65.9103 31.9652C69.3423 31.1986 72.0116 31.8885 73.9183 32.8084C75.825 33.7282 76.8164 34.8014 76.8164 34.8014L72.2404 39.4774C72.2404 39.4774 70.105 36.8711 67.0543 37.4077C64.0037 37.8676 62.5546 40.8571 62.3258 42.8502C62.1733 44.9199 63.4698 48.8293 68.6559 46.5296ZM114.568 52.7387H120.212L124.254 31.8118H117.466L110.984 42.6969L108.848 31.8118H101.984L98.0185 52.7387H103.662L105.874 41.1638L107.475 50.439H111.746L116.856 41.3171L114.568 52.7387ZM87.1886 32.1951C92.9086 32.1951 97.5609 36.8711 97.5609 42.6202C97.5609 48.3693 92.9086 53.0453 87.1886 53.0453C81.4687 53.0453 76.8164 48.3693 76.8164 42.6202C76.8164 36.8711 81.4687 32.1951 87.1886 32.1951ZM37.0054 52.7387H42.6491L46.6912 31.8118H39.9035L33.4208 42.6969L31.2854 31.8118H24.4214L20.4556 52.7387H26.0993L28.311 41.1638L29.8363 50.5157H34.1072L39.2171 41.3937L37.0054 52.7387Z" fill="#040007"/>
<path fill-rule="evenodd" clip-rule="evenodd" d="M87.4937 37.4843V37.561C87.4175 37.8676 87.3412 38.0976 87.2649 38.2509L86.6548 40.4739H85.2057L86.8836 38.2509C86.9599 38.0976 87.1124 38.0209 87.1887 37.8676C87.3412 37.7143 87.4175 37.6376 87.4937 37.4843ZM87.2649 36.3345L83.9855 40.5505L83.6804 41.9303H86.3497L85.9684 43.6167H87.3412L87.7225 41.9303H88.5615L88.8665 40.5505H88.0276L89.0191 36.3345H87.2649ZM91.3833 38.4042L87.1887 46.8362H88.1039L92.2985 38.4042H91.3833ZM91.4596 42.5435L91.0783 44.23H93.7476L90.0868 49.8258H91.8409L96.2644 42.7735L96.3406 42.5435H91.4596ZM83.7567 38.4042C83.833 37.7909 83.6804 37.2544 83.2991 36.7944C82.9178 36.4111 82.4602 36.1812 81.7738 36.1812C81.0874 36.1812 80.4772 36.4111 80.0196 36.8711C79.562 37.331 79.257 38.0209 79.1044 38.8641H80.5535C80.6298 38.4808 80.706 38.2509 80.8586 38.0209C81.0111 37.7909 81.2399 37.7143 81.4687 37.7143C81.6975 37.7143 81.85 37.7909 81.9263 37.9442C82.0026 38.0976 82.0788 38.2509 82.0788 38.4808C82.0788 38.7108 82.0026 38.8641 81.85 39.1707C81.6975 39.4007 81.4687 39.7073 81.0874 40.1672L78.113 43.6934H82.689L83.0703 42.0836H81.7738C81.6975 42.0836 81.6212 42.0836 81.545 42.0836C81.3924 42.0836 81.3162 42.0836 81.1636 42.0836L82.0788 41.1638C82.6127 40.6272 82.994 40.1672 83.2991 39.7073C83.5279 39.324 83.6804 38.8641 83.7567 38.4042Z" fill="#FFD300"/>
<path d="M115.789 61.8606H114.111C114.034 61.7073 114.034 61.4774 114.111 61.1707L114.416 59.9442C114.492 59.561 114.339 59.331 114.034 59.331L113.424 61.784H111.746L112.357 59.331C112.051 59.331 111.823 59.561 111.746 59.9442L111.441 61.1707C111.365 61.554 111.213 61.784 111.06 61.8606H109.382C109.535 61.7073 109.687 61.4007 109.764 61.0174L109.992 60.0209C110.145 59.561 110.45 59.2544 111.136 59.0244C111.289 58.9477 111.518 58.9477 111.746 58.8711C111.67 58.8711 111.441 58.7944 111.213 58.7178C110.984 58.5645 110.831 58.4878 110.755 58.4111C110.602 58.2578 110.526 58.0279 110.602 57.7213L110.755 56.9547C110.831 56.5714 110.831 56.3415 110.755 56.1115H112.433C112.509 56.2648 112.509 56.4948 112.433 56.8014L112.204 57.7979C112.128 58.1812 112.204 58.4111 112.509 58.4111L113.043 56.1882H114.721L114.187 58.4111C114.568 58.4111 114.797 58.1812 114.873 57.7979L115.102 56.8014C115.178 56.4181 115.331 56.1881 115.483 56.1115H117.161C117.009 56.2648 116.856 56.5714 116.78 56.9547L116.627 57.7213C116.551 58.0279 116.399 58.2578 116.17 58.4111C116.094 58.4878 115.865 58.5645 115.56 58.7178C115.331 58.7944 115.178 58.8711 114.95 58.8711C115.026 58.8711 115.178 58.9477 115.483 59.0244C116.017 59.1777 116.246 59.561 116.094 60.0209L115.865 61.0174C115.712 61.4007 115.712 61.6307 115.789 61.8606ZM108.009 59.1777C107.704 59.4077 107.476 59.561 107.399 59.7143C107.323 59.8676 107.247 60.0209 107.17 60.3275C107.094 60.6341 107.094 60.7875 107.094 60.8641C107.094 60.9408 107.17 61.0174 107.323 61.0174C107.399 61.0174 107.476 61.0174 107.552 60.9408C107.628 60.8641 107.628 60.7108 107.704 60.4042L108.009 59.1777ZM107.704 58.4111H106.103L106.179 58.0279C106.255 57.5679 106.408 57.2613 106.56 57.0314C106.713 56.8014 106.942 56.5714 107.323 56.4181C107.704 56.2648 108.086 56.1115 108.543 56.1115C109.153 56.1115 109.535 56.1882 109.764 56.4181C109.992 56.6481 110.145 56.878 110.069 57.1847C110.069 57.4913 109.916 58.1045 109.687 59.0244L109.001 61.8606H107.323L107.476 61.324C107.323 61.554 107.17 61.7073 106.942 61.784C106.789 61.8606 106.56 61.9373 106.332 61.9373C106.026 61.9373 105.798 61.8606 105.569 61.7073C105.34 61.554 105.34 61.1707 105.493 60.5575L105.645 60.0976C105.721 59.6376 105.874 59.4077 106.026 59.2544C106.179 59.101 106.56 58.9477 107.17 58.7178C107.781 58.4878 108.162 58.3345 108.162 58.2578C108.238 58.1812 108.314 58.0279 108.314 57.7979C108.391 57.4913 108.391 57.338 108.391 57.1847C108.391 57.108 108.314 57.0314 108.238 57.0314C108.086 57.0314 108.009 57.0314 108.009 57.108C107.933 57.1847 107.933 57.4146 107.857 57.7213L107.704 58.4111ZM106.332 56.1882L106.026 57.4146H105.035L103.891 61.8606H102.289L103.433 57.4146H102.442L102.747 56.1882H106.332ZM100.917 61.8606H99.2387L99.7726 59.7909H99.1625L98.6286 61.8606H96.9508L98.3235 56.1882H100.001L99.4675 58.2578H100.078L100.612 56.1882H102.289L100.917 61.8606ZM95.6542 57.7213C95.7305 57.4146 95.7305 57.2613 95.7305 57.1847C95.7305 57.108 95.6542 57.108 95.578 57.108C95.5017 57.108 95.4254 57.108 95.3492 57.1847C95.2729 57.2613 95.1966 57.4146 95.1966 57.7213L94.5865 60.2509C94.5102 60.5575 94.5102 60.7108 94.5102 60.7875C94.5102 60.8641 94.5865 60.9408 94.6628 60.9408C94.739 60.9408 94.8153 60.9408 94.8916 60.8641C94.9678 60.7875 94.9678 60.6341 95.0441 60.4042L95.6542 57.7213ZM97.2558 58.1812L96.8745 59.561C96.722 60.0976 96.6457 60.4808 96.4932 60.7108C96.4169 60.9408 96.1881 61.1707 96.0356 61.4007C95.8068 61.6307 95.578 61.784 95.2729 61.8606C94.9678 61.9373 94.6628 62.0139 94.3577 62.0139C93.9764 62.0139 93.6713 61.9373 93.4425 61.8606C93.2137 61.784 93.0612 61.6307 92.9086 61.4773C92.8324 61.324 92.7561 61.0941 92.7561 60.8641C92.7561 60.6341 92.8324 60.2509 92.9086 59.7909L93.29 58.3345C93.4425 57.7979 93.595 57.4146 93.7476 57.108C93.9001 56.8014 94.2052 56.5714 94.5102 56.4181C94.8153 56.2648 95.2729 56.1115 95.7305 56.1115C96.1118 56.1115 96.4169 56.1882 96.6457 56.2648C96.8745 56.4181 97.1033 56.4948 97.1796 56.7247C97.2558 56.878 97.3321 57.108 97.3321 57.2613C97.4083 57.4913 97.3321 57.7979 97.2558 58.1812ZM91.8409 61.8606H90.3918L91.3833 57.9512L89.7054 61.8606H88.7903L89.0191 57.9512L88.0276 61.8606H86.5785L87.9513 56.1882H90.0868L89.858 59.331L91.1545 56.1882H93.29L91.8409 61.8606ZM85.282 57.7213C85.3583 57.4146 85.3583 57.2613 85.3583 57.1847C85.3583 57.108 85.282 57.108 85.2057 57.108C85.1295 57.108 85.0532 57.108 84.9769 57.1847C84.9007 57.2613 84.8244 57.4146 84.8244 57.7213L84.2143 60.2509C84.138 60.5575 84.138 60.7108 84.138 60.7875C84.138 60.8641 84.2143 60.9408 84.2905 60.9408C84.3668 60.9408 84.4431 60.9408 84.5193 60.8641C84.5956 60.7875 84.5956 60.6341 84.6719 60.4042L85.282 57.7213ZM86.8836 58.1812L86.5023 59.561C86.3497 60.0976 86.2735 60.4808 86.1209 60.7108C86.0447 60.9408 85.8159 61.1707 85.6633 61.4007C85.5108 61.6307 85.2057 61.784 84.9007 61.8606C84.5956 61.9373 84.2905 62.0139 83.9855 62.0139C83.6041 62.0139 83.2991 61.9373 83.0703 61.8606C82.8415 61.784 82.6889 61.6307 82.5364 61.4773C82.4601 61.324 82.3839 61.0941 82.3839 60.8641C82.3839 60.6341 82.4601 60.2509 82.5364 59.7909L82.9177 58.3345C83.0703 57.7979 83.2228 57.4146 83.3753 57.108C83.5279 56.8014 83.8329 56.5714 84.138 56.4181C84.4431 56.2648 84.9007 56.1115 85.3583 56.1115C85.7396 56.1115 86.0447 56.1882 86.2735 56.2648C86.5023 56.4181 86.7311 56.4948 86.8073 56.7247C86.8836 56.878 86.9599 57.108 86.9599 57.2613C87.0361 57.4913 86.9599 57.7979 86.8836 58.1812ZM81.4687 61.8606H79.7908L80.3247 59.7909H79.7146L79.1807 61.8606H77.5028L78.8756 56.1882H80.5535L80.0196 58.2578H80.6297L81.1636 56.1882H82.8415L81.4687 61.8606ZM76.8164 61.8606H75.2911L76.0538 58.7944L74.0708 61.8606H72.5455L73.9183 56.1882H75.4436L74.681 59.2544L76.5876 56.1882H78.1892L76.8164 61.8606ZM69.9525 60.6341H70.5626L71.7066 56.1882H73.3844L72.0117 61.8606H65.6815L67.0543 56.1882H68.7322L67.5882 60.6341H68.1983L69.3423 56.1882H71.0202L69.9525 60.6341ZM63.6224 54.5017H64.3087C64.2325 54.885 64.0037 55.1916 63.7749 55.4216C63.4698 55.6516 63.1647 55.8049 62.7834 55.8049C62.4021 55.8049 62.1733 55.6516 62.0208 55.4216C61.8682 55.1916 61.8682 54.885 61.9445 54.5017H62.6309C62.5546 54.885 62.7072 55.115 62.936 55.115C63.3173 55.115 63.5461 54.885 63.6224 54.5017ZM63.4698 61.8606H61.9445L62.7072 58.7944L60.7242 61.8606H59.1226L60.4954 56.1882H62.0208L61.2581 59.2544L63.1647 56.1882H64.7663L63.4698 61.8606ZM58.5888 61.8606H56.9109L58.2837 56.1882H59.9616L58.5888 61.8606ZM55.1568 60.0209L55.2331 59.7909C55.3093 59.4843 55.3093 59.331 55.3093 59.2544C55.2331 59.1777 55.0805 59.1777 54.8517 59.1777L54.4704 60.7108C54.6992 60.7108 54.8517 60.7108 54.928 60.6341C55.0043 60.4808 55.0805 60.3275 55.1568 60.0209ZM56.7584 60.2509C56.6058 60.7875 56.4533 61.1707 56.3008 61.4007C56.1482 61.6307 55.9194 61.784 55.6144 61.784C55.3093 61.8606 54.928 61.8606 54.3179 61.8606H52.3349L53.7077 56.1882H55.3856L54.928 58.1045H55.2331C55.7669 58.1045 56.1482 58.1045 56.4533 58.1812C56.6821 58.2578 56.8346 58.4111 56.9109 58.6411C56.9872 58.8711 56.9872 59.1777 56.8346 59.7143L56.7584 60.2509ZM51.8011 61.8606H50.1232L50.6571 59.7909H50.0469L49.5131 61.8606H47.8352L49.208 56.1882H50.8859L50.352 58.2578H50.9621L51.496 56.1882H53.1739L51.8011 61.8606ZM45.9286 60.0209L46.0048 59.7909C46.0811 59.4843 46.0811 59.331 46.0811 59.2544C46.0048 59.1777 45.8523 59.1777 45.6235 59.1777L45.2422 60.7108C45.471 60.7108 45.6235 60.7108 45.6998 60.6341C45.776 60.4808 45.8523 60.3275 45.9286 60.0209ZM47.6064 60.2509C47.4539 60.7875 47.3014 61.1707 47.1488 61.4007C46.9963 61.6307 46.7675 61.784 46.4624 61.784C46.1574 61.8606 45.776 61.8606 45.1659 61.8606H43.183L44.5558 56.1882H46.2336L45.8523 58.1045H46.1574C46.6912 58.1045 47.0725 58.1045 47.3776 58.1812C47.6064 58.2578 47.7589 58.4111 47.8352 58.6411C47.9115 58.8711 47.9115 59.1777 47.7589 59.7143L47.6064 60.2509ZM40.9712 61.8606L42.1152 57.4146H41.5051L40.8187 60.2509C40.6662 60.7875 40.5136 61.1707 40.3611 61.4007C40.2086 61.6307 39.9798 61.784 39.6747 61.784C39.3696 61.8606 38.9883 61.8606 38.3782 61.8606H38.0731L38.3019 60.9408C38.5307 60.9408 38.6833 60.9408 38.7595 60.8641C38.8358 60.7875 38.912 60.6341 38.9883 60.3275L39.9798 56.2648H44.0219L42.6491 61.9373H40.9712V61.8606ZM37.7681 61.8606H36.2427L37.0054 58.7944L35.0225 61.8606H33.4971L34.8699 56.1882H36.3953L35.6326 59.2544L37.5393 56.1882H39.1408L37.7681 61.8606ZM32.9633 56.1882C33.8022 56.1882 34.1073 56.4948 34.031 57.1847C33.9547 57.4913 33.8785 57.8746 33.8022 58.2578L33.4971 59.6376C33.3446 60.2509 33.1921 60.7108 33.0395 60.9408C32.6582 61.6307 31.8955 61.9373 30.9803 61.9373C30.599 61.9373 30.3702 61.9373 30.2939 61.9373C30.0651 61.9373 29.9126 61.8606 29.7601 61.7073C29.5313 61.554 29.455 61.2474 29.3788 60.9408C29.3788 60.7108 29.455 60.3275 29.5313 59.7909L30.3702 56.4948C30.5227 56.0348 30.7515 55.6516 31.1329 55.3449C31.5142 55.0383 31.9718 54.885 32.4294 54.885C32.6582 54.885 32.9633 54.885 33.3446 54.9617C33.7259 54.9617 33.9547 55.0383 34.1073 55.0383C34.2598 55.0383 34.4123 55.0383 34.4886 54.9617L34.2598 55.8815C34.1073 55.9582 34.031 55.9582 33.8785 55.9582C33.7259 55.9582 33.4971 55.9582 33.2683 55.9582C32.9633 55.9582 32.8107 55.9582 32.6582 55.9582C32.4294 55.9582 32.2769 56.0348 32.1243 56.2648C32.1243 56.3415 32.0481 56.4948 31.9718 56.8014C32.2769 56.3415 32.6582 56.1882 32.9633 56.1882ZM31.4379 60.7108L32.1243 57.7979C32.2006 57.5679 32.2006 57.4146 32.2006 57.338C32.2006 57.1847 32.1243 57.108 32.0481 57.108C31.8955 57.108 31.8193 57.1847 31.743 57.338C31.743 57.4146 31.6667 57.5679 31.5905 57.7979L30.9041 60.4808C30.8278 60.7875 30.9041 60.9408 31.0566 60.9408C31.2854 61.0174 31.4379 60.8641 31.4379 60.7108ZM27.7009 57.7213C27.7772 57.4146 27.7772 57.2613 27.7772 57.1847C27.7772 57.108 27.7009 57.108 27.6246 57.108C27.5484 57.108 27.4721 57.108 27.3958 57.1847C27.3196 57.2613 27.2433 57.4146 27.2433 57.7213L26.6332 60.2509C26.5569 60.5575 26.5569 60.7108 26.5569 60.7875C26.5569 60.8641 26.6332 60.9408 26.7094 60.9408C26.7857 60.9408 26.862 60.9408 26.9382 60.8641C27.0145 60.7875 27.0145 60.6341 27.0908 60.4042L27.7009 57.7213ZM29.3025 58.1812L28.9974 59.561C28.8449 60.0976 28.7686 60.4808 28.6161 60.7108C28.5398 60.9408 28.311 61.1707 28.1585 61.4007C28.006 61.6307 27.7009 61.784 27.3958 61.8606C27.0908 61.9373 26.7857 62.0139 26.4806 62.0139C26.0993 62.0139 25.7942 61.9373 25.5654 61.8606C25.3366 61.784 25.1841 61.6307 25.0316 61.4773C24.9553 61.324 24.879 61.0941 24.879 60.8641C24.879 60.6341 24.9553 60.2509 25.0316 59.7909L25.4129 58.3345C25.5654 57.7979 25.718 57.4146 25.8705 57.108C26.023 56.8014 26.3281 56.5714 26.6332 56.4181C26.9382 56.2648 27.3958 56.1115 27.8534 56.1115C28.2348 56.1115 28.5398 56.1882 28.7686 56.2648C28.9974 56.4181 29.2262 56.4948 29.3025 56.7247C29.3788 56.878 29.455 57.108 29.455 57.2613C29.455 57.4913 29.3788 57.7979 29.3025 58.1812ZM25.5654 54.9617L23.8876 61.8606H22.286L23.43 57.1847L21.6758 61.8606H20.6081L21.0657 57.2613L19.9217 61.8606H18.3201L19.998 54.9617H22.286C22.286 55.3449 22.2097 55.8815 22.1334 56.4181L21.9809 58.1812L23.2012 54.9617H25.5654Z" fill="#040007"/>
<path d="M124.788 56.1881L123.339 61.8606H122.042L120.365 58.7944L119.602 61.8606H118.077L119.526 56.1881H120.822L122.5 59.2543L123.263 56.1881H124.788ZM124.712 59.331H127.534L127.305 60.2509H124.407L124.712 59.331ZM127.534 56.2648C127.762 56.3414 127.915 56.4948 127.991 56.7247C128.067 56.9547 128.144 57.108 128.144 57.338C128.144 57.6446 128.067 57.8746 127.839 58.1045C127.686 58.3345 127.457 58.4878 127.152 58.6411C126.847 58.7944 126.618 58.7944 126.237 58.7944C125.932 58.7944 125.703 58.7178 125.474 58.6411C125.246 58.5644 125.093 58.4111 125.017 58.1812C124.941 58.0279 124.864 57.7979 124.864 57.5679C124.864 57.2613 124.941 57.0313 125.169 56.8014C125.322 56.5714 125.551 56.4181 125.856 56.2648C126.161 56.1115 126.39 56.1115 126.771 56.1115C127.076 56.1115 127.305 56.1881 127.534 56.2648ZM126.923 57.8745C127.076 57.7212 127.152 57.5679 127.152 57.4146C127.152 57.2613 127.152 57.1847 127.076 57.0313C127 56.9547 126.847 56.878 126.771 56.878C126.618 56.878 126.466 56.9547 126.313 57.0313C126.161 57.1847 126.161 57.338 126.085 57.4913C126.085 57.6446 126.085 57.7212 126.161 57.7979C126.237 57.8746 126.39 57.9512 126.466 57.9512C126.618 58.0279 126.771 58.0279 126.923 57.8745Z" fill="black"/>
<path d="M131.576 56.1882L130.203 61.8606H128.601L129.669 57.4147H128.678L128.983 56.1882H131.576Z" fill="black"/>
</g>
<defs>
<clipPath id="clip0_141_6953">
<rect width="134" height="66" fill="white" transform="translate(0.0925293)"/>
</clipPath>
</defs>
</svg>
