<svg xmlns="http://www.w3.org/2000/svg" width="135" height="66" fill="none" viewBox="0 0 135 66"><g clip-path="url(#a)"><path fill="#fff" d="M117.62 65.92h9.69a6.9 6.9 0 0 0 6.86-6.9v-1.76a6.9 6.9 0 0 0-6.86-6.9h-9.7a6.9 6.9 0 0 0-6.86 6.9v1.76c0 3.84 3.06 6.9 6.87 6.9Z"/><path fill="#fff" fill-rule="evenodd" d="M116.93.38c.77 0 1.45.39 1.76 1.08.15.3.23.61.23 1h1.22c.76 0 1.44.38 1.75 1.07.38.69.3 1.45-.08 2.07l-11.59 17.24-1.37 6.98c.99 0 1.75.69 1.98 1.6l.08.4h1.14c1 0 1.76.68 1.98 1.6v.15l1.68-2.83c.38-.61 1-1 1.76-1h6.78c.61 0 1.15.23 1.53.77.3.38.46.84.46 1.3h1.22c.6 0 1.14.23 1.52.77.38.46.54 1.07.46 1.68L125.4 55.2c-.15 1-1 1.61-1.98 1.61h-1.6c.15.15.3.38.45.61.3.7.23 1.46-.3 2.07v.08l-.16.77c-.07.38-.23.76-.45 1.07.07.38.07.77-.08 1.15l-.23.92c.08.54 0 1-.3 1.46-.39.61-1 .92-1.68.92H110.53c-.3.07-.54.07-.84.07-.54 0-1-.07-1.45-.3-.3.15-.61.23-.92.23h-1.67c-.23 0-.46 0-.7-.08a2.1 2.1 0 0 1-.68.08h-3.96c-.3 0-.61-.08-.84-.16h-.08a5.78 5.78 0 0 1-3.2 0s-.08 0-.08-.07c-.23.07-.53.15-.84.15h-5.34c-.3 0-.6-.08-.83-.15h-.08a5.78 5.78 0 0 1-3.2 0s-.08 0-.08-.08c-.23.08-.53.15-.84.15h-6.1c-.23 0-.38 0-.61-.07-.15.07-.38.07-.61.07h-8.54c-.38 0-.77-.07-1.07-.3-.3.23-.69.3-1.07.3h-1.52c-.23 0-.38 0-.61-.07-.38.3-.54.3-.77.3h-3.89c-.3 0-.53-.07-.76-.15h-.07c-.54.15-1.15.15-1.68.15H51.04c-.3 0-.54-.07-.76-.15h-.08c-.61.15-1.22.15-1.75.15H44.17c-.3 0-.53-.07-.76-.15h-.15c-.53.15-1.14.15-1.68.15h-2.13c-.23 0-.39 0-.61-.07-.16.07-.39.07-.54.07h-1.6c-.3 0-.61-.07-.91-.23-.54.16-1.07.23-1.68.23h-.99a3.74 3.74 0 0 1-1.3-.46c-.23.08-.38.23-.61.31a5.78 5.78 0 0 1-3.2 0c-.08 0-.08 0-.16-.08-.23.16-.53.16-.84.16h-5.48c-.62 0-1.23-.31-1.6-.77-.31-.38-.47-.84-.47-1.3h-1.22c-.6 0-1.22-.31-1.6-.77-.38-.54-.53-1.07-.38-1.76l1.68-6.9c.08-.3.23-.61.46-.84-.16-.39-.23-.85-.16-1.23l4.12-20.85c.08-.38.23-.77.54-1-1.91.77-3.97 1.08-6.1 1.08a20.3 20.3 0 0 1-9-2 13.8 13.8 0 0 1-2.52-1.53 4.2 4.2 0 0 1-.69-.54 13.8 13.8 0 0 1-2.51-1.53c-.39-.3-.77-.61-1.15-.84a2.04 2.04 0 0 1-.46-2.76L4.6 16.1c.23-.3.46-.54.77-.7a6.98 6.98 0 0 1-1.23-3.9C3.91 6.75 8.03 2.15 12.45.77 15.8-.31 20.15-.15 23.58.6c1.45.31 3.05 1.15 4.43 2l.15-.85c.15-1 .99-1.6 1.98-1.6H38c.6 0 1.14.22 1.52.76.3.38.46.84.46 1.3h1.22c.61 0 1.14.23 1.53.77.07.08.15.23.22.3l.3-1.45c.16-1 1-1.61 2-1.61h7.85c.6 0 1.14.23 1.52.77.08.07.08.15.16.15.38-.54.99-.92 1.67-.92h7.86c.6 0 1.14.23 1.52.77.08.07.08.15.16.15.38-.54.99-.92 1.67-.92h6.41c.76 0 1.45.38 1.76 1.07l.53 1h.91c.77 0 1.45.38 1.76 1.07l1.6 3.07.92-4.6c.15-1 .99-1.61 1.98-1.61h7.01c.31 0 .61.08.92.23.15 0 .3-.08.38-.08h7.86c.91 0 1.67.54 1.9 1.46l.16.61h1.14c.91 0 1.68.54 1.9 1.46l.23.69 2.22-3.3c.38-.53.99-.92 1.67-.92h8.01Z" clip-rule="evenodd"/><path fill="#FFD300" fill-rule="evenodd" d="m30.07 2.22-4.81 25.15h7.86l1.75-9.13h7.25l-1.84 9.05h7.86l4.88-25.07h-7.78l-1.9 9.74h-7.25l1.9-9.74h-7.92ZM51.65 27.3h7.78L64.3 2.22h-7.86l-4.8 25.07ZM67.66 2.22l-4.88 25.15h7.17l2.44-12.73 6.87 12.65h6.63l4.8-25.07h-7.01l-2.6 13.11-6.93-13.1h-6.49Zm37.38 17.71 11.82-17.55H109l-.76 1.15-5.65 8.35-2.82-9.5h-7.85l5.26 17.55-1.45 7.36h7.86l1.44-7.36Zm-88.4-.15c-.3 1.68-2.6 1.6-5.49.61-2.9-1-4.96-3.14-4.96-3.14l-4.11 6.2c.53.39 4.34 4.07 11.44 4 7.85-.08 11.05-4.68 11.28-9.28.23-4.6-3.05-5.45-5.72-6.37-2.67-.92-4.88-1.22-4.73-2.52.16-1.3 1.76-1.46 4.28-.7 2.51.77 5.03 2.46 5.03 2.46l4.04-6.21s-2.52-1.84-4.65-2.3c-2.14-.46-6.48-.92-10 .15-3.58 1.15-7.08 4.9-7 8.74.14 3.83 3.27 4.9 5.48 5.67 2.14.77 5.42 1 5.11 2.69Z" clip-rule="evenodd"/><path fill="#040007" fill-rule="evenodd" d="M45.47 52.74h6.4c1.38-6.98 2.75-13.95 4.05-20.93h-6.48c-1.38 6.98-2.67 13.95-3.97 20.93Zm23.19-6.21.91-4.83h5.57l-1.6 8.5s-3.66 2.62-9.3 2.62c-5.65 0-9.08-4-8.63-9.05.46-5.06 3.51-10.2 10.3-11.8a11.94 11.94 0 0 1 10.9 2.83l-4.57 4.68s-2.13-2.6-5.19-2.07c-3.05.46-4.5 3.45-4.72 5.44-.16 2.07 1.14 5.98 6.33 3.68Zm45.9 6.2h5.65l4.04-20.92h-6.78l-6.49 10.89-2.13-10.89h-6.87l-3.96 20.93h5.64l2.21-11.58 1.6 9.28h4.28l5.1-9.12-2.28 11.42ZM87.2 32.2c5.72 0 10.37 4.67 10.37 10.42S92.91 53.05 87.2 53.05a10.41 10.41 0 0 1-10.37-10.43c0-5.75 4.65-10.42 10.37-10.42ZM37 52.74h5.64l4.04-20.93H39.9L33.42 42.7 31.3 31.8h-6.87l-3.96 20.93h5.64l2.21-11.58 1.53 9.36h4.27l5.1-9.13-2.2 11.35Z" clip-rule="evenodd"/><path fill="#FFD300" fill-rule="evenodd" d="M87.5 37.48v.08c-.08.3-.16.54-.24.7l-.6 2.21H85.2l1.67-2.22c.08-.15.23-.23.3-.38.16-.16.24-.23.31-.39Zm-.24-1.15L84 40.55l-.31 1.38h2.67l-.38 1.69h1.37l.38-1.69h.84l.3-1.38h-.83l.99-4.22h-1.76Zm4.12 2.07-4.2 8.44h.92l4.2-8.44h-.92Zm.08 4.14-.38 1.69h2.67l-3.66 5.6h1.75l4.42-7.06.08-.23h-4.88Zm-7.7-4.14a2.03 2.03 0 0 0-.46-1.6 2 2 0 0 0-1.53-.62c-.68 0-1.3.23-1.75.7a3.73 3.73 0 0 0-.92 1.98h1.45c.08-.38.16-.6.3-.84a.7.7 0 0 1 .62-.3c.23 0 .38.07.46.22.07.16.15.31.15.54 0 .23-.08.38-.23.7-.15.22-.38.53-.76.99l-2.98 3.52h4.58l.38-1.6H81.16l.92-.93c.53-.53.91-1 1.22-1.45.23-.39.38-.85.46-1.3Z" clip-rule="evenodd"/><path fill="#040007" d="M115.79 61.86h-1.68c-.08-.15-.08-.38 0-.69l.3-1.23c.08-.38-.07-.6-.38-.6l-.6 2.44h-1.68l.6-2.45c-.3 0-.53.23-.6.61l-.3 1.23c-.09.38-.24.61-.39.7h-1.68c.16-.16.3-.47.38-.85l.23-1c.16-.46.46-.77 1.15-1 .15-.07.38-.07.6-.15-.07 0-.3-.08-.53-.15-.23-.16-.38-.23-.45-.3-.16-.16-.23-.4-.16-.7l.16-.77c.07-.38.07-.6 0-.84h1.67c.08.15.08.38 0 .7l-.23.99c-.07.38 0 .61.3.61l.54-2.22h1.68l-.53 2.22c.38 0 .6-.23.68-.61l.23-1c.08-.38.23-.61.38-.69h1.68c-.15.15-.3.46-.38.84l-.15.77c-.08.3-.23.54-.46.7-.08.07-.3.14-.61.3-.23.07-.38.15-.61.15.08 0 .23.08.53.15.54.16.77.54.61 1l-.23 1c-.15.38-.15.61-.07.84ZM108 59.18c-.3.23-.53.38-.61.53-.08.16-.15.31-.23.62-.08.3-.08.46-.08.53 0 .08.08.16.23.16.08 0 .16 0 .23-.08.08-.08.08-.23.15-.54l.3-1.22Zm-.3-.77h-1.6l.07-.38c.07-.46.23-.77.38-1 .15-.23.38-.46.76-.61.38-.16.77-.3 1.22-.3.61 0 1 .07 1.22.3.23.23.38.46.3.76 0 .31-.14.92-.37 1.84l-.69 2.84h-1.68l.16-.54c-.16.23-.31.39-.54.46a1.28 1.28 0 0 1-1.37-.08c-.23-.15-.23-.53-.08-1.14l.16-.46c.07-.46.22-.7.38-.85a4 4 0 0 1 1.14-.53c.61-.23 1-.39 1-.46.07-.08.14-.23.14-.46.08-.3.08-.46.08-.62 0-.07-.08-.15-.15-.15-.15 0-.23 0-.23.08-.08.07-.08.3-.15.61l-.16.7Zm-1.38-2.22-.3 1.22h-1l-1.14 4.45h-1.6l1.14-4.45h-.99l.3-1.22h3.6Zm-5.41 5.67h-1.68l.53-2.07h-.6l-.54 2.07h-1.68l1.37-5.67H100l-.53 2.07h.6l.54-2.07h1.68l-1.37 5.67Zm-5.27-4.14c.08-.3.08-.46.08-.54 0-.07-.08-.07-.15-.07-.08 0-.15 0-.23.07-.08.08-.15.23-.15.54l-.61 2.53c-.08.3-.08.46-.08.54 0 .07.08.15.15.15.08 0 .16 0 .23-.08.08-.07.08-.23.15-.46l.61-2.68Zm1.6.46-.38 1.38c-.15.54-.22.92-.38 1.15-.07.23-.3.46-.45.7-.23.22-.46.37-.77.45a2.83 2.83 0 0 1-1.83 0c-.23-.08-.38-.23-.53-.38a1.45 1.45 0 0 1-.15-.62c0-.23.07-.6.15-1.07l.38-1.46a7 7 0 0 1 .46-1.22c.15-.3.46-.54.76-.7.3-.15.76-.3 1.22-.3.38 0 .69.08.92.15.22.16.45.23.53.46.08.16.15.39.15.54.08.23 0 .54-.07.92Zm-5.4 3.68h-1.46l1-3.9-1.68 3.9h-.92l.23-3.9-1 3.9h-1.44l1.37-5.67h2.14l-.23 3.14 1.3-3.14h2.13l-1.45 5.67Zm-6.57-4.14c.08-.3.08-.46.08-.54 0-.07-.08-.07-.15-.07-.08 0-.16 0-.23.07-.08.08-.16.23-.16.54l-.6 2.53c-.08.3-.08.46-.08.54 0 .07.07.15.15.15.08 0 .15 0 .23-.08.08-.07.08-.23.15-.46l.61-2.68Zm1.6.46-.38 1.38c-.15.54-.23.92-.38 1.15-.08.23-.3.46-.46.7-.15.22-.45.37-.76.45a2.83 2.83 0 0 1-1.83 0 1.37 1.37 0 0 1-.53-.38 1.45 1.45 0 0 1-.16-.62c0-.23.08-.6.16-1.07l.38-1.46c.15-.53.3-.92.46-1.22.15-.3.45-.54.76-.7.3-.15.76-.3 1.22-.3.38 0 .68.08.91.15.23.16.46.23.54.46.07.16.15.39.15.54.08.23 0 .54-.08.92Zm-5.41 3.68h-1.68l.53-2.07h-.6l-.54 2.07H77.5l1.38-5.67h1.67l-.53 2.07h.61l.53-2.07h1.68l-1.37 5.67Zm-4.65 0h-1.53l.76-3.07-1.98 3.07h-1.52l1.37-5.67h1.52l-.76 3.06 1.9-3.06h1.6l-1.36 5.67Zm-6.87-1.23h.61l1.15-4.44h1.67l-1.37 5.67h-6.33l1.37-5.67h1.68l-1.14 4.44h.6l1.15-4.44h1.68l-1.07 4.44Zm-6.33-6.13h.69a1.6 1.6 0 0 1-1.53 1.3c-.38 0-.6-.15-.76-.38-.15-.23-.15-.54-.08-.92h.7c-.09.38.07.62.3.62.38 0 .6-.23.68-.62Zm-.15 7.36h-1.53l.77-3.07-1.99 3.07h-1.6l1.38-5.67h1.52l-.76 3.06 1.9-3.06h1.6l-1.29 5.67Zm-4.88 0H56.9l1.37-5.67h1.68l-1.37 5.67Zm-3.43-1.84.07-.23c.08-.3.08-.46.08-.54-.08-.07-.23-.07-.46-.07l-.38 1.53c.23 0 .38 0 .46-.08.07-.15.15-.3.23-.6Zm1.6.23c-.15.54-.3.92-.46 1.15a.8.8 0 0 1-.69.38c-.3.08-.68.08-1.3.08h-1.98l1.38-5.67h1.68l-.46 1.91h.3c.54 0 .92 0 1.22.08.23.08.38.23.46.46.08.23.08.54-.08 1.07l-.07.54Zm-4.96 1.61h-1.68l.54-2.07h-.61l-.54 2.07h-1.67l1.37-5.67h1.68l-.54 2.07h.61l.54-2.07h1.67l-1.37 5.67Zm-5.87-1.84.07-.23c.08-.3.08-.46.08-.54-.08-.07-.23-.07-.46-.07l-.38 1.53c.23 0 .38 0 .46-.08.08-.15.15-.3.23-.6Zm1.68.23c-.16.54-.3.92-.46 1.15a.8.8 0 0 1-.69.38c-.3.08-.68.08-1.3.08h-1.98l1.38-5.67h1.67l-.38 1.91h.3c.54 0 .92 0 1.23.08.23.08.38.23.46.46.07.23.07.54-.08 1.07l-.15.54Zm-6.64 1.61 1.15-4.45h-.61l-.7 2.84c-.14.54-.3.92-.45 1.15a.8.8 0 0 1-.69.38c-.3.08-.68.08-1.3.08h-.3l.23-.92c.23 0 .38 0 .46-.08.08-.07.15-.23.23-.53l.99-4.07h4.04l-1.37 5.68h-1.68v-.08Zm-3.2 0h-1.53l.77-3.07-1.99 3.07H33.5l1.37-5.67h1.53l-.77 3.06 1.9-3.06h1.61l-1.37 5.67Zm-4.8-5.67c.83 0 1.14.3 1.06 1-.08.3-.15.68-.23 1.07l-.3 1.38c-.16.61-.3 1.07-.46 1.3-.38.7-1.14 1-2.06 1h-.69a.7.7 0 0 1-.53-.23c-.23-.16-.3-.46-.38-.77 0-.23.07-.61.15-1.15l.84-3.3c.15-.46.38-.84.76-1.15.38-.3.84-.46 1.3-.46.23 0 .53 0 .91.08.39 0 .61.08.77.08.15 0 .3 0 .38-.08l-.23.92c-.15.08-.23.08-.38.08h-1.22c-.23 0-.38.07-.54.3 0 .08-.07.23-.15.54.3-.46.69-.61 1-.61Zm-1.53 4.52.68-2.91c.08-.23.08-.39.08-.46 0-.16-.08-.23-.15-.23-.15 0-.23.07-.3.23 0 .07-.08.23-.16.46l-.69 2.68c-.07.3 0 .46.16.46.23.08.38-.08.38-.23Zm-3.74-2.99c.08-.3.08-.46.08-.54 0-.07-.08-.07-.16-.07-.07 0-.15 0-.22.07-.08.08-.16.23-.16.54l-.6 2.53c-.08.3-.08.46-.08.54 0 .07.07.15.15.15.08 0 .15 0 .23-.08.07-.07.07-.23.15-.46l.61-2.68Zm1.6.46-.3 1.38c-.16.54-.23.92-.38 1.15-.08.23-.3.46-.46.7-.15.22-.46.37-.76.45a2.83 2.83 0 0 1-1.83 0 1.37 1.37 0 0 1-.54-.38 1.45 1.45 0 0 1-.15-.62c0-.23.08-.6.15-1.07l.38-1.46c.16-.53.3-.92.46-1.22.15-.3.46-.54.76-.7.3-.15.77-.3 1.22-.3.38 0 .69.08.92.15.23.16.46.23.53.46.08.16.15.39.15.54 0 .23-.07.54-.15.92Zm-3.73-3.22-1.68 6.9h-1.6l1.14-4.68-1.75 4.68H20.6l.46-4.6-1.15 4.6h-1.6l1.68-6.9h2.29c0 .38-.08.92-.16 1.46l-.15 1.76 1.22-3.22h2.37Z"/><path fill="#000" d="m124.79 56.19-1.45 5.67h-1.3l-1.68-3.07-.76 3.07h-1.52l1.45-5.67h1.3l1.67 3.06.76-3.06h1.53Zm-.08 3.14h2.82l-.22.92h-2.9l.3-.92Zm2.82-3.07c.23.08.39.23.46.46.08.23.15.39.15.62 0 .3-.07.53-.3.76-.15.23-.38.39-.69.54-.3.15-.53.15-.91.15-.3 0-.54-.07-.77-.15a.69.69 0 0 1-.45-.46 1.45 1.45 0 0 1-.16-.61c0-.3.08-.54.3-.77.16-.23.4-.38.7-.54.3-.15.53-.15.91-.15.3 0 .54.08.76.15Zm-.6 1.61c.15-.15.22-.3.22-.46 0-.15 0-.23-.07-.38a.58.58 0 0 0-.3-.15c-.16 0-.31.07-.47.15-.15.15-.15.3-.23.46 0 .15 0 .23.08.3.08.08.23.16.3.16.16.08.31.08.46-.08ZM131.58 56.19l-1.38 5.67h-1.6l1.07-4.45h-1l.31-1.22h2.6Z"/></g><defs><clipPath id="a"><path fill="#fff" d="M.1 0h134v66H.1z"/></clipPath></defs></svg>