<svg xmlns="http://www.w3.org/2000/svg" width="176" height="87" fill="none" viewBox="0 0 176 87"><g clip-path="url(#a)"><path fill="#fff" d="M154.1 86h12.7c4.9 0 9-4 9-9v-2.3c0-4.9-4-9-9-9h-12.7c-4.9 0-9 4-9 9V77c0 5 4 9 9 9Z"/><path fill="#fff" fill-rule="evenodd" d="M153.2.5c1 0 1.9.5 2.3 1.4.2.4.3.8.3 1.3h1.6c1 0 1.9.5 2.3 1.4.5.9.4 1.9-.1 2.7l-15.2 22.5-1.8 9.1c1.3 0 2.3.9 2.6 2.1l.1.5h1.5c1.3 0 2.3.9 2.6 2.1v.2l2.2-3.7c.5-.8 1.3-1.3 2.3-1.3h8.9c.8 0 1.5.3 2 1 .4.5.6 1.1.6 1.7h1.6c.8 0 1.5.3 2 1 .5.6.7 1.4.6 2.2L164.3 72c-.2 1.3-1.3 2.1-2.6 2.1h-2.1c.2.2.4.5.6.8.4.9.3 1.9-.4 2.7v.1l-.2 1c-.1.5-.3 1-.6 1.4.1.5.1 1-.1 1.5l-.3 1.2c.1.7 0 1.3-.4 1.9-.5.8-1.3 1.2-2.2 1.2h-11.2c-.4.1-.7.1-1.1.1-.7 0-1.3-.1-1.9-.4-.4.2-.8.3-1.2.3h-2.2c-.3 0-.6 0-.9-.1-.3.1-.6.1-.9.1h-5.2c-.4 0-.8-.1-1.1-.2h-.1a7.61 7.61 0 0 1-4.2 0s-.1 0-.1-.1c-.3.1-.7.2-1.1.2h-7c-.4 0-.8-.1-1.1-.2h-.1a7.61 7.61 0 0 1-4.2 0s-.1 0-.1-.1c-.3.1-.7.2-1.1.2h-8c-.3 0-.5 0-.8-.1-.2.1-.5.1-.8.1H90.4c-.5 0-1-.1-1.4-.4-.4.3-.9.4-1.4.4h-2c-.3 0-.5 0-.8-.1-.5.4-.7.4-1 .4h-5.1c-.4 0-.7-.1-1-.2h-.1c-.7.2-1.5.2-2.2.2H66.8c-.4 0-.7-.1-1-.2h-.1c-.8.2-1.6.2-2.3.2h-5.6c-.4 0-.7-.1-1-.2h-.2c-.7.2-1.5.2-2.2.2h-2.8c-.3 0-.5 0-.8-.1-.2.1-.5.1-.7.1H48c-.4 0-.8-.1-1.2-.3-.7.2-1.4.3-2.2.3h-1.3c-.6-.1-1.2-.3-1.7-.6-.3.1-.5.3-.8.4a7.61 7.61 0 0 1-4.2 0c-.1 0-.1 0-.2-.1-.3.2-.7.2-1.1.2H28.1c-.8 0-1.6-.4-2.1-1-.4-.5-.6-1.1-.6-1.7h-1.6c-.8 0-1.6-.4-2.1-1-.5-.7-.7-1.4-.5-2.3l2.2-9c.1-.4.3-.8.6-1.1-.2-.5-.3-1.1-.2-1.6L29.2 41c.1-.5.3-1 .7-1.3-2.5 1-5.2 1.4-8 1.4-4.1 0-8.1-.8-11.8-2.6-1.2-.6-2.3-1.2-3.3-2-.3-.2-.6-.4-.9-.7-1.2-.6-2.3-1.2-3.3-2-.5-.4-1-.8-1.5-1.1-1.1-.8-1.4-2.4-.6-3.6L5.9 21c.3-.4.6-.7 1-.9-1-1.5-1.6-3.2-1.6-5.1C5 8.8 10.4 2.8 16.2 1 20.6-.4 26.3-.2 30.8.8c1.9.4 4 1.5 5.8 2.6l.2-1.1C37 1 38.1.2 39.4.2h10.3c.8 0 1.5.3 2 1 .4.5.6 1.1.6 1.7h1.6c.8 0 1.5.3 2 1 .1.1.2.3.3.4l.4-1.9c.2-1.3 1.3-2.1 2.6-2.1h10.3c.8 0 1.5.3 2 1 .1.1.1.2.2.2C72.2.8 73 .3 73.9.3h10.3c.8 0 1.5.3 2 1 .1.1.1.2.2.2.5-.7 1.3-1.2 2.2-1.2H97c1 0 1.9.5 2.3 1.4L100 3h1.2c1 0 1.9.5 2.3 1.4l2.1 4 1.2-6c.2-1.3 1.3-2.1 2.6-2.1h9.2c.4 0 .8.1 1.2.3.2 0 .4-.1.5-.1h10.3c1.2 0 2.2.7 2.5 1.9l.2.8h1.5c1.2 0 2.2.7 2.5 1.9l.3.9 2.9-4.3c.5-.7 1.3-1.2 2.2-1.2h10.5Z" clip-rule="evenodd"/><path fill="#FFD300" fill-rule="evenodd" d="M39.3 2.9 33 35.7h10.3l2.3-11.9h9.5l-2.4 11.8H63l6.4-32.7H59.2l-2.5 12.7h-9.5l2.5-12.7H39.3Zm28.3 32.7h10.2l6.4-32.7H73.9l-6.3 32.7Zm21-32.7-6.4 32.8h9.4l3.2-16.6 9 16.5h8.7l6.3-32.7h-9.2L106.2 20 97.1 2.9h-8.5Zm49 23.1 15.5-22.9h-10.3l-1 1.5-7.4 10.9-3.7-12.4h-10.3l6.9 22.9-1.9 9.6h10.3l1.9-9.6Zm-115.9-.2c-.4 2.2-3.4 2.1-7.2.8-3.8-1.3-6.5-4.1-6.5-4.1l-5.4 8.1c.7.5 5.7 5.3 15 5.2 10.3-.1 14.5-6.1 14.8-12.1.3-6-4-7.1-7.5-8.3-3.5-1.2-6.4-1.6-6.2-3.3.2-1.7 2.3-1.9 5.6-.9 3.3 1 6.6 3.2 6.6 3.2l5.3-8.1s-3.3-2.4-6.1-3c-2.8-.6-8.5-1.2-13.1.2C12.3 5 7.7 9.9 7.8 14.9c.2 5 4.3 6.4 7.2 7.4 2.8 1 7.1 1.3 6.7 3.5Z" clip-rule="evenodd"/><path fill="#040007" fill-rule="evenodd" d="M59.5 68.8h8.4c1.8-9.1 3.6-18.2 5.3-27.3h-8.5c-1.8 9.1-3.5 18.2-5.2 27.3Zm30.4-8.1 1.2-6.3h7.3l-2.1 11.1s-4.8 3.4-12.2 3.4c-7.4 0-11.9-5.2-11.3-11.8.6-6.6 4.6-13.3 13.5-15.4 4.5-1 8-.1 10.5 1.1 2.5 1.2 3.8 2.6 3.8 2.6l-6 6.1s-2.8-3.4-6.8-2.7c-4 .6-5.9 4.5-6.2 7.1-.2 2.7 1.5 7.8 8.3 4.8Zm60.2 8.1h7.4l5.3-27.3h-8.9l-8.5 14.2-2.8-14.2h-9l-5.2 27.3h7.4l2.9-15.1 2.1 12.1h5.6l6.7-11.9-3 14.9ZM114.2 42c7.5 0 13.6 6.1 13.6 13.6s-6.1 13.6-13.6 13.6-13.6-6.1-13.6-13.6S106.7 42 114.2 42ZM48.4 68.8h7.4l5.3-27.3h-8.9l-8.5 14.2-2.8-14.2h-9l-5.2 27.3h7.4L37 53.7l2 12.2h5.6L51.3 54l-2.9 14.8Z" clip-rule="evenodd"/><path fill="#FFD300" fill-rule="evenodd" d="M114.6 48.9v.1c-.1.4-.2.7-.3.9l-.8 2.9h-1.9l2.2-2.9c.1-.2.3-.3.4-.5.2-.2.3-.3.4-.5Zm-.3-1.5-4.3 5.5-.4 1.8h3.5l-.5 2.2h1.8l.5-2.2h1.1l.4-1.8h-1.1l1.3-5.5h-2.3Zm5.4 2.7-5.5 11h1.2l5.5-11h-1.2Zm.1 5.4-.5 2.2h3.5L118 65h2.3l5.8-9.2.1-.3h-6.4Zm-10.1-5.4c.1-.8-.1-1.5-.6-2.1-.5-.5-1.1-.8-2-.8-.9 0-1.7.3-2.3.9-.6.6-1 1.5-1.2 2.6h1.9c.1-.5.2-.8.4-1.1.2-.3.5-.4.8-.4.3 0 .5.1.6.3.1.2.2.4.2.7 0 .3-.1.5-.3.9-.2.3-.5.7-1 1.3l-3.9 4.6h6l.5-2.1h-2.5l1.2-1.2c.7-.7 1.2-1.3 1.6-1.9.3-.5.5-1.1.6-1.7Z" clip-rule="evenodd"/><path fill="#040007" d="M151.7 80.7h-2.2c-.1-.2-.1-.5 0-.9l.4-1.6c.1-.5-.1-.8-.5-.8l-.8 3.2h-2.2l.8-3.2c-.4 0-.7.3-.8.8l-.4 1.6c-.1.5-.3.8-.5.9h-2.2c.2-.2.4-.6.5-1.1l.3-1.3c.2-.6.6-1 1.5-1.3.2-.1.5-.1.8-.2-.1 0-.4-.1-.7-.2-.3-.2-.5-.3-.6-.4-.2-.2-.3-.5-.2-.9l.2-1c.1-.5.1-.8 0-1.1h2.2c.1.2.1.5 0 .9l-.3 1.3c-.1.5 0 .8.4.8l.7-2.9h2.2l-.7 2.9c.5 0 .8-.3.9-.8l.3-1.3c.1-.5.3-.8.5-.9h2.2c-.2.2-.4.6-.5 1.1l-.2 1c-.1.4-.3.7-.6.9-.1.1-.4.2-.8.4-.3.1-.5.2-.8.2.1 0 .3.1.7.2.7.2 1 .7.8 1.3l-.3 1.3c-.2.5-.2.8-.1 1.1Zm-10.2-3.5c-.4.3-.7.5-.8.7-.1.2-.2.4-.3.8-.1.4-.1.6-.1.7 0 .1.1.2.3.2.1 0 .2 0 .3-.1.1-.1.1-.3.2-.7l.4-1.6Zm-.4-1H139l.1-.5c.1-.6.3-1 .5-1.3.2-.3.5-.6 1-.8.5-.2 1-.4 1.6-.4.8 0 1.3.1 1.6.4.3.3.5.6.4 1 0 .4-.2 1.2-.5 2.4l-.9 3.7h-2.2l.2-.7c-.2.3-.4.5-.7.6-.2.1-.5.2-.8.2-.4 0-.7-.1-1-.3-.3-.2-.3-.7-.1-1.5l.2-.6c.1-.6.3-.9.5-1.1.2-.2.7-.4 1.5-.7.8-.3 1.3-.5 1.3-.6.1-.1.2-.3.2-.6.1-.4.1-.6.1-.8 0-.1-.1-.2-.2-.2-.2 0-.3 0-.3.1-.1.1-.1.4-.2.8l-.2.9Zm-1.8-2.9-.4 1.6h-1.3l-1.5 5.8H134l1.5-5.8h-1.3l.4-1.6h4.7Zm-7.1 7.4H130l.7-2.7h-.8l-.7 2.7H127l1.8-7.4h2.2l-.7 2.7h.8l.7-2.7h2.2l-1.8 7.4Zm-6.9-5.4c.1-.4.1-.6.1-.7 0-.1-.1-.1-.2-.1s-.2 0-.3.1c-.1.1-.2.3-.2.7l-.8 3.3c-.1.4-.1.6-.1.7 0 .1.1.2.2.2s.2 0 .3-.1c.1-.1.1-.3.2-.6l.8-3.5Zm2.1.6-.5 1.8c-.2.7-.3 1.2-.5 1.5-.1.3-.4.6-.6.9-.3.3-.6.5-1 .6-.4.1-.8.2-1.2.2-.5 0-.9-.1-1.2-.2-.3-.1-.5-.3-.7-.5-.1-.2-.2-.5-.2-.8 0-.3.1-.8.2-1.4l.5-1.9c.2-.7.4-1.2.6-1.6.2-.4.6-.7 1-.9.4-.2 1-.4 1.6-.4.5 0 .9.1 1.2.2.3.2.6.3.7.6.1.2.2.5.2.7.1.3 0 .7-.1 1.2Zm-7.1 4.8h-1.9l1.3-5.1-2.2 5.1h-1.2l.3-5.1-1.3 5.1h-1.9l1.8-7.4h2.8l-.3 4.1 1.7-4.1h2.8l-1.9 7.4Zm-8.6-5.4c.1-.4.1-.6.1-.7 0-.1-.1-.1-.2-.1s-.2 0-.3.1c-.1.1-.2.3-.2.7l-.8 3.3c-.1.4-.1.6-.1.7 0 .1.1.2.2.2s.2 0 .3-.1c.1-.1.1-.3.2-.6l.8-3.5Zm2.1.6-.5 1.8c-.2.7-.3 1.2-.5 1.5-.1.3-.4.6-.6.9-.2.3-.6.5-1 .6-.4.1-.8.2-1.2.2-.5 0-.9-.1-1.2-.2-.3-.1-.5-.3-.7-.5-.1-.2-.2-.5-.2-.8 0-.3.1-.8.2-1.4l.5-1.9c.2-.7.4-1.2.6-1.6.2-.4.6-.7 1-.9.4-.2 1-.4 1.6-.4.5 0 .9.1 1.2.2.3.2.6.3.7.6.1.2.2.5.2.7.1.3 0 .7-.1 1.2Zm-7.1 4.8h-2.2l.7-2.7h-.8l-.7 2.7h-2.2l1.8-7.4h2.2l-.7 2.7h.8l.7-2.7h2.2l-1.8 7.4Zm-6.1 0h-2l1-4-2.6 4h-2l1.8-7.4h2l-1 4 2.5-4h2.1l-1.8 7.4Zm-9-1.6h.8l1.5-5.8h2.2l-1.8 7.4H86l1.8-7.4H90l-1.5 5.8h.8l1.5-5.8H93l-1.4 5.8Zm-8.3-8h.9c-.1.5-.4.9-.7 1.2-.4.3-.8.5-1.3.5s-.8-.2-1-.5c-.2-.3-.2-.7-.1-1.2h.9c-.1.5.1.8.4.8.5 0 .8-.3.9-.8Zm-.2 9.6h-2l1-4-2.6 4h-2.1l1.8-7.4h2l-1 4 2.5-4h2.1l-1.7 7.4Zm-6.4 0h-2.2l1.8-7.4h2.2l-1.8 7.4Zm-4.5-2.4.1-.3c.1-.4.1-.6.1-.7-.1-.1-.3-.1-.6-.1l-.5 2c.3 0 .5 0 .6-.1.1-.2.2-.4.3-.8Zm2.1.3c-.2.7-.4 1.2-.6 1.5-.2.3-.5.5-.9.5-.4.1-.9.1-1.7.1h-2.6l1.8-7.4h2.2l-.6 2.5h.4c.7 0 1.2 0 1.6.1.3.1.5.3.6.6.1.3.1.7-.1 1.4l-.1.7Zm-6.5 2.1h-2.2l.7-2.7h-.8l-.7 2.7h-2.2l1.8-7.4h2.2l-.7 2.7h.8l.7-2.7h2.2l-1.8 7.4Zm-7.7-2.4.1-.3c.1-.4.1-.6.1-.7-.1-.1-.3-.1-.6-.1l-.5 2c.3 0 .5 0 .6-.1.1-.2.2-.4.3-.8Zm2.2.3c-.2.7-.4 1.2-.6 1.5-.2.3-.5.5-.9.5-.4.1-.9.1-1.7.1h-2.6l1.8-7.4h2.2l-.5 2.5h.4c.7 0 1.2 0 1.6.1.3.1.5.3.6.6.1.3.1.7-.1 1.4l-.2.7Zm-8.7 2.1 1.5-5.8h-.8l-.9 3.7c-.2.7-.4 1.2-.6 1.5-.2.3-.5.5-.9.5-.4.1-.9.1-1.7.1h-.4l.3-1.2c.3 0 .5 0 .6-.1.1-.1.2-.3.3-.7l1.3-5.3h5.3l-1.8 7.4h-2.2v-.1Zm-4.2 0h-2l1-4-2.6 4h-2l1.8-7.4h2l-1 4 2.5-4h2.1l-1.8 7.4Zm-6.3-7.4c1.1 0 1.5.4 1.4 1.3-.1.4-.2.9-.3 1.4l-.4 1.8c-.2.8-.4 1.4-.6 1.7-.5.9-1.5 1.3-2.7 1.3h-.9a.9.9 0 0 1-.7-.3c-.3-.2-.4-.6-.5-1 0-.3.1-.8.2-1.5l1.1-4.3c.2-.6.5-1.1 1-1.5.5-.4 1.1-.6 1.7-.6.3 0 .7 0 1.2.1.5 0 .8.1 1 .1.2 0 .4 0 .5-.1l-.3 1.2c-.2.1-.3.1-.5.1h-1.6c-.3 0-.5.1-.7.4 0 .1-.1.3-.2.7.4-.6.9-.8 1.3-.8Zm-2 5.9.9-3.8c.1-.3.1-.5.1-.6 0-.2-.1-.3-.2-.3-.2 0-.3.1-.4.3 0 .1-.1.3-.2.6l-.9 3.5c-.1.4 0 .6.2.6.3.1.5-.1.5-.3Zm-4.9-3.9c.1-.4.1-.6.1-.7 0-.1-.1-.1-.2-.1s-.2 0-.3.1c-.1.1-.2.3-.2.7l-.8 3.3c-.1.4-.1.6-.1.7 0 .1.1.2.2.2s.2 0 .3-.1c.1-.1.1-.3.2-.6l.8-3.5Zm2.1.6-.4 1.8c-.2.7-.3 1.2-.5 1.5-.1.3-.4.6-.6.9-.2.3-.6.5-1 .6-.4.1-.8.2-1.2.2-.5 0-.9-.1-1.2-.2-.3-.1-.5-.3-.7-.5-.1-.2-.2-.5-.2-.8 0-.3.1-.8.2-1.4l.5-1.9c.2-.7.4-1.2.6-1.6.2-.4.6-.7 1-.9.4-.2 1-.4 1.6-.4.5 0 .9.1 1.2.2.3.2.6.3.7.6.1.2.2.5.2.7 0 .3-.1.7-.2 1.2Zm-4.9-4.2-2.2 9h-2.1l1.5-6.1-2.3 6.1h-1.4l.6-6-1.5 6h-2.1l2.2-9h3c0 .5-.1 1.2-.2 1.9l-.2 2.3 1.6-4.2h3.1Z"/><path fill="#000" d="m163.5 73.3-1.9 7.4h-1.7l-2.2-4-1 4h-2l1.9-7.4h1.7l2.2 4 1-4h2Zm-.1 4.1h3.7l-.3 1.2H163l.4-1.2Zm3.7-4c.3.1.5.3.6.6.1.3.2.5.2.8 0 .4-.1.7-.4 1-.2.3-.5.5-.9.7-.4.2-.7.2-1.2.2-.4 0-.7-.1-1-.2a.9.9 0 0 1-.6-.6c-.1-.2-.2-.5-.2-.8 0-.4.1-.7.4-1 .2-.3.5-.5.9-.7.4-.2.7-.2 1.2-.2.4 0 .7.1 1 .2Zm-.8 2.1c.2-.2.3-.4.3-.6 0-.2 0-.3-.1-.5-.1-.1-.3-.2-.4-.2-.2 0-.4.1-.6.2-.2.2-.2.4-.3.6 0 .2 0 .3.1.4.1.1.3.2.4.2.2.1.4.1.6-.1ZM172.4 73.3l-1.8 7.4h-2.1l1.4-5.8h-1.3l.4-1.6h3.4Z"/></g><defs><clipPath id="a"><path fill="#fff" d="M0 0h175.7v86.1H0z"/></clipPath></defs></svg>