<svg xmlns="http://www.w3.org/2000/svg" width="13" height="13" fill="none" viewBox="0 0 13 13"><path fill="#FFD300" d="M11.96 8.53c-.8 0-1.58-.12-2.32-.37a1.02 1.02 0 0 0-1.03.22l-1.46 1.1A8.08 8.08 0 0 1 3.5 5.85L4.6 4.43c.27-.28.37-.68.25-1.06a7.4 7.4 0 0 1-.37-2.33C4.47.47 4.01 0 3.43 0H1.04C.47 0 0 .47 0 1.04 0 7.64 5.36 13 11.96 13c.57 0 1.04-.47 1.04-1.04V9.58c0-.58-.47-1.05-1.04-1.05Zm.32 3.43c0 .17-.15.32-.32.32C5.76 12.28.72 7.24.72 1.04c0-.17.15-.32.32-.32h2.4c.17 0 .31.15.31.32 0 .88.14 1.73.4 2.55.04.12.01.24-.1.37L2.8 5.6a.36.36 0 0 0-.03.38 8.96 8.96 0 0 0 4.25 4.25c.12.07.27.05.38-.03l1.68-1.28a.32.32 0 0 1 .33-.07c.82.27 1.67.4 2.55.4.17 0 .32.15.32.33v2.38Z"/></svg>